<svg width="252" height="328" viewBox="0 0 252 328" fill="none" xmlns="http://www.w3.org/2000/svg">
<mask id="mask0_4080_73840" style="mask-type:alpha" maskUnits="userSpaceOnUse" x="15" y="30" width="212" height="261">
<path d="M226.043 30.3257H45.4249V120.762H15.1416L15.1416 226.916H45.4249V290.261H216.309V115.515L226.043 115.515V30.3257Z" fill="#FCCCDD"/>
</mask>
<g mask="url(#mask0_4080_73840)">
<path d="M267.142 108.306H226.043V116.971H214.146V290.261H197.923V320.587H302.833V290.261H361.236V76.8975H267.142V108.306Z" fill="#E9DFC8"/>
<path d="M226.043 -206.866H45.4249V-207.949H15.1416V-101.808H45.4249V32.4918H226.043V-206.866Z" fill="#E9DFC8"/>
<path d="M226.043 30.3257H45.4249V120.957H15.1416V226.916H45.4249V290.261H214.146V115.515H226.043V30.3257Z" fill="#E9DFC8"/>
<path d="M214.146 64.624V74.3716H211.218C210.595 74.3716 210.09 73.8669 210.09 73.2431V65.7537C210.09 65.1298 210.595 64.624 211.218 64.624H214.146Z" fill="white"/>
<path d="M207.966 65.707C208.062 65.707 208.111 65.707 208.151 65.7189C208.242 65.7471 208.313 65.8175 208.34 65.9085C208.352 65.9486 208.352 65.9973 208.352 66.0948V72.9018C208.352 72.9993 208.352 73.048 208.34 73.087C208.313 73.1791 208.242 73.2495 208.151 73.2776C208.111 73.2885 208.062 73.2885 207.966 73.2885H201.708C199.618 73.2885 197.923 71.5913 197.923 69.4978C197.923 67.4042 199.618 65.707 201.708 65.707H207.966Z" fill="white"/>
<path d="M210.091 65.707V73.2885H208.916C208.65 73.2885 208.518 73.2885 208.435 73.2062C208.353 73.1239 208.353 72.9907 208.353 72.7242V66.2724C208.353 66.006 208.353 65.8727 208.435 65.7904C208.518 65.707 208.65 65.707 208.916 65.707H210.091Z" fill="white"/>
<path d="M214.146 64.624V74.3716H211.218C210.595 74.3716 210.09 73.8669 210.09 73.2431V65.7537C210.09 65.1298 210.595 64.624 211.218 64.624H214.146Z" stroke="#343434" stroke-width="0.5"/>
<path d="M207.966 65.707C208.062 65.707 208.111 65.707 208.151 65.7189C208.242 65.7471 208.313 65.8175 208.34 65.9085C208.352 65.9486 208.352 65.9973 208.352 66.0948V72.9018C208.352 72.9993 208.352 73.048 208.34 73.087C208.313 73.1791 208.242 73.2495 208.151 73.2776C208.111 73.2885 208.062 73.2885 207.966 73.2885H201.708C199.618 73.2885 197.923 71.5913 197.923 69.4978C197.923 67.4042 199.618 65.707 201.708 65.707H207.966Z" stroke="#343434" stroke-width="0.5"/>
<path d="M210.091 65.707V73.2885H208.916C208.65 73.2885 208.518 73.2885 208.435 73.2062C208.353 73.1239 208.353 72.9907 208.353 72.7242V66.2724C208.353 66.006 208.353 65.8727 208.435 65.7904C208.518 65.707 208.65 65.707 208.916 65.707H210.091Z" stroke="#343434" stroke-width="0.5"/>
<path opacity="0.6" d="M212.408 69.9309C212.141 69.9309 211.937 69.7305 211.937 69.4977C211.937 69.2659 212.141 69.0645 212.408 69.0645C212.675 69.0645 212.88 69.2659 212.88 69.4977C212.88 69.7305 212.675 69.9309 212.408 69.9309Z" stroke="#343434" stroke-width="0.2"/>
<path d="M216.039 132.134V131.863H216.309H223.957H223.979C224.962 131.863 225.729 131.863 226.325 131.943C226.933 132.026 227.406 132.196 227.775 132.566C228.145 132.936 228.315 133.409 228.397 134.019C228.477 134.615 228.477 135.383 228.477 136.368V136.389V141.959V141.98C228.477 142.965 228.477 143.733 228.397 144.329C228.315 144.939 228.145 145.412 227.775 145.782C227.406 146.152 226.933 146.322 226.325 146.405C225.729 146.485 224.962 146.485 223.979 146.485H223.957H216.309H216.039V146.214V132.134Z" fill="white"/>
<path d="M216.31 132.134V146.214H226.082C227.256 146.214 228.207 145.262 228.207 144.087V134.261C228.207 133.086 227.256 132.134 226.082 132.134H216.31Z" fill="white"/>
<path opacity="0.6" d="M224.598 138.633L224.598 138.633C224.598 138.399 224.787 138.209 225.021 138.209L225.021 138.209C225.254 138.209 225.444 138.399 225.444 138.633L225.444 138.633C225.444 138.866 225.254 139.056 225.021 139.056L225.021 139.056C224.787 139.056 224.598 138.866 224.598 138.633Z" stroke="#343434" stroke-width="0.2"/>
<path opacity="0.6" d="M220.027 133.198H225.816C226.549 133.198 227.144 133.793 227.144 134.528V143.82C227.144 144.555 226.549 145.15 225.816 145.15H220.027" stroke="#343434" stroke-width="0.3" stroke-linecap="round"/>
<path opacity="0.6" d="M218.434 133.198V145.15" stroke="#343434" stroke-width="0.3" stroke-linecap="round"/>
<path d="M219.335 140.493V136.77C219.335 136.419 219.051 136.135 218.701 136.135C218.35 136.135 218.066 136.419 218.066 136.77V140.493C218.066 140.844 218.35 141.128 218.701 141.128C219.051 141.128 219.335 140.844 219.335 140.493Z" fill="white" stroke="#343434" stroke-width="0.3"/>
<path d="M218.423 139.475L221.348 139.312C221.708 139.292 221.99 138.993 221.99 138.633C221.99 138.271 221.708 137.973 221.348 137.952L218.423 137.79C217.941 137.763 217.534 138.147 217.534 138.633C217.534 139.117 217.941 139.501 218.423 139.475Z" fill="white" stroke="#343434" stroke-width="0.3"/>
<path opacity="0.6" d="M217.903 138.632C217.903 138.926 218.14 139.164 218.434 139.164C218.727 139.164 218.965 138.926 218.965 138.632C218.965 138.339 218.727 138.101 218.434 138.101C218.14 138.101 217.903 138.339 217.903 138.632Z" fill="#343434"/>
<path d="M216.039 132.134V131.863H216.309H223.957H223.979C224.962 131.863 225.729 131.863 226.325 131.943C226.933 132.026 227.406 132.196 227.775 132.566C228.145 132.936 228.315 133.409 228.397 134.019C228.477 134.615 228.477 135.383 228.477 136.368V136.389V141.959V141.98C228.477 142.965 228.477 143.733 228.397 144.329C228.315 144.939 228.145 145.412 227.775 145.782C227.406 146.152 226.933 146.322 226.325 146.405C225.729 146.485 224.962 146.485 223.979 146.485H223.957H216.309H216.039V146.214V132.134Z" stroke="#343434" stroke-width="0.5"/>
<path d="M181.921 34.3872H182.192V34.658V42.3163V42.338C182.192 43.3225 182.192 44.0904 182.112 44.6872C182.03 45.2969 181.861 45.7702 181.491 46.1396C181.121 46.51 180.648 46.68 180.039 46.7623C179.443 46.8425 178.678 46.8425 177.694 46.8425H177.673H172.111H172.09C171.106 46.8425 170.34 46.8425 169.743 46.7623C169.135 46.68 168.663 46.51 168.293 46.1396C167.923 45.7702 167.753 45.2969 167.671 44.6872C167.591 44.0904 167.591 43.3225 167.591 42.338V42.3163V34.658V34.3872H167.861H181.921Z" fill="white"/>
<path d="M181.921 34.6582H167.861V44.4448C167.861 45.6199 168.813 46.5719 169.987 46.5719H179.797C180.971 46.5719 181.921 45.6199 181.921 44.4448V34.6582Z" fill="white"/>
<path opacity="0.6" d="M175.432 42.9565L175.432 42.9565C175.665 42.9565 175.854 43.1462 175.854 43.3801L175.854 43.3801C175.854 43.614 175.665 43.8037 175.432 43.8037L175.432 43.8037C175.198 43.8037 175.009 43.614 175.009 43.3801L175.009 43.3801C175.009 43.1462 175.198 42.9565 175.432 42.9565Z" stroke="#343434" stroke-width="0.2"/>
<path opacity="0.6" d="M180.859 38.3814V44.178C180.859 44.9123 180.264 45.508 179.531 45.508H170.251C169.518 45.508 168.923 44.9123 168.923 44.178V38.3804" stroke="#343434" stroke-width="0.3" stroke-linecap="round"/>
<path opacity="0.6" d="M180.859 36.7852H168.923" stroke="#343434" stroke-width="0.3" stroke-linecap="round"/>
<path d="M173.574 37.687H177.291C177.642 37.687 177.926 37.4026 177.926 37.0517C177.926 36.7008 177.642 36.4163 177.291 36.4163H173.574C173.223 36.4163 172.939 36.7008 172.939 37.0517C172.939 37.4026 173.223 37.687 173.574 37.687Z" fill="white" stroke="#343434" stroke-width="0.3"/>
<path d="M174.591 36.7741L174.754 39.7027C174.774 40.0633 175.072 40.346 175.433 40.346C175.794 40.346 176.092 40.0633 176.112 39.7027L176.274 36.7741C176.301 36.291 175.917 35.8838 175.433 35.8838C174.949 35.8838 174.565 36.291 174.591 36.7741Z" fill="white" stroke="#343434" stroke-width="0.3"/>
<path opacity="0.6" d="M175.432 36.2532C175.138 36.2532 174.901 36.4913 174.901 36.785C174.901 37.0788 175.138 37.3169 175.432 37.3169C175.725 37.3169 175.963 37.0788 175.963 36.785C175.963 36.4913 175.725 36.2532 175.432 36.2532Z" fill="#343434"/>
<path d="M181.921 34.3872H182.192V34.658V42.3163V42.338C182.192 43.3225 182.192 44.0904 182.112 44.6872C182.03 45.2969 181.861 45.7702 181.491 46.1396C181.121 46.51 180.648 46.68 180.039 46.7623C179.443 46.8425 178.678 46.8425 177.694 46.8425H177.673H172.111H172.09C171.106 46.8425 170.34 46.8425 169.743 46.7623C169.135 46.68 168.663 46.51 168.293 46.1396C167.923 45.7702 167.753 45.2969 167.671 44.6872C167.591 44.0904 167.591 43.3225 167.591 42.338V42.3163V34.658V34.3872H167.861H181.921Z" stroke="#343434" stroke-width="0.5"/>
<path d="M202.249 171.937H202.52V172.207V179.866V179.887C202.52 180.872 202.52 181.64 202.44 182.236C202.358 182.846 202.188 183.32 201.818 183.689C201.449 184.059 200.976 184.229 200.368 184.312C199.772 184.392 199.005 184.392 198.022 184.392H198H192.439H192.417C191.434 184.392 190.667 184.392 190.071 184.312C189.462 184.229 188.99 184.059 188.621 183.689C188.251 183.32 188.081 182.846 187.999 182.236C187.919 181.64 187.919 180.872 187.919 179.887V179.866V172.207V171.937H188.189H202.249Z" fill="white"/>
<path d="M202.25 172.208H188.189V181.994C188.189 183.169 189.14 184.121 190.314 184.121H200.125C201.299 184.121 202.25 183.169 202.25 181.994V172.208Z" fill="white"/>
<path opacity="0.6" d="M195.76 180.506L195.76 180.506C195.993 180.506 196.183 180.695 196.183 180.929L196.183 180.929C196.183 181.163 195.993 181.353 195.76 181.353L195.76 181.353C195.526 181.353 195.337 181.163 195.337 180.929L195.337 180.929C195.337 180.695 195.526 180.506 195.76 180.506Z" stroke="#343434" stroke-width="0.2"/>
<path opacity="0.6" d="M201.187 175.931V181.727C201.187 182.462 200.592 183.057 199.859 183.057H190.579C189.846 183.057 189.251 182.462 189.251 181.727V175.93" stroke="#343434" stroke-width="0.3" stroke-linecap="round"/>
<path opacity="0.6" d="M201.187 174.334H189.251" stroke="#343434" stroke-width="0.3" stroke-linecap="round"/>
<path d="M193.901 175.236H197.618C197.969 175.236 198.253 174.951 198.253 174.601C198.253 174.25 197.969 173.965 197.618 173.965H193.901C193.55 173.965 193.266 174.25 193.266 174.601C193.266 174.951 193.55 175.236 193.901 175.236Z" fill="white" stroke="#343434" stroke-width="0.3"/>
<path d="M194.919 174.324L195.082 177.252C195.102 177.613 195.4 177.896 195.761 177.896C196.122 177.896 196.419 177.613 196.44 177.252L196.602 174.324C196.629 173.841 196.244 173.434 195.761 173.434C195.277 173.434 194.892 173.841 194.919 174.324Z" fill="white" stroke="#343434" stroke-width="0.3"/>
<path opacity="0.6" d="M195.76 173.803C195.467 173.803 195.229 174.041 195.229 174.335C195.229 174.629 195.467 174.867 195.76 174.867C196.053 174.867 196.291 174.629 196.291 174.335C196.291 174.041 196.053 173.803 195.76 173.803Z" fill="#343434"/>
<path d="M202.249 171.937H202.52V172.207V179.866V179.887C202.52 180.872 202.52 181.64 202.44 182.236C202.358 182.846 202.188 183.32 201.818 183.689C201.449 184.059 200.976 184.229 200.368 184.312C199.772 184.392 199.005 184.392 198.022 184.392H198H192.439H192.417C191.434 184.392 190.667 184.392 190.071 184.312C189.462 184.229 188.99 184.059 188.621 183.689C188.251 183.32 188.081 182.846 187.999 182.236C187.919 181.64 187.919 180.872 187.919 179.887V179.866V172.207V171.937H188.189H202.249Z" stroke="#343434" stroke-width="0.5"/>
<mask id="mask1_4080_73840" style="mask-type:luminance" maskUnits="userSpaceOnUse" x="147" y="34" width="18" height="43">
<path d="M147.091 34.6582L164.396 34.6582L164.396 76.8977L147.091 76.8977L147.091 34.6582Z" fill="white"/>
</mask>
<g mask="url(#mask1_4080_73840)">
<path d="M147.091 34.6582L164.396 34.6582L164.396 76.8977L147.091 76.8977L147.091 34.6582Z" fill="white"/>
<path d="M147.091 34.6582L164.396 34.6582L164.396 76.8977L147.091 76.8977L147.091 34.6582Z" fill="white"/>
<path opacity="0.6" d="M155.743 46.7627L155.743 46.7627C156.378 46.7627 156.894 47.2785 156.894 47.9148L156.894 47.9148C156.894 48.551 156.378 49.0668 155.743 49.0668L155.743 49.0668C155.108 49.0668 154.593 48.551 154.593 47.9148L154.593 47.9148C154.593 47.2785 155.108 46.7627 155.743 46.7627Z" stroke="#343434" stroke-width="0.204"/>
<g opacity="0.6">
<path d="M161.1 37.9766H150.386C149.7 37.9766 149.145 38.5333 149.145 39.221V67.6016C149.145 71.2516 152.098 74.2105 155.743 74.2105C159.388 74.2105 162.342 71.2516 162.342 67.6016V39.221C162.342 38.5333 161.786 37.9766 161.1 37.9766Z" stroke="#343434" stroke-width="0.3"/>
</g>
<path d="M153.536 38.2827H157.949C158.382 38.2827 158.732 37.9315 158.732 37.4982C158.732 37.065 158.382 36.7138 157.949 36.7138H153.536C153.104 36.7138 152.753 37.065 152.753 37.4982C152.753 37.9315 153.104 38.2827 153.536 38.2827Z" fill="white" stroke="#343434" stroke-width="0.3"/>
<path d="M154.706 37.1741L154.912 41.28C154.933 41.723 155.299 42.0707 155.742 42.0707C156.186 42.0707 156.551 41.723 156.573 41.28L156.779 37.1741C156.808 36.5806 156.335 36.0835 155.742 36.0835C155.15 36.0835 154.677 36.5806 154.706 37.1741Z" fill="white" stroke="#343434" stroke-width="0.3"/>
<path opacity="0.6" d="M155.743 36.5514C155.394 36.5514 155.112 36.8341 155.112 37.1827C155.112 37.5313 155.394 37.814 155.743 37.814C156.091 37.814 156.373 37.5313 156.373 37.1827C156.373 36.8341 156.091 36.5514 155.743 36.5514Z" fill="#343434"/>
</g>
<path d="M146.821 34.3872L164.666 34.3872L164.666 77.1683L146.821 77.1683L146.821 34.3872Z" stroke="#343434" stroke-width="0.5"/>
<mask id="mask2_4080_73840" style="mask-type:luminance" maskUnits="userSpaceOnUse" x="216" y="171" width="14" height="14">
<path d="M229.288 171.124L229.288 184.121L216.31 184.121L216.31 171.124L229.288 171.124Z" fill="white"/>
</mask>
<g mask="url(#mask2_4080_73840)">
<path d="M229.288 171.124L229.288 184.121L216.31 184.121L216.31 171.124L229.288 171.124Z" fill="white"/>
<path opacity="0.6" d="M223.355 180.33C223.355 179.224 224.251 178.327 225.356 178.327C226.461 178.327 227.356 179.224 227.356 180.33C227.356 181.437 226.461 182.334 225.356 182.334C224.251 182.334 223.355 181.437 223.355 180.33Z" stroke="#343434" stroke-width="0.3"/>
<path opacity="0.6" d="M222.243 174.915C222.243 173.809 221.347 172.912 220.242 172.912C219.137 172.912 218.241 173.809 218.241 174.915C218.241 176.022 219.137 176.919 220.242 176.919C221.347 176.919 222.243 176.022 222.243 174.915Z" stroke="#343434" stroke-width="0.3"/>
<path opacity="0.6" d="M220.527 174.915C220.527 174.676 220.334 174.482 220.095 174.482C219.856 174.482 219.662 174.676 219.662 174.915C219.662 175.155 219.856 175.349 220.095 175.349C220.334 175.349 220.527 175.155 220.527 174.915Z" stroke="#343434" stroke-width="0.2"/>
<path opacity="0.6" d="M225.719 180.33C225.719 180.091 225.525 179.897 225.286 179.897C225.047 179.897 224.854 180.091 224.854 180.33C224.854 180.57 225.047 180.764 225.286 180.764C225.525 180.764 225.719 180.57 225.719 180.33Z" stroke="#343434" stroke-width="0.2"/>
<path opacity="0.6" d="M218.635 180.33C218.635 179.523 219.288 178.868 220.095 178.868C220.901 178.868 221.555 179.523 221.555 180.33C221.555 181.138 220.901 181.792 220.095 181.792C219.288 181.792 218.635 181.138 218.635 180.33Z" stroke="#343434" stroke-width="0.3"/>
<path opacity="0.6" d="M227.179 174.915C227.179 174.108 226.525 173.453 225.719 173.453C224.912 173.453 224.259 174.108 224.259 174.915C224.259 175.723 224.912 176.377 225.719 176.377C226.525 176.377 227.179 175.723 227.179 174.915Z" stroke="#343434" stroke-width="0.3"/>
</g>
<path d="M229.559 170.853L229.559 184.392L216.039 184.392L216.039 170.853L229.559 170.853Z" stroke="#343434" stroke-width="0.5"/>
<mask id="mask3_4080_73840" style="mask-type:luminance" maskUnits="userSpaceOnUse" x="199" y="252" width="13" height="14">
<path d="M211.983 265.351H199.005V252.354H211.983V265.351Z" fill="white"/>
</mask>
<g mask="url(#mask3_4080_73840)">
<path d="M211.983 265.351H199.005V252.354H211.983V265.351Z" fill="white"/>
<path opacity="0.6" d="M202.79 259.41C203.895 259.41 204.791 260.307 204.791 261.413C204.791 262.52 203.895 263.417 202.79 263.417C201.685 263.417 200.789 262.52 200.789 261.413C200.789 260.307 201.685 259.41 202.79 259.41Z" stroke="#343434" stroke-width="0.3"/>
<path opacity="0.6" d="M208.198 258.296C209.303 258.296 210.199 257.399 210.199 256.293C210.199 255.186 209.303 254.289 208.198 254.289C207.093 254.289 206.197 255.186 206.197 256.293C206.197 257.399 207.093 258.296 208.198 258.296Z" stroke="#343434" stroke-width="0.3"/>
<path opacity="0.6" d="M208.198 256.578C208.437 256.578 208.631 256.384 208.631 256.145C208.631 255.906 208.437 255.712 208.198 255.712C207.959 255.712 207.766 255.906 207.766 256.145C207.766 256.384 207.959 256.578 208.198 256.578Z" stroke="#343434" stroke-width="0.2"/>
<path opacity="0.6" d="M202.79 261.777C203.029 261.777 203.223 261.583 203.223 261.344C203.223 261.105 203.029 260.911 202.79 260.911C202.551 260.911 202.357 261.105 202.357 261.344C202.357 261.583 202.551 261.777 202.79 261.777Z" stroke="#343434" stroke-width="0.2"/>
<path opacity="0.6" d="M202.79 254.683C203.597 254.683 204.25 255.338 204.25 256.145C204.25 256.953 203.597 257.607 202.79 257.607C201.984 257.607 201.33 256.953 201.33 256.145C201.33 255.338 201.984 254.683 202.79 254.683Z" stroke="#343434" stroke-width="0.3"/>
<path opacity="0.6" d="M208.198 263.239C209.005 263.239 209.658 262.585 209.658 261.777C209.658 260.97 209.005 260.315 208.198 260.315C207.392 260.315 206.738 260.97 206.738 261.777C206.738 262.585 207.392 263.239 208.198 263.239Z" stroke="#343434" stroke-width="0.3"/>
</g>
<path d="M212.254 265.622H198.734V252.083H212.254V265.622Z" stroke="#343434" stroke-width="0.5"/>
<path d="M228.206 278.348H192.515V290.261H228.206V278.348Z" fill="#343434"/>
<path d="M151.417 278.348H139.52V290.261H151.417V278.348Z" fill="#343434"/>
<path d="M65.9741 112.639H54.0771V127.802H65.9741V112.639Z" fill="#343434"/>
<path d="M144.927 116.971H117.889V123.469H144.927V116.971Z" fill="#343434"/>
<path d="M214.146 186.287V214.447H220.635V186.287H214.146Z" fill="#343434"/>
<path d="M116.807 276.182H87.6055V282.68H116.807V276.182Z" fill="#343434"/>
<path d="M226.043 112.639H211.982V126.719H226.043V112.639Z" fill="#343434"/>
<path d="M120.051 278.348H45.4248V290.261H120.051V278.348Z" fill="#343434"/>
<path d="M45.4248 194.951L45.4248 290.261H57.3218L57.3218 194.951H45.4248Z" fill="#343434"/>
<path d="M45.4248 96.3924V145.13H57.3218V96.3924H45.4248Z" fill="#343434"/>
<path d="M45.4248 17.329V55.2363H57.3218V17.329H45.4248Z" fill="#343434"/>
<path d="M211.982 270.766V284.846H226.043V270.766H211.982Z" fill="#343434"/>
<path d="M45.4248 217.696V246.938H59.4849V217.696H45.4248Z" fill="#343434"/>
<path d="M200.086 288.095V318.421H280.12M280.12 318.421H300.67V288.095M280.12 318.421V313.006M280.12 288.095V295.677" stroke="#343434" stroke-width="4"/>
<path d="M47.5879 225.277H17.3047V142.964M17.3047 142.964V122.386H47.5879M17.3047 142.964H22.7124M47.5879 142.964H41.0987" stroke="#343434" stroke-width="4"/>
<path d="M56.2407 -280.514H139.52M139.52 -280.514H143.846M139.52 -280.514V-274.016M139.52 -255.604V-250.188M139.52 -250.188V-206.866M139.52 -250.188H174.129M190.352 -250.188H224.421V-211.198M161.151 -280.514H166.018M166.018 -280.514H240.103M166.018 -280.514V-354.163M259.571 -280.514H275.794V-355.246M275.794 -252.354V-206.866H292.018M292.018 -206.866H360.155M292.018 -206.866V-189.537M665.151 -280.514H581.872M581.872 -280.514H577.545M581.872 -280.514V-274.016M581.872 -255.604V-250.188M581.872 -250.188V-206.866M581.872 -250.188H547.262M531.039 -250.188H496.97V-211.198M560.241 -280.514H555.915M555.915 -280.514H485.614M555.915 -280.514V-354.163M465.065 -280.514H445.597V-355.246M445.597 -252.354V-206.866H361.236M292.018 -173.291V-150.546M292.018 -150.546V-142.965M292.018 -150.546H360.155H429.374M429.374 -150.546V-173.291M429.374 -150.546V-142.965M429.374 -206.866V-189.537M183.863 -206.866V-150.546M183.863 -150.546V-141.882H149.254M183.863 -150.546H190.352M190.352 -150.546H196.842M190.352 -150.546V-206.866M213.065 -150.546H223.88M55.1592 -110.473H151.417V-71.4944M151.417 -51.9992V-35.1998M151.417 -35.1998H63.8115M151.417 -35.1998H156.824M177.374 -35.1998H223.88M182.781 -6.49855V-29.2429M182.781 -29.2429V-69.3163M182.781 -29.2429H223.88M182.781 -84.4793V-90.9777H223.88M182.781 9.74743V32.4918M215.228 32.4918V77.9806M215.228 77.9806H223.88M215.228 77.9806H186.026M169.803 77.9806H144.927M144.927 77.9806V32.4918M144.927 77.9806V90.9773M144.927 111.556V122.386M144.927 122.386V140.798M144.927 122.386H63.8115M144.927 160.294V171.124M144.927 171.124V280.514M144.927 171.124H155.743M176.292 171.124H214.146M310.404 79.0636V86.6451M310.404 86.6451V116.971M310.404 86.6451H361.236M310.404 132.134V153.795M310.404 153.795H292.018V174.373M310.404 153.795H361.236M292.018 194.952V281.055M223.88 120.22H269.846V110.473M410.447 79.0636V86.6451M410.447 86.6451V116.971M410.447 86.6451H359.614M410.447 132.134V153.795M410.447 153.795H428.833V174.373M410.447 153.795H359.614M428.833 194.952V281.055M496.97 120.22H452.627V110.473M506.163 32.4918V77.9806M506.163 77.9806H497.511M506.163 77.9806H535.365M551.588 77.9806H575.382M575.382 77.9806V32.4918M575.382 77.9806V82.3128M575.382 102.891V121.303H601.339M601.339 121.303H657.58M601.339 121.303V126.718H666.232M507.245 124.552H539.691V133.217M539.691 148.38V174.373M539.691 174.373V180.872M539.691 174.373H507.245M539.691 180.872H507.245M539.691 180.872H542.936M561.322 180.872H575.382V280.514M538.61 -69.3163V-44.4058M538.61 -44.4058H507.245M538.61 -44.4058V-36.2828M538.61 -84.4793V-90.9777H497.511M569.975 -36.2828V-75.8147M569.975 -96.393V-110.473H666.232M563.485 -141.882H537.528V-150.546M537.528 -150.546V-206.866M537.528 -150.546H531.039M531.039 -150.546H523.468M531.039 -150.546V-206.866M507.245 -150.546H497.511M536.447 9.74743V33.5749M507.245 -36.2828H536.447M536.447 -36.2828H538.61M536.447 -36.2828V-6.49855M542.936 -36.2828H538.61M563.485 -36.2828H657.58" stroke="#343434" stroke-width="3"/>
<path d="M55.1592 32.4917H223.88M223.88 32.4917V-108.307M223.88 32.4917V81.2297M223.88 103.974V110.472M223.88 110.472H269.305V106.14M223.88 110.472V124.552H214.146V272.932M269.305 83.3958V79.0635M269.305 79.0635V10.8304H294.181M269.305 79.0635H361.236M395.846 10.8304H294.181M294.181 10.8304V4.33204M425.048 10.8304H433.7M433.7 10.8304V29.2425M433.7 10.8304H445.602M433.7 29.2425H453.168M433.7 29.2425V38.9901M445.602 10.8304H453.168V29.2425M445.602 10.8304V2.16591M433.7 79.0635H453.168M433.7 79.0635V70.399M433.7 79.0635H361.236M453.168 79.0635V70.399M453.168 79.0635V84.4789M433.7 70.399V55.2361M433.7 70.399H453.168M361.236 79.0635V273.474M453.168 70.399V55.2361M453.168 29.2425V38.9901M433.7 38.9901H453.168M433.7 38.9901V55.2361M453.168 38.9901V55.2361M433.7 55.2361H453.168M453.168 105.057V110.472H497.511M497.511 110.472V102.891M497.511 110.472V124.552H507.245V272.932M497.511 81.2297V33.5748M497.511 33.5748V21.6611V-2.16636V-38.9906V-105.058M497.511 33.5748H569.975H621.889H666.232M497.511 -128.343V-142.965M497.511 -142.965H468.309M497.511 -142.965V-206.866H657.58M223.88 -132.134V-142.965M223.88 -142.965H254.163M223.88 -142.965V-174.915V-206.866H63.8115M444.515 -142.965H423.966M423.966 -142.965V-123.47M423.966 -142.965H360.155M276.876 -142.965H294.181M294.181 -142.965V-123.47M294.181 -142.965H360.155M360.155 -142.965V-345.498M423.966 -94.2269V-60.6519M423.966 -60.6519V-35.7414M423.966 -60.6519H445.597M423.966 -35.7414H361.236V-42.2398M423.966 -35.7414H445.602M361.236 -42.2398V-86.6454M361.236 -42.2398H315.812M445.602 -35.7414H445.597V-60.6519M445.602 -35.7414V-28.1599M398.009 -86.6454H445.597V-60.6519M361.236 -86.6454H367.726M361.236 -86.6454H352.584M322.301 -86.6454H268.413V-60.6519M268.413 -60.6519V-42.2398H315.812M268.413 -60.6519H294.181M315.812 -42.2398V-25.9938H294.181M294.181 -94.2269V-60.6519M294.181 -60.6519V-25.9938M294.181 -25.9938V-21.6615" stroke="#343434" stroke-width="4"/>
<mask id="mask4_4080_73840" style="mask-type:luminance" maskUnits="userSpaceOnUse" x="217" y="35" width="5" height="7">
<path d="M221.718 35.7412H217.392V41.1565H221.718V35.7412Z" fill="white"/>
</mask>
<g mask="url(#mask4_4080_73840)">
<path d="M221.718 35.7412H217.392V41.1565H221.718V35.7412Z" fill="white"/>
<path opacity="0.5" d="M217.392 35.7412H221.718L218.654 37.3203L217.392 41.1565V35.7412Z" fill="#343434"/>
</g>
<path d="M222.799 34.6582H216.31V42.2397H222.799V34.6582Z" stroke="#343434" stroke-width="2"/>
<mask id="mask5_4080_73840" style="mask-type:luminance" maskUnits="userSpaceOnUse" x="197" y="164" width="15" height="5">
<path d="M211.984 164.626H197.924V168.958H211.984V164.626Z" fill="white"/>
</mask>
<g mask="url(#mask5_4080_73840)">
<path d="M211.984 164.626H197.924V168.958H211.984V164.626Z" fill="white"/>
<path opacity="0.5" d="M197.924 164.626H211.984L202.025 165.89L197.924 168.958V164.626Z" fill="#343434"/>
</g>
<path d="M213.065 163.543H196.842V170.041H213.065V163.543Z" stroke="#343434" stroke-width="2"/>
<path d="M57.0515 55.5073H45.6953V96.1223H57.0515V55.5073Z" fill="white"/>
<path d="M50.2918 55.2363H49.751V96.3928H50.2918V55.2363Z" fill="#343434"/>
<path d="M57.0515 55.5073H45.6953V96.1223H57.0515V55.5073Z" stroke="#343434" stroke-width="0.5"/>
<path d="M57.0515 145.401H45.6953V171.936H57.0515V145.401Z" fill="white"/>
<path d="M50.2918 145.13H49.751V172.207H50.2918V145.13Z" fill="#343434"/>
<path d="M57.0515 145.401H45.6953V171.936H57.0515V145.401Z" stroke="#343434" stroke-width="0.5"/>
<mask id="mask6_4080_73840" style="mask-type:luminance" maskUnits="userSpaceOnUse" x="120" y="278" width="20" height="13">
<path d="M120.052 278.348V290.261H139.52V278.348H120.052Z" fill="white"/>
</mask>
<g mask="url(#mask6_4080_73840)">
<path d="M120.052 278.348V290.261H139.52V278.348H120.052Z" fill="white"/>
<path d="M120.052 285.388V285.929H139.52V285.388H120.052Z" fill="#343434"/>
</g>
<path d="M120.322 278.619V289.991H139.249V278.619H120.322Z" stroke="#343434" stroke-width="0.5"/>
<mask id="mask7_4080_73840" style="mask-type:luminance" maskUnits="userSpaceOnUse" x="151" y="278" width="42" height="13">
<path d="M151.416 278.348V290.261H192.515V278.348H151.416Z" fill="white"/>
</mask>
<g mask="url(#mask7_4080_73840)">
<path d="M151.416 278.348V290.261H192.515V278.348H151.416Z" fill="white"/>
<path d="M151.416 285.388V285.929H192.515V285.388H151.416Z" fill="#343434"/>
</g>
<path d="M151.687 278.619V289.991H192.244V278.619H151.687Z" stroke="#343434" stroke-width="0.5"/>
<path d="M86.6855 222.629V223.111H83.6658V222.688L85.1778 221.004C85.3639 220.796 85.5077 220.621 85.6083 220.477C85.7121 220.332 85.7835 220.201 85.8246 220.087C85.8668 219.971 85.8873 219.852 85.8873 219.732C85.8873 219.579 85.856 219.441 85.7922 219.319C85.7316 219.195 85.6408 219.095 85.5196 219.021C85.3996 218.946 85.2535 218.91 85.0827 218.91C84.8782 218.91 84.7063 218.95 84.5689 219.03C84.4337 219.109 84.3332 219.218 84.265 219.36C84.198 219.502 84.1633 219.665 84.1633 219.849H83.5771C83.5771 219.589 83.6345 219.35 83.7491 219.135C83.8627 218.919 84.0314 218.748 84.2553 218.62C84.4792 218.492 84.7549 218.428 85.0827 218.428C85.3747 218.428 85.6234 218.48 85.83 218.583C86.0377 218.684 86.1956 218.828 86.3059 219.015C86.4173 219.199 86.4735 219.414 86.4735 219.661C86.4735 219.797 86.4508 219.934 86.4043 220.074C86.36 220.212 86.2972 220.349 86.2172 220.487C86.1393 220.624 86.0474 220.76 85.9414 220.893C85.8376 221.026 85.7273 221.157 85.6083 221.286L84.3732 222.629H86.6855ZM90.4309 221.556V222.039H87.0976V221.692L89.1633 218.491H89.6425L89.1287 219.418L87.7638 221.556H90.4309ZM89.7885 218.491V223.111H89.2023V218.491H89.7885ZM91.559 222.412V222.886C91.559 223.078 91.5103 223.281 91.414 223.494C91.3167 223.711 91.1804 223.891 91.0052 224.035L90.6721 223.803C90.7391 223.71 90.7965 223.615 90.843 223.517C90.8895 223.422 90.9241 223.322 90.9479 223.219C90.9728 223.117 90.9857 223.009 90.9857 222.895V222.412H91.559ZM92.8265 222.619H92.8871C93.2245 222.619 93.4992 222.572 93.7112 222.476C93.9221 222.381 94.0844 222.253 94.199 222.093C94.3126 221.931 94.3905 221.751 94.4326 221.55C94.4759 221.347 94.4964 221.139 94.4964 220.924V220.217C94.4964 220.008 94.4726 219.822 94.424 219.658C94.3774 219.496 94.3115 219.359 94.2271 219.25C94.1449 219.139 94.0508 219.056 93.9448 218.998C93.8399 218.941 93.7275 218.913 93.6096 218.913C93.4744 218.913 93.3521 218.94 93.2451 218.995C93.1391 219.048 93.0493 219.123 92.9758 219.221C92.9033 219.318 92.8493 219.433 92.8103 219.564C92.7725 219.695 92.7541 219.838 92.7541 219.992C92.7541 220.129 92.7703 220.262 92.8049 220.391C92.8384 220.52 92.8904 220.637 92.9596 220.741C93.0299 220.844 93.1164 220.926 93.2191 220.988C93.3251 221.048 93.4484 221.077 93.5901 221.077C93.721 221.077 93.8442 221.052 93.9578 221.001C94.0735 220.948 94.1763 220.878 94.265 220.788C94.3558 220.697 94.4283 220.595 94.4802 220.48C94.5354 220.366 94.5678 220.246 94.5754 220.122H94.8544C94.8544 220.297 94.8198 220.47 94.7495 220.643C94.6825 220.812 94.5873 220.966 94.4651 221.105C94.3429 221.245 94.199 221.357 94.0335 221.442C93.8691 221.524 93.6896 221.565 93.4949 221.565C93.2667 221.565 93.0699 221.521 92.9022 221.432C92.7357 221.343 92.5983 221.225 92.4912 221.077C92.3853 220.929 92.3063 220.764 92.2533 220.582C92.2025 220.398 92.1776 220.212 92.1776 220.023C92.1776 219.803 92.2079 219.597 92.2695 219.405C92.3301 219.212 92.4209 219.043 92.541 218.897C92.6621 218.749 92.8103 218.633 92.9887 218.551C93.1683 218.469 93.3749 218.428 93.6096 218.428C93.8735 218.428 94.0984 218.481 94.2844 218.586C94.4705 218.692 94.6208 218.834 94.7376 219.012C94.8555 219.189 94.942 219.388 94.9972 219.611C95.0524 219.834 95.0794 220.062 95.0794 220.296V220.509C95.0794 220.748 95.0642 220.991 95.0318 221.238C95.0026 221.484 94.9442 221.719 94.8577 221.943C94.7733 222.168 94.65 222.368 94.4867 222.547C94.3245 222.722 94.1125 222.862 93.8497 222.965C93.5901 223.066 93.2689 223.117 92.8871 223.117H92.8265V222.619ZM97.82 218.466V223.111H97.2338V219.199L96.0528 219.63V219.1L97.7281 218.466H97.82Z" fill="#343434"/>
<path d="M83.2793 223.746H99.1575V224.063H83.2793V223.746Z" fill="#343434"/>
<path d="M87.3669 230.402V230.694C87.3669 231.041 87.3237 231.352 87.2371 231.627C87.1506 231.902 87.0262 232.136 86.8629 232.329C86.7007 232.521 86.5049 232.668 86.2767 232.77C86.0507 232.871 85.7976 232.922 85.5164 232.922C85.2438 232.922 84.994 232.871 84.7658 232.77C84.5398 232.668 84.3429 232.521 84.1764 232.329C84.012 232.136 83.8844 231.902 83.7935 231.627C83.7027 231.352 83.6572 231.041 83.6572 230.694V230.402C83.6572 230.055 83.7016 229.746 83.7902 229.473C83.8811 229.198 84.0087 228.964 84.1731 228.772C84.3386 228.577 84.5333 228.429 84.7593 228.327C84.9875 228.226 85.2385 228.175 85.5099 228.175C85.7911 228.175 86.0453 228.226 86.2713 228.327C86.4995 228.429 86.6942 228.577 86.8575 228.772C87.0219 228.964 87.1474 229.198 87.2339 229.473C87.3226 229.746 87.3669 230.055 87.3669 230.402ZM86.7623 230.694V230.397C86.7623 230.122 86.7331 229.878 86.6769 229.667C86.6217 229.454 86.5406 229.277 86.4325 229.134C86.3243 228.99 86.1924 228.88 86.0366 228.807C85.882 228.732 85.7068 228.695 85.5099 228.695C85.3207 228.695 85.1487 228.732 84.994 228.807C84.8415 228.88 84.7106 228.99 84.6014 229.134C84.4932 229.277 84.41 229.454 84.3505 229.667C84.2921 229.878 84.2618 230.122 84.2618 230.397V230.694C84.2618 230.972 84.2921 231.217 84.3505 231.431C84.41 231.642 84.4944 231.821 84.6047 231.967C84.7161 232.111 84.848 232.219 85.0005 232.294C85.1541 232.368 85.3271 232.405 85.5164 232.405C85.7154 232.405 85.8917 232.368 86.0464 232.294C86.2 232.219 86.3297 232.111 86.4357 231.967C86.5439 231.821 86.625 231.642 86.6802 231.431C86.7342 231.217 86.7623 230.972 86.7623 230.694ZM91.6812 228.238V228.74H89.4565V232.858H88.8476V228.238H91.6812ZM89.3137 230.12H90.5716C90.9101 230.12 91.1945 230.177 91.427 230.292C91.6596 230.403 91.8359 230.561 91.9559 230.764C92.0771 230.967 92.1365 231.206 92.1365 231.479C92.1365 231.681 92.103 231.867 92.036 232.036C91.9678 232.204 91.8672 232.349 91.7342 232.475C91.6012 232.597 91.4379 232.693 91.2432 232.76C91.0496 232.826 90.8257 232.858 90.5716 232.858H88.8476V228.238H89.4597V232.36H90.5716C90.7976 232.36 90.9804 232.319 91.1199 232.237C91.2616 232.152 91.3654 232.042 91.4303 231.906C91.4963 231.771 91.5287 231.626 91.5287 231.472C91.5287 231.317 91.4963 231.175 91.4303 231.047C91.3654 230.918 91.2616 230.815 91.1199 230.739C90.9804 230.661 90.7976 230.622 90.5716 230.622H89.3137V230.12ZM99.026 232.376L98.9697 233.972H98.443V232.858H97.9963V232.376H99.026ZM93.5674 228.238H94.1817V232.36H95.7662V228.238H96.374V232.36H97.9488V228.238H98.5609V232.858H93.5674V228.238ZM102.174 228.647L100.646 232.858H100.022L101.781 228.238H102.183L102.174 228.647ZM103.454 232.858L101.923 228.647L101.914 228.238H102.316L104.081 232.858H103.454ZM103.375 231.148V231.65H100.782V231.148H103.375ZM107.844 231.059H106.548L106.246 230.936C105.913 230.83 105.656 230.668 105.476 230.45C105.297 230.23 105.207 229.957 105.207 229.632C105.207 229.333 105.273 229.081 105.404 228.873C105.537 228.666 105.725 228.508 105.967 228.401C106.213 228.292 106.503 228.238 106.836 228.238H108.312V232.858H107.701V228.74H106.836C106.498 228.74 106.243 228.82 106.072 228.981C105.904 229.141 105.819 229.359 105.819 229.632C105.819 229.81 105.856 229.968 105.929 230.107C106.006 230.247 106.118 230.357 106.266 230.438C106.413 230.518 106.597 230.558 106.817 230.558H107.847L107.844 231.059ZM106.804 230.742L105.683 232.858H105.033L106.187 230.742H106.804ZM84.4554 235.82V240.44H83.8432V235.82H84.4554ZM87.2977 235.82L85.2947 238.361H84.211L84.1158 237.854H84.9302L86.5406 235.82H87.2977ZM86.6823 240.44L84.9497 238.282L85.2914 237.746L87.4308 240.44H86.6823ZM92.0197 237.984V238.276C92.0197 238.623 91.9765 238.933 91.8899 239.208C91.8034 239.484 91.679 239.717 91.5157 239.91C91.3535 240.102 91.1577 240.249 90.9295 240.351C90.7035 240.453 90.4504 240.504 90.1692 240.504C89.8967 240.504 89.6468 240.453 89.4186 240.351C89.1926 240.249 88.9957 240.102 88.8292 239.91C88.6637 239.717 88.5361 239.484 88.4452 239.208C88.3544 238.933 88.3089 238.623 88.3089 238.276V237.984C88.3089 237.637 88.3533 237.327 88.442 237.054C88.5328 236.779 88.6615 236.545 88.8259 236.353C88.9903 236.159 89.1861 236.01 89.4121 235.908C89.6404 235.808 89.8902 235.757 90.1627 235.757C90.4439 235.757 90.697 235.808 90.923 235.908C91.1512 236.01 91.347 236.159 91.5093 236.353C91.6747 236.545 91.8002 236.779 91.8867 237.054C91.9754 237.327 92.0197 237.637 92.0197 237.984ZM91.4141 238.276V237.978C91.4141 237.703 91.3859 237.459 91.3286 237.248C91.2745 237.036 91.1924 236.858 91.0853 236.715C90.9771 236.571 90.8452 236.462 90.6894 236.388C90.5348 236.313 90.3596 236.277 90.1627 236.277C89.9724 236.277 89.8004 236.313 89.6468 236.388C89.4943 236.462 89.3635 236.571 89.2532 236.715C89.1461 236.858 89.0628 237.036 89.0033 237.248C88.9438 237.459 88.9146 237.703 88.9146 237.978V238.276C88.9146 238.553 88.9438 238.798 89.0033 239.012C89.0628 239.224 89.1472 239.402 89.2564 239.549C89.3689 239.693 89.5008 239.801 89.6533 239.876C89.8069 239.949 89.9789 239.986 90.1692 239.986C90.3682 239.986 90.5445 239.949 90.6981 239.876C90.8528 239.801 90.9825 239.693 91.0885 239.549C91.1956 239.402 91.2767 239.224 91.3319 239.012C91.387 238.798 91.4141 238.553 91.4141 238.276ZM93.7123 235.82H94.305L95.8171 239.586L97.3247 235.82H97.9206L96.0453 240.44H95.5823L93.7123 235.82ZM93.5198 235.82H94.0422L94.1277 238.638V240.44H93.5198V235.82ZM97.5875 235.82H98.111V240.44H97.5021V238.638L97.5875 235.82ZM102.782 237.806V238.304H100.286V237.806H102.782ZM100.38 235.82V240.44H99.769V235.82H100.38ZM103.314 235.82V240.44H102.706V235.82H103.314ZM106.75 236.229L105.223 240.44H104.599L106.358 235.82H106.76L106.75 236.229ZM108.031 240.44L106.501 236.229L106.491 235.82H106.893L108.658 240.44H108.031ZM107.951 238.73V239.231H105.36V238.73H107.951ZM111.152 235.82V240.44H110.551V235.82H111.152ZM112.635 235.82V236.321H109.07V235.82H112.635ZM115.358 236.229L113.831 240.44H113.207L114.966 235.82H115.368L115.358 236.229ZM116.639 240.44L115.107 236.229L115.099 235.82H115.501L117.266 240.44H116.639ZM116.559 238.73V239.231H113.968V238.73H116.559Z" fill="#343434"/>
<path d="M171.031 218.466V223.111H170.445V219.199L169.263 219.63V219.1L170.939 218.466H171.031ZM173.611 220.513H174.028C174.233 220.513 174.402 220.478 174.535 220.411C174.67 220.34 174.771 220.246 174.836 220.128C174.904 220.008 174.938 219.872 174.938 219.722C174.938 219.544 174.908 219.395 174.849 219.275C174.789 219.154 174.701 219.063 174.583 219.002C174.465 218.94 174.315 218.91 174.133 218.91C173.969 218.91 173.822 218.942 173.696 219.008C173.57 219.072 173.473 219.162 173.401 219.281C173.332 219.399 173.296 219.539 173.296 219.7H172.71C172.71 219.465 172.769 219.252 172.888 219.059C173.006 218.866 173.171 218.713 173.384 218.599C173.601 218.485 173.85 218.428 174.133 218.428C174.412 218.428 174.655 218.478 174.865 218.576C175.074 218.674 175.236 218.82 175.353 219.015C175.469 219.208 175.527 219.447 175.527 219.735C175.527 219.851 175.5 219.975 175.445 220.11C175.392 220.241 175.309 220.363 175.194 220.477C175.082 220.592 174.936 220.686 174.757 220.76C174.577 220.832 174.362 220.868 174.11 220.868H173.611V220.513ZM173.611 220.995V220.643H174.11C174.404 220.643 174.647 220.677 174.839 220.747C175.032 220.817 175.183 220.91 175.292 221.026C175.405 221.143 175.483 221.271 175.527 221.41C175.574 221.548 175.596 221.686 175.596 221.823C175.596 222.039 175.559 222.23 175.486 222.397C175.413 222.564 175.312 222.706 175.179 222.822C175.048 222.939 174.893 223.026 174.716 223.086C174.539 223.144 174.345 223.175 174.136 223.175C173.935 223.175 173.746 223.146 173.568 223.088C173.393 223.032 173.238 222.949 173.103 222.841C172.968 222.731 172.862 222.596 172.786 222.438C172.71 222.277 172.672 222.095 172.672 221.889H173.258C173.258 222.051 173.294 222.19 173.363 222.312C173.434 222.432 173.536 222.526 173.667 222.593C173.8 222.659 173.957 222.692 174.136 222.692C174.316 222.692 174.469 222.661 174.599 222.6C174.73 222.537 174.829 222.442 174.9 222.315C174.971 222.187 175.007 222.028 175.007 221.835C175.007 221.643 174.967 221.485 174.887 221.363C174.807 221.238 174.692 221.146 174.545 221.087C174.399 221.025 174.227 220.995 174.028 220.995H173.611ZM177 222.412V222.886C177 223.078 176.951 223.281 176.855 223.494C176.758 223.711 176.622 223.891 176.446 224.035L176.113 223.803C176.18 223.71 176.238 223.615 176.284 223.517C176.331 223.422 176.365 223.322 176.389 223.219C176.414 223.117 176.427 223.009 176.427 222.895V222.412H177ZM180.581 220.432V221.138C180.581 221.516 180.548 221.835 180.479 222.095C180.412 222.356 180.315 222.565 180.189 222.724C180.061 222.882 179.908 222.998 179.729 223.07C179.551 223.139 179.35 223.175 179.126 223.175C178.949 223.175 178.786 223.152 178.635 223.108C178.485 223.063 178.35 222.993 178.23 222.895C178.112 222.796 178.01 222.667 177.926 222.508C177.842 222.349 177.777 222.157 177.732 221.93C177.688 221.704 177.666 221.44 177.666 221.138V220.432C177.666 220.054 177.7 219.737 177.767 219.48C177.837 219.225 177.936 219.02 178.062 218.865C178.189 218.709 178.341 218.597 178.519 218.53C178.698 218.461 178.898 218.428 179.12 218.428C179.299 218.428 179.465 218.449 179.614 218.494C179.767 218.536 179.902 218.605 180.02 218.701C180.139 218.794 180.238 218.918 180.322 219.074C180.406 219.229 180.47 219.419 180.514 219.643C180.558 219.867 180.581 220.13 180.581 220.432ZM179.992 221.233V220.335C179.992 220.127 179.979 219.945 179.954 219.789C179.93 219.63 179.895 219.495 179.849 219.383C179.802 219.27 179.743 219.179 179.672 219.11C179.602 219.04 179.52 218.989 179.427 218.957C179.336 218.924 179.235 218.906 179.12 218.906C178.98 218.906 178.857 218.933 178.749 218.985C178.642 219.036 178.551 219.118 178.477 219.23C178.405 219.343 178.35 219.489 178.312 219.671C178.274 219.853 178.255 220.074 178.255 220.335V221.233C178.255 221.44 178.267 221.623 178.29 221.781C178.315 221.94 178.352 222.078 178.401 222.194C178.449 222.308 178.509 222.403 178.578 222.476C178.648 222.55 178.728 222.605 178.819 222.641C178.912 222.675 179.015 222.692 179.126 222.692C179.27 222.692 179.396 222.665 179.504 222.609C179.611 222.554 179.701 222.469 179.773 222.353C179.847 222.234 179.902 222.083 179.938 221.899C179.973 221.713 179.992 221.491 179.992 221.233ZM184.453 221.556V222.039H181.12V221.692L183.185 218.491H183.663L183.151 219.418L181.785 221.556H184.453ZM183.809 218.491V223.111H183.223V218.491H183.809Z" fill="#343434"/>
<path d="M168.721 223.746H184.599V224.063H168.721V223.746Z" fill="#343434"/>
<path d="M169.896 228.238V232.859H169.284V228.238H169.896ZM172.739 228.238L170.736 230.78H169.652L169.557 230.272H170.371L171.982 228.238H172.739ZM172.123 232.859L170.391 230.701L170.732 230.165L172.872 232.859H172.123ZM175.439 231.326L176.659 228.238H177.362L175.73 232.088C175.684 232.196 175.633 232.3 175.576 232.402C175.518 232.501 175.449 232.59 175.366 232.668C175.283 232.746 175.182 232.809 175.059 232.855C174.938 232.902 174.788 232.926 174.609 232.926C174.558 232.926 174.498 232.922 174.428 232.916C174.359 232.912 174.313 232.906 174.292 232.9L174.311 232.411C174.334 232.416 174.379 232.42 174.447 232.424C174.515 232.426 174.564 232.428 174.597 232.428C174.717 232.428 174.812 232.403 174.881 232.354C174.951 232.305 175.007 232.245 175.05 232.17C175.094 232.094 175.134 232.017 175.17 231.938L175.439 231.326ZM174.403 228.238L175.686 231.117L175.838 231.685L175.325 231.722L173.718 228.238H174.403ZM179.071 228.238L180.181 230.009L181.289 228.238H182.002L180.545 230.527L182.037 232.859H181.317L180.181 231.053L179.043 232.859H178.324L179.816 230.527L178.358 228.238H179.071ZM186.341 230.225V230.723H183.844V230.225H186.341ZM183.939 228.238V232.859H183.328V228.238H183.939ZM186.873 228.238V232.859H186.266V228.238H186.873ZM191.104 231.06H189.809L189.508 230.936C189.174 230.83 188.917 230.669 188.738 230.45C188.558 230.23 188.469 229.957 188.469 229.632C188.469 229.333 188.534 229.081 188.664 228.873C188.797 228.666 188.986 228.508 189.229 228.401C189.473 228.292 189.763 228.238 190.096 228.238H191.574V232.859H190.962V228.74H190.096C189.759 228.74 189.505 228.82 189.333 228.981C189.164 229.142 189.08 229.359 189.08 229.632C189.08 229.81 189.116 229.968 189.191 230.108C189.267 230.247 189.378 230.357 189.526 230.438C189.675 230.518 189.858 230.558 190.078 230.558H191.108L191.104 231.06ZM190.065 230.742L188.943 232.859H188.293L189.447 230.742H190.065Z" fill="#343434"/>
<path d="M85.5896 71.1688V75.814H85.0034V71.902L83.8213 72.3331V71.8034L85.4977 71.1688H85.5896ZM88.1691 73.2158H88.5866C88.7921 73.2158 88.9608 73.1811 89.0938 73.1139C89.229 73.0435 89.3296 72.9493 89.3945 72.8313C89.4626 72.7111 89.4961 72.5757 89.4961 72.4251C89.4961 72.2475 89.4669 72.0981 89.4074 71.9778C89.348 71.8576 89.2593 71.7666 89.1414 71.7049C89.0235 71.6431 88.8732 71.6128 88.6915 71.6128C88.5271 71.6128 88.3811 71.6453 88.2545 71.7114C88.1291 71.7753 88.0317 71.8652 87.9593 71.9843C87.8901 72.1024 87.8544 72.2421 87.8544 72.4035H87.2682C87.2682 72.1685 87.3276 71.9551 87.4466 71.7623C87.5645 71.5695 87.73 71.4157 87.9431 71.302C88.1594 71.1883 88.4081 71.1309 88.6915 71.1309C88.9705 71.1309 89.2139 71.1807 89.4237 71.2792C89.6324 71.3767 89.7946 71.5229 89.9115 71.7179C90.0272 71.9107 90.0856 72.15 90.0856 72.4381C90.0856 72.554 90.0586 72.6786 90.0034 72.8129C89.9504 72.9439 89.8671 73.0663 89.7525 73.18C89.6411 73.2948 89.4951 73.3891 89.3155 73.4627C89.136 73.5353 88.9208 73.571 88.6688 73.571H88.1691V73.2158ZM88.1691 73.6977V73.3457H88.6688C88.9629 73.3457 89.2052 73.3804 89.3977 73.4497C89.5903 73.5201 89.7416 73.6133 89.8509 73.7292C89.9634 73.8461 90.0412 73.9739 90.0856 74.1136C90.1321 74.2512 90.1548 74.3887 90.1548 74.5263C90.1548 74.7418 90.118 74.9335 90.0445 75.1003C89.972 75.2671 89.8704 75.409 89.7373 75.5249C89.6065 75.6418 89.4518 75.7296 89.2744 75.7891C89.0971 75.8476 88.9035 75.8779 88.6947 75.8779C88.4935 75.8779 88.3043 75.8487 88.1269 75.7913C87.9517 75.735 87.797 75.6527 87.6619 75.5444C87.5267 75.4339 87.4207 75.2996 87.345 75.1415C87.2682 74.9801 87.2303 74.7981 87.2303 74.5924H87.8165C87.8165 74.7537 87.8522 74.8934 87.9214 75.0147C87.9928 75.135 88.0945 75.2292 88.2253 75.2963C88.3584 75.3624 88.5152 75.3949 88.6947 75.3949C88.8742 75.3949 89.0278 75.3646 89.1576 75.3029C89.2885 75.24 89.388 75.1447 89.4583 75.018C89.5297 74.8902 89.5654 74.731 89.5654 74.5382C89.5654 74.3465 89.5253 74.1883 89.4453 74.066C89.3653 73.9414 89.2506 73.8494 89.1036 73.7898C88.9576 73.7281 88.7856 73.6977 88.5866 73.6977H88.1691ZM91.5587 75.1155V75.5888C91.5587 75.7815 91.51 75.9841 91.4137 76.1975C91.3164 76.4141 91.1801 76.5938 91.0049 76.7379L90.6718 76.5061C90.7388 76.413 90.7962 76.3177 90.8427 76.2202C90.8892 76.1249 90.9238 76.0252 90.9476 75.9224C90.9725 75.8205 90.9854 75.7122 90.9854 75.5985V75.1155H91.5587ZM95.2251 71.1937V71.524L93.314 75.814H92.6964L94.6043 71.6767H92.107V71.1937H95.2251ZM98.7899 73.1356V73.8407C98.7899 74.2187 98.7563 74.5382 98.6882 74.7981C98.6212 75.0592 98.5238 75.2682 98.3973 75.4274C98.2696 75.5855 98.1172 75.7014 97.9376 75.7729C97.7602 75.8422 97.5591 75.8779 97.3352 75.8779C97.1578 75.8779 96.9945 75.8552 96.8442 75.8108C96.6938 75.7664 96.5586 75.696 96.4386 75.5985C96.3207 75.4989 96.219 75.37 96.1347 75.2108C96.0503 75.0526 95.9854 74.8599 95.9411 74.6335C95.8967 74.4071 95.8751 74.1429 95.8751 73.8407V73.1356C95.8751 72.7576 95.9086 72.4403 95.9757 72.1836C96.046 71.928 96.1444 71.7233 96.2709 71.5684C96.3975 71.4124 96.55 71.2998 96.7274 71.2327C96.9069 71.1644 97.107 71.1309 97.3287 71.1309C97.5082 71.1309 97.6737 71.1525 97.823 71.1969C97.9755 71.2392 98.1106 71.3085 98.2285 71.4038C98.3475 71.497 98.447 71.6215 98.5303 71.7775C98.6147 71.9323 98.6785 72.1219 98.7228 72.3461C98.7671 72.5703 98.7899 72.8335 98.7899 73.1356ZM98.2004 73.936V73.0382C98.2004 72.8302 98.1874 72.6483 98.1626 72.4923C98.1388 72.3331 98.1042 72.1977 98.0577 72.0861C98.0112 71.9735 97.9517 71.8825 97.8803 71.8132C97.8111 71.7428 97.7289 71.6919 97.6358 71.6605C97.545 71.6269 97.4433 71.6096 97.3287 71.6096C97.1892 71.6096 97.0659 71.6367 96.9577 71.6887C96.8507 71.7396 96.7598 71.8208 96.6863 71.9334C96.6138 72.046 96.5587 72.1923 96.5208 72.3742C96.4829 72.5562 96.4635 72.7771 96.4635 73.0382V73.936C96.4635 74.1429 96.4754 74.3259 96.4991 74.484C96.524 74.6433 96.5608 74.7808 96.6095 74.8967C96.6582 75.0115 96.7176 75.1057 96.7869 75.1794C96.8572 75.253 96.9372 75.3083 97.028 75.344C97.121 75.3787 97.2238 75.3949 97.3352 75.3949C97.479 75.3949 97.6045 75.3678 97.7126 75.3126C97.8197 75.2573 97.9095 75.1718 97.9819 75.0559C98.0555 74.9367 98.1107 74.7862 98.1464 74.6021C98.182 74.4158 98.2004 74.1938 98.2004 73.936Z" fill="#343434"/>
<path d="M83.2793 76.4487H99.1575V76.7661H83.2793V76.4487Z" fill="#343434"/>
<path d="M86.5998 84.0929H87.2087C87.1773 84.3843 87.093 84.6453 86.9578 84.876C86.8226 85.1067 86.6323 85.2897 86.3846 85.4251C86.138 85.5583 85.8287 85.6255 85.4598 85.6255C85.1895 85.6255 84.9429 85.5746 84.7212 85.4728C84.5016 85.371 84.3123 85.2269 84.1544 85.0417C83.9954 84.8533 83.8732 84.628 83.7867 84.3659C83.7023 84.1005 83.6602 83.807 83.6602 83.4832V83.0229C83.6602 82.699 83.7023 82.4066 83.7867 82.1445C83.8732 81.8802 83.9965 81.6539 84.1577 81.4654C84.3199 81.277 84.5157 81.1318 84.7439 81.03C84.971 80.9293 85.2284 80.8784 85.5129 80.8784C85.8622 80.8784 86.1564 80.9434 86.3976 81.0744C86.6377 81.2066 86.8248 81.3875 86.9578 81.6203C87.093 81.851 87.1773 82.1185 87.2087 82.424H86.5998C86.5706 82.2073 86.5154 82.0221 86.4354 81.8683C86.3554 81.7113 86.2407 81.591 86.0936 81.5065C85.9455 81.4221 85.7519 81.3798 85.5129 81.3798C85.3084 81.3798 85.1278 81.4189 84.971 81.4968C84.8174 81.5748 84.6876 81.6863 84.5817 81.8304C84.4778 81.9744 84.3999 82.1466 84.3469 82.347C84.294 82.5485 84.268 82.7716 84.268 83.0164V83.4832C84.268 83.7095 84.2918 83.9218 84.3383 84.1211C84.3859 84.3204 84.4594 84.4948 84.5568 84.6442C84.6541 84.7948 84.7774 84.9128 84.9267 84.9995C85.077 85.085 85.2544 85.1273 85.4598 85.1273C85.7194 85.1273 85.926 85.0861 86.0807 85.0027C86.2342 84.9204 86.351 84.8023 86.4289 84.6475C86.5089 84.4937 86.5663 84.3084 86.5998 84.0929ZM92.1492 80.9412V85.5616H91.5414V81.4427H89.2658V85.5616H88.6547V80.9412H92.1492ZM95.5507 81.3506L94.0235 85.5616H93.3984L95.157 80.9412H95.5593L95.5507 81.3506ZM96.8301 85.5616L95.2998 81.3506L95.29 80.9412H95.6923L97.4574 85.5616H96.8301ZM96.7512 83.8514V84.3528H94.1587V83.8514H96.7512ZM101.683 80.9412V81.4427H99.5719V80.9412H101.683ZM102.209 80.9412V85.5616H101.597V80.9412H102.209ZM99.3631 80.9412H99.971L99.8671 83.2037C99.852 83.5297 99.8271 83.8211 99.7903 84.0767C99.7568 84.3302 99.7081 84.5511 99.6454 84.7395C99.5816 84.9258 99.4994 85.0807 99.3977 85.2031C99.2961 85.3233 99.1717 85.4132 99.0235 85.4728C98.8786 85.5324 98.7034 85.5616 98.4979 85.5616H98.3335V85.0633L98.46 85.0536C98.5779 85.0449 98.6796 85.019 98.7639 84.9746C98.8505 84.928 98.924 84.8587 98.9824 84.7655C99.0441 84.6724 99.0938 84.5511 99.1317 84.4038C99.1695 84.2554 99.1998 84.0745 99.2204 83.8611C99.2442 83.6445 99.2615 83.3933 99.2744 83.1052L99.3631 80.9412ZM104.341 82.8236H105.6C105.938 82.8236 106.223 82.8799 106.456 82.9947C106.687 83.1063 106.864 83.2644 106.985 83.4669C107.105 83.6705 107.165 83.9088 107.165 84.1818C107.165 84.3843 107.132 84.5706 107.064 84.7395C106.997 84.9074 106.896 85.0525 106.763 85.1782C106.63 85.3005 106.466 85.3959 106.272 85.463C106.077 85.5291 105.853 85.5616 105.6 85.5616H103.876V80.9412H104.487V85.0633H105.6C105.826 85.0633 106.008 85.0222 106.148 84.9399C106.289 84.8554 106.393 84.7449 106.458 84.6095C106.524 84.4741 106.556 84.329 106.556 84.1752C106.556 84.0203 106.524 83.8785 106.458 83.7496C106.393 83.6207 106.289 83.5179 106.148 83.442C106.008 83.3641 105.826 83.325 105.6 83.325H104.341V82.8236ZM111.567 82.9275V83.4258H109.07V82.9275H111.567ZM109.165 80.9412V85.5616H108.554V80.9412H109.165ZM112.099 80.9412V85.5616H111.492V80.9412H112.099ZM116.33 83.7626H115.035L114.734 83.6391C114.4 83.533 114.144 83.3716 113.964 83.1528C113.784 82.933 113.695 82.66 113.695 82.3351C113.695 82.0362 113.76 81.7838 113.89 81.5759C114.025 81.369 114.212 81.2109 114.455 81.1036C114.701 80.9953 114.989 80.9412 115.323 80.9412H116.8V85.5616H116.188V81.4427H115.323C114.985 81.4427 114.731 81.5228 114.56 81.6842C114.39 81.8445 114.306 82.0622 114.306 82.3351C114.306 82.5127 114.343 82.6709 114.417 82.8106C114.493 82.9503 114.605 83.0597 114.752 83.1409C114.901 83.2211 115.084 83.2611 115.304 83.2611H116.334L116.33 83.7626ZM115.291 83.4453L114.169 85.5616H113.521L114.673 83.4453H115.291Z" fill="#343434"/>
<path d="M175.357 119.907V124.552H174.771V120.64L173.589 121.071V120.541L175.265 119.907H175.357ZM179.007 119.907V124.552H178.421V120.64L177.239 121.071V120.541L178.916 119.907H179.007ZM181.326 123.853V124.327C181.326 124.519 181.278 124.722 181.181 124.935C181.084 125.152 180.948 125.332 180.773 125.476L180.439 125.244C180.506 125.151 180.564 125.055 180.61 124.958C180.657 124.863 180.691 124.763 180.715 124.66C180.74 124.558 180.753 124.45 180.753 124.336V123.853H181.326ZM184.907 121.873V122.578C184.907 122.956 184.874 123.276 184.806 123.536C184.739 123.797 184.641 124.006 184.515 124.165C184.387 124.323 184.235 124.439 184.055 124.511C183.878 124.58 183.676 124.616 183.453 124.616C183.275 124.616 183.112 124.593 182.962 124.549C182.811 124.504 182.676 124.434 182.556 124.336C182.438 124.237 182.336 124.108 182.252 123.949C182.168 123.79 182.103 123.598 182.058 123.371C182.014 123.145 181.992 122.881 181.992 122.578V121.873C181.992 121.495 182.026 121.178 182.093 120.921C182.163 120.666 182.262 120.461 182.388 120.306C182.515 120.15 182.667 120.038 182.845 119.97C183.024 119.902 183.224 119.869 183.446 119.869C183.626 119.869 183.791 119.89 183.94 119.935C184.093 119.977 184.228 120.046 184.346 120.142C184.465 120.235 184.564 120.359 184.648 120.515C184.732 120.67 184.796 120.86 184.84 121.084C184.885 121.308 184.907 121.571 184.907 121.873ZM184.318 122.674V121.776C184.318 121.568 184.305 121.386 184.28 121.23C184.256 121.071 184.222 120.935 184.175 120.824C184.129 120.711 184.069 120.62 183.998 120.551C183.928 120.481 183.846 120.43 183.753 120.398C183.662 120.365 183.561 120.347 183.446 120.347C183.307 120.347 183.183 120.374 183.075 120.426C182.968 120.477 182.877 120.559 182.804 120.671C182.731 120.784 182.676 120.93 182.638 121.112C182.6 121.294 182.581 121.515 182.581 121.776V122.674C182.581 122.881 182.593 123.064 182.617 123.222C182.641 123.381 182.678 123.519 182.727 123.634C182.776 123.749 182.835 123.843 182.904 123.917C182.975 123.991 183.055 124.046 183.145 124.082C183.238 124.116 183.341 124.133 183.453 124.133C183.596 124.133 183.722 124.106 183.83 124.05C183.937 123.995 184.027 123.91 184.099 123.794C184.173 123.674 184.228 123.524 184.264 123.34C184.299 123.154 184.318 122.932 184.318 122.674ZM186.403 122.353L185.934 122.232L186.165 119.931H188.532V120.474H186.663L186.523 121.731C186.607 121.683 186.715 121.637 186.843 121.595C186.974 121.552 187.124 121.531 187.293 121.531C187.506 121.531 187.698 121.568 187.866 121.642C188.035 121.714 188.179 121.818 188.298 121.954C188.418 122.089 188.51 122.251 188.573 122.442C188.636 122.633 188.668 122.845 188.668 123.08C188.668 123.302 188.637 123.506 188.576 123.692C188.517 123.878 188.428 124.041 188.307 124.18C188.187 124.318 188.034 124.425 187.851 124.501C187.67 124.577 187.454 124.616 187.208 124.616C187.022 124.616 186.845 124.59 186.679 124.539C186.513 124.486 186.365 124.407 186.234 124.302C186.106 124.193 186.001 124.06 185.917 123.901C185.837 123.741 185.787 123.552 185.766 123.337H186.323C186.349 123.51 186.4 123.656 186.476 123.774C186.551 123.893 186.651 123.983 186.773 124.044C186.898 124.103 187.042 124.133 187.208 124.133C187.347 124.133 187.47 124.109 187.579 124.06C187.686 124.011 187.777 123.942 187.851 123.851C187.925 123.76 187.981 123.65 188.019 123.521C188.059 123.392 188.078 123.247 188.078 123.085C188.078 122.94 188.059 122.805 188.019 122.679C187.979 122.555 187.918 122.446 187.838 122.353C187.76 122.26 187.664 122.187 187.549 122.138C187.436 122.085 187.305 122.058 187.157 122.058C186.96 122.058 186.812 122.085 186.71 122.138C186.611 122.19 186.508 122.262 186.403 122.353Z" fill="#343434"/>
<path d="M173.047 125.187H188.925V125.504H173.047V125.187Z" fill="#343434"/>
<path d="M177.416 58.4528L176.947 58.3315L177.178 56.0311H179.546V56.5737H177.676L177.536 57.8311C177.621 57.7824 177.728 57.7369 177.857 57.6947C177.987 57.6513 178.138 57.6308 178.306 57.6308C178.521 57.6308 178.711 57.6676 178.881 57.7412C179.049 57.8138 179.193 57.9178 179.311 58.0532C179.431 58.1886 179.523 58.351 179.587 58.5416C179.65 58.7323 179.682 58.9445 179.682 59.1795C179.682 59.4016 179.651 59.6052 179.59 59.7915C179.531 59.9778 179.441 60.1402 179.321 60.28C179.2 60.4175 179.048 60.5247 178.865 60.6005C178.683 60.6764 178.469 60.7153 178.221 60.7153C178.035 60.7153 177.859 60.6894 177.692 60.6385C177.528 60.5854 177.38 60.5063 177.249 60.4013C177.12 60.293 177.014 60.1597 176.932 60.0005C176.852 59.8402 176.801 59.6518 176.779 59.4362H177.337C177.362 59.6095 177.413 59.7558 177.489 59.8738C177.566 59.993 177.665 60.0828 177.787 60.1435C177.912 60.2031 178.057 60.2323 178.221 60.2323C178.361 60.2323 178.484 60.2085 178.592 60.1597C178.7 60.111 178.791 60.0417 178.865 59.9507C178.938 59.8597 178.994 59.7493 179.032 59.6204C179.072 59.4915 179.093 59.3463 179.093 59.185C179.093 59.0398 179.072 58.9045 179.032 58.7788C178.992 58.6543 178.932 58.546 178.852 58.4528C178.774 58.3597 178.677 58.2871 178.564 58.2373C178.449 58.1842 178.318 58.1571 178.17 58.1571C177.974 58.1571 177.825 58.1842 177.723 58.2373C177.624 58.2893 177.522 58.3618 177.416 58.4528ZM180.921 59.9529V60.4262C180.921 60.6189 180.872 60.8215 180.776 61.0348C180.678 61.2515 180.542 61.4312 180.367 61.5753L180.034 61.3435C180.101 61.2504 180.158 61.1551 180.205 61.0576C180.251 60.9623 180.286 60.8626 180.309 60.7598C180.334 60.6579 180.347 60.5496 180.347 60.4359V59.9529H180.921ZM184.502 57.973V58.6781C184.502 59.0561 184.468 59.3756 184.4 59.6355C184.333 59.8966 184.236 60.1056 184.109 60.2648C183.981 60.4229 183.829 60.5388 183.649 60.6103C183.472 60.6796 183.271 60.7153 183.047 60.7153C182.869 60.7153 182.706 60.6926 182.556 60.6482C182.405 60.6038 182.27 60.5334 182.15 60.4359C182.032 60.3363 181.931 60.2074 181.846 60.0482C181.762 59.89 181.697 59.6973 181.653 59.4709C181.608 59.2445 181.587 58.9803 181.587 58.6781V57.973C181.587 57.595 181.62 57.2777 181.687 57.021C181.758 56.7654 181.856 56.5607 181.983 56.4058C182.109 56.2498 182.262 56.1372 182.439 56.0701C182.619 56.0018 182.819 55.9683 183.04 55.9683C183.22 55.9683 183.385 55.9899 183.535 56.0343C183.687 56.0766 183.822 56.1459 183.94 56.2412C184.059 56.3344 184.159 56.4589 184.242 56.6149C184.326 56.7697 184.39 56.9593 184.434 57.1835C184.479 57.4077 184.502 57.6709 184.502 57.973ZM183.912 58.7734V57.8756C183.912 57.6676 183.899 57.4857 183.874 57.3297C183.85 57.1705 183.816 57.0351 183.769 56.9235C183.723 56.8109 183.663 56.7199 183.592 56.6506C183.523 56.5802 183.441 56.5293 183.348 56.4979C183.257 56.4643 183.155 56.447 183.04 56.447C182.901 56.447 182.778 56.4741 182.669 56.5261C182.562 56.577 182.471 56.6582 182.398 56.7708C182.325 56.8834 182.27 57.0297 182.232 57.2116C182.195 57.3936 182.175 57.6145 182.175 57.8756V58.7734C182.175 58.9803 182.187 59.1633 182.211 59.3214C182.236 59.4807 182.272 59.6182 182.321 59.7341C182.37 59.8489 182.429 59.9431 182.499 60.0168C182.569 60.0904 182.649 60.1457 182.74 60.1814C182.833 60.2161 182.935 60.2323 183.047 60.2323C183.191 60.2323 183.316 60.2052 183.424 60.15C183.531 60.0947 183.621 60.0092 183.694 59.8933C183.767 59.7741 183.822 59.6236 183.858 59.4395C183.894 59.2532 183.912 59.0312 183.912 58.7734ZM186.111 58.0532H186.529C186.734 58.0532 186.904 58.0185 187.037 57.9513C187.172 57.8809 187.271 57.7867 187.337 57.6687C187.404 57.5485 187.439 57.4131 187.439 57.2625C187.439 57.0849 187.409 56.9355 187.35 56.8152C187.291 56.695 187.202 56.604 187.084 56.5423C186.965 56.4806 186.815 56.4502 186.633 56.4502C186.469 56.4502 186.323 56.4827 186.196 56.5488C186.072 56.6127 185.974 56.7026 185.902 56.8217C185.832 56.9398 185.797 57.0795 185.797 57.2409H185.211C185.211 57.0059 185.271 56.7925 185.388 56.5997C185.507 56.4069 185.673 56.2531 185.886 56.1394C186.101 56.0257 186.351 55.9683 186.633 55.9683C186.912 55.9683 187.157 56.0181 187.365 56.1166C187.575 56.2141 187.738 56.3603 187.853 56.5553C187.97 56.7481 188.028 56.9874 188.028 57.2755C188.028 57.3914 188 57.516 187.945 57.6503C187.893 57.7813 187.809 57.9037 187.695 58.0174C187.583 58.1322 187.438 58.2265 187.258 58.3001C187.079 58.3727 186.863 58.4084 186.612 58.4084H186.111V58.0532ZM186.111 58.5351V58.1831H186.612C186.905 58.1831 187.148 58.2178 187.341 58.2871C187.533 58.3575 187.683 58.4507 187.794 58.5666C187.905 58.6835 187.984 58.8113 188.028 58.951C188.075 59.0886 188.098 59.2261 188.098 59.3637C188.098 59.5792 188.061 59.7709 187.986 59.9377C187.915 60.1045 187.812 60.2464 187.679 60.3623C187.548 60.4792 187.395 60.5669 187.217 60.6265C187.04 60.685 186.846 60.7153 186.637 60.7153C186.436 60.7153 186.247 60.6861 186.07 60.6287C185.895 60.5724 185.739 60.4901 185.604 60.3818C185.468 60.2713 185.364 60.137 185.287 59.9789C185.211 59.8175 185.173 59.6355 185.173 59.4298H185.759C185.759 59.5911 185.794 59.7308 185.864 59.8521C185.936 59.9724 186.037 60.0666 186.168 60.1337C186.301 60.1998 186.457 60.2323 186.637 60.2323C186.816 60.2323 186.971 60.202 187.099 60.1402C187.23 60.0774 187.331 59.9821 187.4 59.8554C187.473 59.7276 187.508 59.5684 187.508 59.3756C187.508 59.1839 187.468 59.0257 187.388 58.9034C187.308 58.7788 187.193 58.6868 187.045 58.6272C186.9 58.5655 186.727 58.5351 186.529 58.5351H186.111Z" fill="#343434"/>
<path d="M176.292 61.2861H188.52V61.6035H176.292V61.2861Z" fill="#343434"/>
<path d="M27.0814 175.423L26.612 175.302L26.8434 173.002H29.2109V173.544H27.3409L27.2014 174.802C27.2858 174.753 27.3929 174.708 27.5216 174.665C27.6524 174.622 27.8028 174.601 27.9715 174.601C28.1856 174.601 28.376 174.638 28.5458 174.712C28.7145 174.784 28.8583 174.888 28.9762 175.024C29.0963 175.159 29.1882 175.322 29.252 175.512C29.3148 175.703 29.3472 175.915 29.3472 176.15C29.3472 176.372 29.3158 176.576 29.2553 176.762C29.1958 176.948 29.106 177.111 28.986 177.251C28.8648 177.388 28.7134 177.495 28.5296 177.571C28.3479 177.647 28.1337 177.686 27.886 177.686C27.7 177.686 27.5237 177.66 27.3572 177.609C27.1928 177.556 27.0446 177.477 26.9137 177.372C26.785 177.264 26.6791 177.13 26.5969 176.971C26.5168 176.811 26.466 176.622 26.4443 176.407H27.0024C27.0273 176.58 27.0781 176.726 27.1538 176.844C27.2306 176.964 27.3301 177.054 27.4523 177.114C27.5767 177.174 27.7216 177.203 27.886 177.203C28.0256 177.203 28.1489 177.179 28.257 177.13C28.3652 177.082 28.456 177.012 28.5296 176.921C28.6031 176.83 28.6593 176.72 28.6972 176.591C28.7372 176.462 28.7578 176.317 28.7578 176.156C28.7578 176.011 28.7372 175.875 28.6972 175.749C28.6572 175.625 28.5966 175.517 28.5166 175.423C28.4387 175.33 28.3425 175.258 28.2289 175.208C28.1143 175.155 27.9834 175.128 27.8352 175.128C27.6395 175.128 27.4902 175.155 27.3885 175.208C27.289 175.26 27.1874 175.332 27.0814 175.423ZM30.5856 176.924V177.397C30.5856 177.59 30.5369 177.792 30.4407 178.006C30.3433 178.222 30.207 178.402 30.0318 178.546L29.6987 178.314C29.7658 178.221 29.8231 178.126 29.8696 178.028C29.9161 177.933 29.9507 177.833 29.9745 177.73C29.9994 177.629 30.0124 177.52 30.0124 177.407V176.924H30.5856ZM34.1666 174.944V175.649C34.1666 176.027 34.1331 176.346 34.0649 176.606C33.9979 176.867 33.9005 177.076 33.774 177.235C33.6464 177.394 33.4939 177.509 33.3143 177.581C33.137 177.65 32.9358 177.686 32.7119 177.686C32.5345 177.686 32.3712 177.663 32.2209 177.619C32.0705 177.574 31.9353 177.504 31.8153 177.407C31.6974 177.307 31.5957 177.178 31.5114 177.019C31.427 176.861 31.3621 176.668 31.3178 176.442C31.2734 176.215 31.2518 175.951 31.2518 175.649V174.944C31.2518 174.566 31.2854 174.248 31.3524 173.992C31.4227 173.736 31.5211 173.531 31.6477 173.377C31.7742 173.221 31.9267 173.108 32.1041 173.041C32.2836 172.973 32.4837 172.939 32.7054 172.939C32.8849 172.939 33.0504 172.961 33.1997 173.005C33.3522 173.047 33.4874 173.117 33.6052 173.212C33.7242 173.305 33.8237 173.43 33.907 173.586C33.9914 173.74 34.0552 173.93 34.0995 174.154C34.1439 174.378 34.1666 174.641 34.1666 174.944ZM33.5771 175.744V174.846C33.5771 174.638 33.5641 174.456 33.5393 174.3C33.5155 174.141 33.4809 174.006 33.4344 173.894C33.3879 173.782 33.3284 173.691 33.257 173.621C33.1878 173.551 33.1056 173.5 33.0126 173.469C32.9217 173.435 32.82 173.418 32.7054 173.418C32.5659 173.418 32.4426 173.445 32.3344 173.497C32.2274 173.548 32.1365 173.629 32.063 173.741C31.9905 173.854 31.9354 174 31.8975 174.182C31.8597 174.364 31.8402 174.585 31.8402 174.846V175.744C31.8402 175.951 31.8521 176.134 31.8759 176.292C31.9007 176.451 31.9375 176.589 31.9862 176.705C32.0349 176.82 32.0944 176.914 32.1636 176.987C32.2339 177.061 32.3139 177.116 32.4047 177.152C32.4978 177.187 32.6005 177.203 32.7119 177.203C32.8557 177.203 32.9812 177.176 33.0894 177.121C33.1964 177.065 33.2862 176.98 33.3587 176.864C33.4322 176.745 33.4874 176.594 33.5231 176.41C33.5588 176.224 33.5771 176.002 33.5771 175.744ZM37.17 172.996H37.2209V173.493H37.17C36.8596 173.493 36.6001 173.544 36.3902 173.646C36.1815 173.746 36.016 173.88 35.8938 174.049C35.7705 174.216 35.6818 174.404 35.6267 174.614C35.5748 174.823 35.5477 175.036 35.5477 175.252V175.93C35.5477 176.136 35.5726 176.318 35.6213 176.476C35.6689 176.633 35.7359 176.765 35.8203 176.874C35.9046 176.981 35.9998 177.062 36.1058 177.117C36.2129 177.173 36.3253 177.2 36.4411 177.2C36.5763 177.2 36.6974 177.175 36.8023 177.124C36.9083 177.071 36.997 176.998 37.0684 176.905C37.143 176.81 37.1992 176.697 37.2371 176.568C37.2749 176.439 37.2933 176.298 37.2933 176.144C37.2933 176.006 37.2771 175.874 37.2436 175.747C37.209 175.617 37.157 175.504 37.0878 175.404C37.0186 175.302 36.9299 175.223 36.825 175.166C36.7212 175.107 36.5979 175.077 36.454 175.077C36.2918 175.077 36.1393 175.118 35.9976 175.198C35.8581 175.276 35.7435 175.38 35.6526 175.509C35.5639 175.636 35.5131 175.774 35.5001 175.925L35.1897 175.922C35.2189 175.684 35.2741 175.482 35.3541 175.315C35.4374 175.146 35.538 175.009 35.6591 174.903C35.7813 174.795 35.9176 174.716 36.0679 174.667C36.2194 174.618 36.3805 174.592 36.5492 174.592C36.7796 174.592 36.9775 174.635 37.1452 174.722C37.3117 174.808 37.4491 174.925 37.5572 175.072C37.6643 175.214 37.7433 175.378 37.7941 175.56C37.8471 175.74 37.8741 175.925 37.8741 176.114C37.8741 176.333 37.8427 176.537 37.7822 176.728C37.7205 176.918 37.6286 177.085 37.5064 177.229C37.3852 177.373 37.2371 177.485 37.0597 177.565C36.8823 177.645 36.6758 177.686 36.4411 177.686C36.1923 177.686 35.9749 177.635 35.7889 177.533C35.6029 177.429 35.4482 177.292 35.326 177.121C35.2038 176.95 35.1118 176.759 35.0502 176.55C34.9896 176.34 34.9583 176.128 34.9583 175.912V175.636C34.9583 175.31 34.9918 174.99 35.0567 174.677C35.1227 174.364 35.2351 174.08 35.3963 173.827C35.5585 173.574 35.7835 173.371 36.0712 173.222C36.3578 173.071 36.7244 172.996 37.17 172.996Z" fill="#343434"/>
<path d="M25.957 178.257H38.185V178.574H25.957V178.257Z" fill="#343434"/>
<path d="M176.511 172.38C177.092 177.253 175.349 181.042 170.126 184.575" stroke="#343434" stroke-width="0.3"/>
<path d="M170.314 184.491L170.629 184.146C170.689 184.08 170.681 183.981 170.611 183.925L156.064 172.408C155.994 172.353 155.888 172.361 155.827 172.427L155.512 172.773C155.452 172.839 155.46 172.938 155.53 172.993L170.077 184.51C170.147 184.566 170.253 184.557 170.314 184.491Z" stroke="#343434" stroke-width="0.3"/>
<path d="M56.7617 171.961C61.553 171.308 65.2789 173.269 68.7539 179.141" stroke="#343434" stroke-width="0.3"/>
<path d="M68.6891 178.931L68.3272 178.554C68.2651 178.489 68.1735 178.496 68.1224 178.57L56.7704 194.964C56.7193 195.038 56.7282 195.15 56.7902 195.215L57.1521 195.592C57.2142 195.657 57.3058 195.65 57.3569 195.576L68.7089 179.182C68.76 179.108 68.7511 178.996 68.6891 178.931Z" stroke="#343434" stroke-width="0.3"/>
<path d="M22.6696 141.413C22.1396 136.907 23.7317 133.403 28.5002 130.136" stroke="#343434" stroke-width="0.3"/>
<path d="M28.3222 130.241L28.0696 130.521C28.0096 130.588 28.0176 130.687 28.0876 130.743L41.3271 141.361C41.397 141.417 41.5024 141.408 41.5624 141.342L41.815 141.061C41.875 140.995 41.8669 140.895 41.797 140.839L28.5575 130.221C28.4876 130.165 28.3822 130.174 28.3222 130.241Z" stroke="#343434" stroke-width="0.3"/>
<path d="M143.794 160.593C139.218 161.154 135.658 159.469 132.34 154.42" stroke="#343434" stroke-width="0.3"/>
<path d="M132.435 154.607L132.736 154.89C132.802 154.951 132.899 154.943 132.954 154.872L143.755 140.832C143.81 140.761 143.801 140.654 143.736 140.592L143.434 140.309C143.369 140.248 143.271 140.256 143.217 140.327L132.415 154.367C132.361 154.438 132.369 154.545 132.435 154.607Z" stroke="#343434" stroke-width="0.3"/>
<path d="M143.786 90.868C139.059 90.2897 135.382 92.0247 131.953 97.2245" stroke="#343434" stroke-width="0.3"/>
<path d="M132.04 97.0352L132.367 96.7296C132.432 96.6683 132.53 96.6762 132.585 96.7472L143.755 111.221C143.81 111.292 143.801 111.399 143.736 111.46L143.409 111.766C143.344 111.827 143.246 111.819 143.191 111.748L132.021 97.2747C131.966 97.2037 131.975 97.0965 132.04 97.0352Z" stroke="#343434" stroke-width="0.3"/>
<path d="M186.385 79.2021C186.855 83.4954 185.449 86.8356 181.238 89.9494" stroke="#343434" stroke-width="0.3"/>
<path d="M181.401 89.8194L181.591 89.591C181.649 89.5221 181.64 89.4187 181.573 89.3601L169.925 79.2802C169.857 79.2215 169.756 79.2298 169.698 79.2986L169.508 79.5271C169.45 79.5959 169.459 79.6993 169.526 79.7579L181.174 89.8378C181.242 89.8965 181.343 89.8882 181.401 89.8194Z" stroke="#343434" stroke-width="0.3"/>
<path d="M225.7 81.1937C230.682 80.5568 234.556 82.4685 238.168 88.1946" stroke="#343434" stroke-width="0.3"/>
<path d="M238.102 87.9935L237.722 87.6223C237.658 87.5596 237.563 87.5673 237.51 87.6394L225.708 103.624C225.655 103.696 225.664 103.805 225.728 103.868L226.107 104.239C226.171 104.302 226.266 104.294 226.32 104.222L238.121 88.2376C238.175 88.1655 238.166 88.0562 238.102 87.9935Z" stroke="#343434" stroke-width="0.3"/>
<path d="M100.992 165.709H78.2793V198.201H100.992V165.709Z" fill="white" fill-opacity="0.5"/>
<path d="M88.8749 184.4V185.204H83.8425V184.501L86.3614 181.693C86.6708 181.347 86.9098 181.055 87.0796 180.814C87.2515 180.572 87.3716 180.354 87.4387 180.165C87.509 179.971 87.5435 179.772 87.5435 179.572C87.5435 179.318 87.4916 179.089 87.3856 178.884C87.2829 178.676 87.1315 178.511 86.9314 178.387C86.7302 178.264 86.488 178.202 86.2024 178.202C85.8607 178.202 85.5762 178.269 85.3469 178.403C85.122 178.533 84.9532 178.716 84.8397 178.954C84.7272 179.19 84.671 179.461 84.671 179.767H83.6943C83.6943 179.334 83.7895 178.937 83.9788 178.578C84.1691 178.218 84.4514 177.932 84.8245 177.721C85.1977 177.506 85.6573 177.398 86.2024 177.398C86.6881 177.398 87.1034 177.485 87.4484 177.657C87.7934 177.826 88.0584 178.067 88.2412 178.376C88.4272 178.683 88.5213 179.044 88.5213 179.455C88.5213 179.682 88.4823 179.91 88.4045 180.143C88.3309 180.373 88.2271 180.601 88.093 180.831C87.9632 181.06 87.8096 181.285 87.6333 181.508C87.4614 181.73 87.2764 181.948 87.0796 182.163L85.0192 184.4H88.8749ZM91.1927 177.505V185.204H90.1739V177.505H91.1927ZM95.8347 177.505L92.6398 181.095L90.8444 182.962L90.6757 181.873L92.0276 180.381L94.6104 177.505H95.8347ZM94.8526 185.204L92.006 181.449L92.6138 180.64L96.0672 185.204H94.8526Z" fill="#343434"/>
<path d="M100.992 165.709H128.031V176.54H100.992V165.709Z" fill="white" fill-opacity="0.5"/>
<path d="M105.475 171.233H105.893C106.099 171.233 106.268 171.199 106.401 171.132C106.536 171.061 106.636 170.967 106.701 170.849C106.769 170.729 106.803 170.593 106.803 170.443C106.803 170.265 106.774 170.116 106.714 169.995C106.655 169.875 106.566 169.784 106.448 169.722C106.329 169.661 106.18 169.63 105.998 169.63C105.834 169.63 105.688 169.663 105.561 169.729C105.436 169.793 105.339 169.883 105.266 170.002C105.197 170.12 105.161 170.26 105.161 170.421H104.575C104.575 170.186 104.634 169.973 104.752 169.78C104.871 169.587 105.037 169.433 105.25 169.32C105.466 169.206 105.715 169.148 105.998 169.148C106.277 169.148 106.521 169.198 106.73 169.297C106.939 169.394 107.101 169.54 107.218 169.735C107.334 169.928 107.392 170.168 107.392 170.456C107.392 170.572 107.365 170.696 107.31 170.83C107.257 170.961 107.174 171.084 107.059 171.198C106.948 171.312 106.802 171.407 106.622 171.48C106.443 171.553 106.228 171.589 105.976 171.589H105.475V171.233ZM105.475 171.715V171.363H105.976C106.27 171.363 106.512 171.398 106.705 171.467C106.897 171.538 107.048 171.631 107.158 171.747C107.27 171.864 107.348 171.991 107.392 172.131C107.439 172.269 107.462 172.406 107.462 172.544C107.462 172.759 107.425 172.951 107.351 173.118C107.279 173.285 107.177 173.426 107.044 173.542C106.913 173.659 106.759 173.747 106.581 173.807C106.404 173.865 106.21 173.896 106.002 173.896C105.8 173.896 105.611 173.866 105.434 173.809C105.259 173.753 105.104 173.67 104.969 173.562C104.833 173.451 104.727 173.317 104.652 173.159C104.575 172.998 104.537 172.816 104.537 172.61H105.123C105.123 172.771 105.158 172.911 105.228 173.032C105.3 173.153 105.401 173.247 105.532 173.314C105.665 173.38 105.822 173.412 106.002 173.412C106.181 173.412 106.335 173.382 106.464 173.32C106.595 173.258 106.695 173.162 106.765 173.036C106.836 172.908 106.872 172.749 106.872 172.556C106.872 172.364 106.832 172.206 106.752 172.083C106.672 171.959 106.557 171.867 106.41 171.807C106.264 171.746 106.092 171.715 105.893 171.715H105.475ZM111.438 172.582C111.438 172.862 111.372 173.102 111.242 173.299C111.113 173.494 110.938 173.641 110.716 173.743C110.496 173.845 110.248 173.896 109.971 173.896C109.695 173.896 109.445 173.845 109.223 173.743C109.002 173.641 108.827 173.494 108.698 173.299C108.569 173.102 108.504 172.862 108.504 172.582C108.504 172.398 108.539 172.23 108.609 172.077C108.681 171.922 108.781 171.788 108.91 171.674C109.041 171.559 109.195 171.472 109.373 171.411C109.552 171.347 109.749 171.316 109.965 171.316C110.248 171.316 110.501 171.371 110.722 171.48C110.944 171.589 111.118 171.737 111.245 171.928C111.374 172.118 111.438 172.336 111.438 172.582ZM110.849 172.569C110.849 172.398 110.812 172.246 110.738 172.115C110.664 171.982 110.56 171.878 110.427 171.804C110.294 171.73 110.141 171.693 109.965 171.693C109.786 171.693 109.63 171.73 109.499 171.804C109.371 171.878 109.27 171.982 109.199 172.115C109.126 172.246 109.09 172.398 109.09 172.569C109.09 172.746 109.125 172.899 109.195 173.026C109.267 173.15 109.368 173.247 109.499 173.314C109.632 173.38 109.789 173.412 109.971 173.412C110.152 173.412 110.309 173.38 110.44 173.314C110.571 173.247 110.672 173.15 110.741 173.026C110.813 172.899 110.849 172.746 110.849 172.569ZM111.33 170.414C111.33 170.639 111.272 170.84 111.153 171.02C111.035 171.2 110.873 171.342 110.668 171.446C110.464 171.55 110.231 171.6 109.971 171.6C109.707 171.6 109.472 171.55 109.265 171.446C109.06 171.342 108.899 171.2 108.783 171.02C108.666 170.84 108.609 170.639 108.609 170.414C108.609 170.146 108.666 169.917 108.783 169.729C108.901 169.54 109.063 169.396 109.268 169.297C109.473 169.198 109.706 169.148 109.969 169.148C110.233 169.148 110.466 169.198 110.672 169.297C110.876 169.396 111.037 169.54 111.153 169.729C111.272 169.917 111.33 170.146 111.33 170.414ZM110.744 170.424C110.744 170.269 110.712 170.133 110.646 170.015C110.581 169.896 110.49 169.803 110.374 169.735C110.257 169.665 110.122 169.63 109.969 169.63C109.814 169.63 109.679 169.663 109.563 169.729C109.448 169.793 109.359 169.883 109.294 170.002C109.23 170.12 109.199 170.261 109.199 170.424C109.199 170.582 109.23 170.721 109.294 170.839C109.359 170.958 109.449 171.05 109.565 171.115C109.682 171.181 109.817 171.214 109.971 171.214C110.125 171.214 110.26 171.181 110.374 171.115C110.49 171.05 110.581 170.958 110.646 170.839C110.712 170.721 110.744 170.582 110.744 170.424ZM113.035 173.133V173.606C113.035 173.799 112.986 174.002 112.889 174.215C112.793 174.432 112.656 174.611 112.481 174.755L112.148 174.524C112.215 174.43 112.272 174.335 112.319 174.238C112.365 174.142 112.4 174.043 112.424 173.94C112.449 173.838 112.462 173.73 112.462 173.616V173.133H113.035ZM116.229 169.206H116.279V169.703H116.229C115.918 169.703 115.659 169.754 115.449 169.856C115.24 169.955 115.075 170.09 114.951 170.259C114.829 170.425 114.74 170.614 114.685 170.824C114.633 171.033 114.606 171.245 114.606 171.462V172.14C114.606 172.346 114.631 172.528 114.68 172.686C114.727 172.843 114.794 172.975 114.879 173.083C114.963 173.19 115.058 173.272 115.164 173.327C115.271 173.382 115.384 173.409 115.5 173.409C115.635 173.409 115.756 173.384 115.861 173.333C115.967 173.28 116.056 173.208 116.127 173.115C116.202 173.019 116.257 172.907 116.296 172.778C116.334 172.649 116.352 172.507 116.352 172.353C116.352 172.216 116.336 172.083 116.302 171.957C116.268 171.827 116.216 171.713 116.146 171.613C116.076 171.512 115.989 171.433 115.884 171.375C115.78 171.317 115.656 171.286 115.513 171.286C115.35 171.286 115.198 171.328 115.056 171.408C114.917 171.486 114.802 171.59 114.711 171.719C114.623 171.845 114.572 171.984 114.559 172.134L114.248 172.131C114.278 171.894 114.333 171.691 114.413 171.525C114.496 171.356 114.597 171.218 114.718 171.112C114.84 171.005 114.976 170.926 115.127 170.877C115.278 170.827 115.439 170.801 115.608 170.801C115.838 170.801 116.036 170.845 116.204 170.931C116.37 171.018 116.508 171.135 116.616 171.281C116.723 171.424 116.802 171.587 116.853 171.769C116.906 171.949 116.933 172.134 116.933 172.324C116.933 172.543 116.901 172.746 116.841 172.937C116.779 173.128 116.687 173.294 116.565 173.438C116.444 173.583 116.296 173.694 116.118 173.774C115.941 173.854 115.734 173.896 115.5 173.896C115.251 173.896 115.033 173.845 114.847 173.743C114.661 173.639 114.507 173.501 114.385 173.33C114.262 173.159 114.17 172.968 114.109 172.759C114.048 172.549 114.017 172.337 114.017 172.121V171.845C114.017 171.519 114.049 171.2 114.115 170.887C114.181 170.574 114.294 170.29 114.454 170.036C114.617 169.783 114.842 169.581 115.13 169.431C115.416 169.281 115.783 169.206 116.229 169.206ZM119.815 169.186V173.832H119.229V169.92L118.048 170.351V169.821L119.723 169.186H119.815Z" fill="#343434"/>
<path d="M128.031 176.323H100.992V176.757H128.031V176.323Z" fill="#343434"/>
<path d="M128.031 176.54H100.992V187.37H128.031V176.54Z" fill="white" fill-opacity="0.5"/>
<path d="M106.87 180.036H106.92V180.533H106.87C106.558 180.533 106.299 180.584 106.09 180.686C105.88 180.786 105.715 180.92 105.593 181.089C105.47 181.256 105.382 181.444 105.327 181.655C105.274 181.864 105.248 182.076 105.248 182.292V182.97C105.248 183.176 105.271 183.358 105.32 183.516C105.369 183.673 105.435 183.805 105.519 183.914C105.605 184.021 105.699 184.102 105.805 184.157C105.913 184.213 106.024 184.24 106.141 184.24C106.276 184.24 106.396 184.215 106.502 184.164C106.607 184.111 106.696 184.038 106.768 183.945C106.842 183.85 106.898 183.737 106.936 183.608C106.974 183.479 106.993 183.338 106.993 183.184C106.993 183.046 106.976 182.914 106.942 182.787C106.909 182.657 106.857 182.544 106.787 182.444C106.717 182.342 106.63 182.263 106.524 182.206C106.42 182.147 106.297 182.117 106.153 182.117C105.991 182.117 105.838 182.158 105.698 182.238C105.558 182.316 105.442 182.42 105.351 182.549C105.263 182.676 105.212 182.814 105.2 182.965L104.889 182.962C104.919 182.725 104.974 182.522 105.054 182.355C105.136 182.186 105.238 182.049 105.358 181.943C105.48 181.835 105.616 181.756 105.767 181.708C105.919 181.658 106.079 181.632 106.248 181.632C106.478 181.632 106.677 181.675 106.844 181.762C107.011 181.848 107.148 181.965 107.256 182.112C107.364 182.255 107.443 182.418 107.494 182.6C107.547 182.78 107.573 182.965 107.573 183.154C107.573 183.373 107.543 183.577 107.481 183.768C107.419 183.958 107.327 184.125 107.205 184.269C107.085 184.413 106.936 184.525 106.759 184.605C106.581 184.685 106.375 184.726 106.141 184.726C105.891 184.726 105.674 184.675 105.488 184.573C105.302 184.469 105.148 184.332 105.025 184.161C104.903 183.99 104.811 183.799 104.75 183.59C104.688 183.38 104.658 183.168 104.658 182.952V182.676C104.658 182.35 104.691 182.03 104.756 181.717C104.822 181.404 104.934 181.12 105.095 180.867C105.257 180.614 105.482 180.411 105.77 180.262C106.058 180.111 106.423 180.036 106.87 180.036ZM111.511 180.042V180.372L109.601 184.662H108.982L110.89 180.525H108.393V180.042H111.511ZM113.035 183.964V184.437C113.035 184.63 112.986 184.832 112.889 185.046C112.793 185.262 112.656 185.442 112.481 185.586L112.148 185.354C112.215 185.261 112.272 185.166 112.319 185.068C112.365 184.973 112.4 184.873 112.424 184.77C112.449 184.669 112.462 184.56 112.462 184.447V183.964H113.035ZM116.961 180.042V180.372L115.05 184.662H114.432L116.34 180.525H113.843V180.042H116.961ZM118.744 182.064H119.163C119.367 182.064 119.536 182.029 119.67 181.962C119.805 181.892 119.905 181.797 119.971 181.679C120.038 181.559 120.072 181.424 120.072 181.273C120.072 181.096 120.042 180.946 119.984 180.826C119.924 180.706 119.836 180.615 119.717 180.553C119.599 180.491 119.448 180.461 119.267 180.461C119.102 180.461 118.956 180.493 118.83 180.559C118.705 180.623 118.607 180.713 118.535 180.832C118.465 180.95 118.431 181.09 118.431 181.252H117.844C117.844 181.017 117.904 180.803 118.022 180.61C118.14 180.418 118.306 180.264 118.519 180.15C118.735 180.036 118.984 179.979 119.267 179.979C119.546 179.979 119.79 180.029 119.999 180.127C120.209 180.225 120.371 180.371 120.487 180.566C120.603 180.759 120.662 180.998 120.662 181.286C120.662 181.402 120.634 181.527 120.579 181.661C120.527 181.792 120.442 181.914 120.329 182.028C120.216 182.143 120.071 182.237 119.892 182.311C119.712 182.383 119.496 182.419 119.245 182.419H118.744V182.064ZM118.744 182.546V182.194H119.245C119.538 182.194 119.781 182.229 119.974 182.298C120.166 182.368 120.317 182.461 120.427 182.577C120.539 182.694 120.617 182.822 120.662 182.962C120.707 183.099 120.731 183.237 120.731 183.374C120.731 183.59 120.694 183.782 120.62 183.948C120.548 184.115 120.446 184.257 120.312 184.373C120.182 184.49 120.028 184.578 119.851 184.637C119.672 184.696 119.48 184.726 119.27 184.726C119.07 184.726 118.881 184.697 118.703 184.639C118.528 184.583 118.372 184.501 118.237 184.392C118.102 184.282 117.997 184.148 117.92 183.99C117.844 183.828 117.807 183.646 117.807 183.44H118.393C118.393 183.602 118.427 183.742 118.498 183.863C118.569 183.983 118.671 184.077 118.802 184.144C118.935 184.21 119.09 184.243 119.27 184.243C119.449 184.243 119.604 184.213 119.733 184.151C119.864 184.088 119.964 183.993 120.033 183.866C120.106 183.738 120.142 183.579 120.142 183.386C120.142 183.195 120.102 183.036 120.022 182.914C119.941 182.79 119.827 182.697 119.679 182.638C119.534 182.576 119.361 182.546 119.163 182.546H118.744Z" fill="#343434"/>
<path d="M100.992 187.371H128.031V198.201H100.992V187.371Z" fill="white" fill-opacity="0.5"/>
<path d="M106.892 190.845H106.987V191.47H106.933C106.661 191.47 106.425 191.512 106.227 191.597C106.03 191.681 105.869 191.798 105.743 191.947C105.615 192.094 105.52 192.267 105.457 192.467C105.395 192.664 105.365 192.873 105.365 193.095V193.821C105.365 194.006 105.385 194.168 105.426 194.31C105.466 194.45 105.521 194.568 105.593 194.662C105.667 194.755 105.751 194.827 105.846 194.875C105.942 194.924 106.044 194.948 106.154 194.948C106.268 194.948 106.372 194.925 106.465 194.879C106.557 194.83 106.637 194.763 106.702 194.678C106.768 194.594 106.818 194.493 106.851 194.377C106.885 194.26 106.902 194.133 106.902 193.996C106.902 193.865 106.885 193.742 106.851 193.628C106.82 193.512 106.772 193.41 106.708 193.323C106.646 193.234 106.566 193.166 106.47 193.117C106.377 193.067 106.27 193.041 106.148 193.041C105.996 193.041 105.857 193.077 105.733 193.149C105.61 193.22 105.511 193.315 105.434 193.432C105.361 193.545 105.321 193.667 105.314 193.797L105.023 193.701C105.04 193.504 105.083 193.328 105.153 193.171C105.225 193.015 105.319 192.881 105.434 192.771C105.551 192.662 105.685 192.578 105.837 192.521C105.991 192.461 106.16 192.432 106.344 192.432C106.568 192.432 106.763 192.474 106.927 192.559C107.092 192.643 107.229 192.759 107.336 192.904C107.446 193.048 107.527 193.214 107.58 193.399C107.635 193.583 107.662 193.776 107.662 193.977C107.662 194.199 107.629 194.406 107.561 194.599C107.494 194.79 107.394 194.957 107.263 195.101C107.135 195.245 106.977 195.356 106.791 195.436C106.607 195.516 106.398 195.558 106.163 195.558C105.917 195.558 105.696 195.51 105.501 195.415C105.309 195.319 105.146 195.188 105.01 195.02C104.877 194.854 104.776 194.661 104.706 194.443C104.636 194.225 104.602 193.995 104.602 193.752V193.435C104.602 193.083 104.646 192.752 104.735 192.442C104.823 192.129 104.96 191.852 105.143 191.613C105.329 191.374 105.566 191.186 105.856 191.051C106.146 190.913 106.491 190.845 106.892 190.845ZM109.148 194.89H109.211C109.503 194.89 109.745 194.853 109.94 194.777C110.137 194.699 110.293 194.59 110.409 194.453C110.525 194.315 110.608 194.154 110.659 193.968C110.71 193.781 110.736 193.579 110.736 193.361V192.565C110.736 192.377 110.716 192.212 110.676 192.07C110.638 191.926 110.583 191.807 110.511 191.712C110.441 191.614 110.36 191.542 110.267 191.493C110.176 191.444 110.077 191.419 109.971 191.419C109.856 191.419 109.751 191.446 109.658 191.499C109.567 191.549 109.49 191.621 109.427 191.712C109.366 191.8 109.318 191.905 109.285 192.026C109.252 192.144 109.237 192.27 109.237 192.406C109.237 192.534 109.251 192.656 109.281 192.774C109.313 192.891 109.359 192.994 109.421 193.085C109.482 193.176 109.559 193.249 109.652 193.302C109.744 193.354 109.854 193.381 109.978 193.381C110.097 193.381 110.205 193.358 110.305 193.313C110.404 193.267 110.491 193.205 110.564 193.126C110.639 193.048 110.696 192.96 110.738 192.863C110.782 192.765 110.804 192.667 110.809 192.565L111.099 192.654C111.099 192.814 111.066 192.973 110.999 193.129C110.933 193.284 110.841 193.426 110.723 193.555C110.606 193.682 110.47 193.784 110.314 193.859C110.16 193.936 109.992 193.974 109.81 193.974C109.591 193.974 109.396 193.933 109.227 193.85C109.061 193.765 108.921 193.651 108.809 193.507C108.7 193.363 108.617 193.199 108.562 193.012C108.507 192.826 108.48 192.63 108.48 192.425C108.48 192.203 108.514 191.995 108.581 191.8C108.649 191.606 108.747 191.434 108.876 191.286C109.005 191.137 109.16 191.02 109.344 190.937C109.53 190.853 109.741 190.811 109.975 190.811C110.225 190.811 110.443 190.859 110.631 190.957C110.819 191.053 110.977 191.187 111.106 191.36C111.235 191.531 111.332 191.729 111.398 191.955C111.463 192.182 111.496 192.425 111.496 192.685V192.955C111.496 193.228 111.472 193.491 111.423 193.746C111.374 193.997 111.295 194.231 111.186 194.446C111.078 194.66 110.935 194.848 110.758 195.012C110.583 195.172 110.367 195.298 110.111 195.389C109.858 195.477 109.56 195.522 109.218 195.522H109.148V194.89ZM113.242 194.757L113.239 195.303C113.239 195.519 113.185 195.742 113.077 195.969C112.969 196.198 112.827 196.386 112.649 196.535L112.241 196.296C112.3 196.201 112.353 196.105 112.402 196.008C112.45 195.911 112.489 195.807 112.52 195.697C112.549 195.587 112.564 195.466 112.564 195.332V194.757H113.242ZM117.285 194.885V195.494H114.192V194.971L115.694 193.33C115.858 193.143 115.988 192.983 116.083 192.848C116.178 192.712 116.246 192.59 116.283 192.483C116.323 192.372 116.344 192.266 116.344 192.162C116.344 192.016 116.316 191.888 116.261 191.778C116.209 191.666 116.13 191.578 116.027 191.515C115.923 191.45 115.798 191.416 115.65 191.416C115.479 191.416 115.335 191.454 115.219 191.528C115.102 191.601 115.015 191.704 114.955 191.835C114.897 191.964 114.867 192.112 114.867 192.279H114.103C114.103 192.011 114.165 191.766 114.287 191.544C114.41 191.32 114.587 191.141 114.819 191.01C115.051 190.877 115.332 190.811 115.659 190.811C115.968 190.811 116.229 190.862 116.444 190.965C116.661 191.069 116.824 191.217 116.936 191.407C117.05 191.597 117.107 191.822 117.107 192.083C117.107 192.226 117.084 192.369 117.037 192.511C116.991 192.653 116.925 192.795 116.838 192.937C116.753 193.076 116.653 193.216 116.536 193.358C116.421 193.498 116.293 193.64 116.154 193.784L115.155 194.885H117.285ZM118.942 193.346L118.333 193.197L118.584 190.873H121.07V191.521H119.218L119.09 192.654C119.162 192.612 119.262 192.57 119.388 192.53C119.515 192.488 119.66 192.467 119.822 192.467C120.04 192.467 120.234 192.502 120.405 192.575C120.578 192.644 120.725 192.747 120.845 192.882C120.966 193.016 121.058 193.178 121.121 193.371C121.185 193.561 121.216 193.776 121.216 194.015C121.216 194.229 121.185 194.429 121.121 194.614C121.061 194.801 120.967 194.965 120.843 195.107C120.718 195.248 120.561 195.359 120.371 195.44C120.182 195.518 119.96 195.558 119.702 195.558C119.51 195.558 119.325 195.529 119.147 195.474C118.972 195.418 118.815 195.334 118.676 195.224C118.536 195.111 118.424 194.975 118.339 194.811C118.255 194.647 118.206 194.457 118.193 194.244H118.942C118.96 194.393 119.001 194.522 119.065 194.627C119.131 194.731 119.218 194.81 119.325 194.866C119.433 194.921 119.557 194.948 119.699 194.948C119.828 194.948 119.939 194.926 120.032 194.882C120.124 194.835 120.202 194.769 120.262 194.685C120.326 194.598 120.373 194.496 120.402 194.38C120.434 194.263 120.449 194.134 120.449 193.993C120.449 193.857 120.432 193.734 120.395 193.621C120.362 193.51 120.31 193.412 120.241 193.33C120.173 193.247 120.087 193.184 119.984 193.139C119.881 193.093 119.762 193.07 119.626 193.07C119.445 193.07 119.305 193.096 119.208 193.149C119.113 193.202 119.024 193.267 118.942 193.346Z" fill="#343434"/>
<path d="M100.992 187.479H128.031V187.262H100.992V187.479Z" fill="#343434"/>
<path d="M101.208 198.201V165.709H100.775V198.201H101.208Z" fill="#343434"/>
<path d="M128.03 165.709H78.2793V198.201H128.03V165.709Z" stroke="#343434" stroke-width="0.4"/>
</g>
</svg>
