<svg width="252" height="328" viewBox="0 0 252 328" fill="none" xmlns="http://www.w3.org/2000/svg">
<mask id="mask0_3978_46904" style="mask-type:alpha" maskUnits="userSpaceOnUse" x="20" y="43" width="212" height="241">
<path d="M231.451 44.4058H50.8331V43.3228H20.5498V149.463H50.8331V283.763H231.451V44.4058Z" fill="#DDF3FF"/>
</mask>
<g mask="url(#mask0_3978_46904)">
<path d="M231.451 43.3223H50.8331V42.2393H20.5498V148.38H50.8331V282.68H231.451V43.3223Z" fill="#E9DFC8"/>
<path d="M231.451 280.514H50.8331V371.145H20.5498V477.104H50.8331V540.449H219.554V365.703H231.451V280.514Z" fill="#E9DFC8"/>
<path d="M377.46 -142.965H262.816V-113.722H50.833V43.3224H231.451V109.389H365.563V-113.722H377.46V-142.965Z" fill="#E9DFC8"/>
<path d="M202.249 45.4883H211.983V48.4201C211.983 49.044 211.478 49.5498 210.855 49.5498H203.377C202.754 49.5498 202.249 49.044 202.249 48.4201V45.4883Z" fill="white"/>
<path d="M203.33 51.6767C203.33 51.5803 203.33 51.5316 203.342 51.4915C203.369 51.4005 203.44 51.329 203.531 51.302C203.571 51.29 203.619 51.29 203.716 51.29H210.515C210.612 51.29 210.66 51.29 210.7 51.302C210.791 51.329 210.862 51.4005 210.889 51.4915C210.901 51.5316 210.901 51.5803 210.901 51.6767V57.9433C210.901 60.0369 209.206 61.734 207.115 61.734C205.025 61.734 203.33 60.0369 203.33 57.9433V51.6767Z" fill="white"/>
<path d="M203.33 49.5498H210.901V50.726C210.901 50.9924 210.901 51.1246 210.819 51.208C210.735 51.2903 210.602 51.2903 210.337 51.2903H203.894C203.629 51.2903 203.496 51.2903 203.412 51.208C203.33 51.1246 203.33 50.9924 203.33 50.726V49.5498Z" fill="white"/>
<path d="M202.249 45.4883H211.983V48.4201C211.983 49.044 211.478 49.5498 210.855 49.5498H203.377C202.754 49.5498 202.249 49.044 202.249 48.4201V45.4883Z" stroke="#343434" stroke-width="0.5"/>
<path d="M203.33 51.6767C203.33 51.5803 203.33 51.5316 203.342 51.4915C203.369 51.4005 203.44 51.329 203.531 51.302C203.571 51.29 203.619 51.29 203.716 51.29H210.515C210.612 51.29 210.66 51.29 210.7 51.302C210.791 51.329 210.862 51.4005 210.889 51.4915C210.901 51.5316 210.901 51.5803 210.901 51.6767V57.9433C210.901 60.0369 209.206 61.734 207.115 61.734C205.025 61.734 203.33 60.0369 203.33 57.9433V51.6767Z" stroke="#343434" stroke-width="0.5"/>
<path d="M203.33 49.5498H210.901V50.726C210.901 50.9924 210.901 51.1246 210.819 51.208C210.735 51.2903 210.602 51.2903 210.337 51.2903H203.894C203.629 51.2903 203.496 51.2903 203.412 51.208C203.33 51.1246 203.33 50.9924 203.33 50.726V49.5498Z" stroke="#343434" stroke-width="0.5"/>
<path opacity="0.6" d="M207.549 47.2286C207.549 47.4961 207.349 47.7008 207.116 47.7008C206.884 47.7008 206.684 47.4961 206.684 47.2286C206.684 46.961 206.884 46.7563 207.116 46.7563C207.349 46.7563 207.549 46.961 207.549 47.2286Z" stroke="#343434" stroke-width="0.2"/>
<path d="M227.396 179.789V180.059H227.125H219.478H219.456C218.473 180.059 217.706 180.059 217.11 179.979C216.501 179.897 216.029 179.727 215.66 179.356C215.29 178.987 215.12 178.514 215.038 177.904C214.958 177.307 214.958 176.539 214.958 175.555V175.533V169.964V169.942C214.958 168.958 214.958 168.19 215.038 167.593C215.12 166.984 215.29 166.51 215.66 166.141C216.029 165.77 216.501 165.6 217.11 165.518C217.706 165.438 218.473 165.438 219.456 165.438H219.478H227.125H227.396V165.709V179.789Z" fill="white"/>
<path d="M227.126 179.789V165.709H217.353C216.179 165.709 215.229 166.661 215.229 167.836V177.662C215.229 178.837 216.179 179.789 217.353 179.789H227.126Z" fill="white"/>
<path opacity="0.6" d="M218.838 173.29L218.838 173.29C218.838 173.524 218.649 173.714 218.415 173.714L218.415 173.714C218.181 173.714 217.992 173.524 217.992 173.29L217.992 173.29C217.992 173.056 218.181 172.867 218.415 172.867L218.415 172.867C218.649 172.867 218.838 173.056 218.838 173.29Z" stroke="#343434" stroke-width="0.2"/>
<path opacity="0.6" d="M223.407 178.725H217.618C216.885 178.725 216.29 178.13 216.29 177.395V168.102C216.29 167.368 216.885 166.772 217.618 166.772H223.407" stroke="#343434" stroke-width="0.3" stroke-linecap="round"/>
<path opacity="0.6" d="M225.001 178.725V166.772" stroke="#343434" stroke-width="0.3" stroke-linecap="round"/>
<path d="M224.101 171.428V175.151C224.101 175.502 224.385 175.787 224.735 175.787C225.085 175.787 225.369 175.502 225.369 175.151V171.428C225.369 171.077 225.085 170.793 224.735 170.793C224.385 170.793 224.101 171.077 224.101 171.428Z" fill="white" stroke="#343434" stroke-width="0.3"/>
<path d="M225.012 172.448L222.088 172.61C221.728 172.631 221.445 172.929 221.445 173.29C221.445 173.652 221.728 173.95 222.088 173.97L225.012 174.133C225.495 174.16 225.901 173.774 225.901 173.29C225.901 172.806 225.495 172.421 225.012 172.448Z" fill="white" stroke="#343434" stroke-width="0.3"/>
<path opacity="0.6" d="M225.533 173.29C225.533 172.997 225.295 172.759 225.002 172.759C224.708 172.759 224.471 172.997 224.471 173.29C224.471 173.584 224.708 173.822 225.002 173.822C225.295 173.822 225.533 173.584 225.533 173.29Z" fill="#343434"/>
<path d="M227.396 179.789V180.059H227.125H219.478H219.456C218.473 180.059 217.706 180.059 217.11 179.979C216.501 179.897 216.029 179.727 215.66 179.356C215.29 178.987 215.12 178.514 215.038 177.904C214.958 177.307 214.958 176.539 214.958 175.555V175.533V169.964V169.942C214.958 168.958 214.958 168.19 215.038 167.593C215.12 166.984 215.29 166.51 215.66 166.141C216.029 165.77 216.501 165.6 217.11 165.518C217.706 165.438 218.473 165.438 219.456 165.438H219.478H227.125H227.396V165.709V179.789Z" stroke="#343434" stroke-width="0.5"/>
<path d="M227.396 94.2266V94.4974H227.125H219.478H219.456C218.473 94.4974 217.706 94.4974 217.11 94.4172C216.501 94.3349 216.029 94.1649 215.66 93.7945C215.29 93.4251 215.12 92.9518 215.038 92.3421C214.958 91.7453 214.958 90.9774 214.958 89.9929V89.9712V84.4021V84.3804C214.958 83.3959 214.958 82.628 215.038 82.0313C215.12 81.4215 215.29 80.9482 215.66 80.5789C216.029 80.2085 216.501 80.0384 217.11 79.9561C217.706 79.876 218.473 79.876 219.456 79.876H219.478H227.125H227.396V80.1467V94.2266Z" fill="white"/>
<path d="M227.126 94.2268V80.147H217.353C216.179 80.147 215.229 81.099 215.229 82.2741V92.0997C215.229 93.2748 216.179 94.2268 217.353 94.2268H227.126Z" fill="white"/>
<path opacity="0.6" d="M218.838 87.7283L218.838 87.7283C218.838 87.9622 218.649 88.1519 218.415 88.1519L218.415 88.1519C218.181 88.1519 217.992 87.9622 217.992 87.7283L217.992 87.7283C217.992 87.4944 218.181 87.3047 218.415 87.3047L218.415 87.3047C218.649 87.3047 218.838 87.4944 218.838 87.7283Z" stroke="#343434" stroke-width="0.2"/>
<path opacity="0.6" d="M223.407 93.1632H217.618C216.885 93.1632 216.29 92.5675 216.29 91.8332V82.5405C216.29 81.8061 216.885 81.2104 217.618 81.2104H223.407" stroke="#343434" stroke-width="0.3" stroke-linecap="round"/>
<path opacity="0.6" d="M225.001 93.1632V81.2104" stroke="#343434" stroke-width="0.3" stroke-linecap="round"/>
<path d="M224.101 85.8662V89.5893C224.101 89.9402 224.385 90.2246 224.735 90.2246C225.085 90.2246 225.369 89.9402 225.369 89.5893V85.8662C225.369 85.5154 225.085 85.2309 224.735 85.2309C224.385 85.2309 224.101 85.5154 224.101 85.8662Z" fill="white" stroke="#343434" stroke-width="0.3"/>
<path d="M225.012 86.8856L222.088 87.0481C221.728 87.0687 221.445 87.3665 221.445 87.7283C221.445 88.09 221.728 88.3878 222.088 88.4084L225.012 88.5709C225.495 88.598 225.901 88.2124 225.901 87.7283C225.901 87.2441 225.495 86.8585 225.012 86.8856Z" fill="white" stroke="#343434" stroke-width="0.3"/>
<path opacity="0.6" d="M225.533 87.7284C225.533 87.4346 225.295 87.1965 225.002 87.1965C224.708 87.1965 224.471 87.4346 224.471 87.7284C224.471 88.0221 224.708 88.2603 225.002 88.2603C225.295 88.2603 225.533 88.0221 225.533 87.7284Z" fill="#343434"/>
<path d="M227.396 94.2266V94.4974H227.125H219.478H219.456C218.473 94.4974 217.706 94.4974 217.11 94.4172C216.501 94.3349 216.029 94.1649 215.66 93.7945C215.29 93.4251 215.12 92.9518 215.038 92.3421C214.958 91.7453 214.958 90.9774 214.958 89.9929V89.9712V84.4021V84.3804C214.958 83.3959 214.958 82.628 215.038 82.0313C215.12 81.4215 215.29 80.9482 215.66 80.5789C216.029 80.2085 216.501 80.0384 217.11 79.9561C217.706 79.876 218.473 79.876 219.456 79.876H219.478H227.125H227.396V80.1467V94.2266Z" stroke="#343434" stroke-width="0.5"/>
<path d="M187.378 63.9004V64.1712H187.108H179.46H179.439C178.455 64.1712 177.689 64.1712 177.093 64.091C176.484 64.0087 176.011 63.8387 175.642 63.4683C175.272 63.099 175.103 62.6257 175.02 62.0159C174.94 61.4191 174.94 60.6512 174.94 59.6667V59.6451V54.0759V54.0543C174.94 53.0698 174.94 52.3019 175.02 51.7051C175.103 51.0953 175.272 50.622 175.642 50.2527C176.011 49.8823 176.484 49.7123 177.093 49.63C177.689 49.5498 178.455 49.5498 179.439 49.5498H179.46H187.108H187.378V49.8206V63.9004Z" fill="white"/>
<path d="M187.108 63.9006V49.8208H177.335C176.162 49.8208 175.211 50.7728 175.211 51.9479V61.7735C175.211 62.9486 176.162 63.9006 177.335 63.9006H187.108Z" fill="white"/>
<path opacity="0.6" d="M178.82 57.4021L178.82 57.4021C178.82 57.6361 178.631 57.8257 178.397 57.8257L178.397 57.8257C178.164 57.8257 177.974 57.6361 177.974 57.4021L177.974 57.4021C177.974 57.1682 178.164 56.9786 178.397 56.9786L178.397 56.9786C178.631 56.9786 178.82 57.1682 178.82 57.4021Z" stroke="#343434" stroke-width="0.2"/>
<path opacity="0.6" d="M183.389 62.837H177.601C176.867 62.837 176.272 62.2413 176.272 61.507V52.2143C176.272 51.48 176.867 50.8843 177.601 50.8843H183.389" stroke="#343434" stroke-width="0.3" stroke-linecap="round"/>
<path opacity="0.6" d="M184.983 62.837V50.8843" stroke="#343434" stroke-width="0.3" stroke-linecap="round"/>
<path d="M184.083 55.5401V59.2631C184.083 59.614 184.367 59.8984 184.717 59.8984C185.068 59.8984 185.352 59.614 185.352 59.2631V55.5401C185.352 55.1892 185.068 54.9047 184.717 54.9047C184.367 54.9047 184.083 55.1892 184.083 55.5401Z" fill="white" stroke="#343434" stroke-width="0.3"/>
<path d="M184.995 56.5594L182.07 56.7219C181.71 56.7425 181.428 57.0403 181.428 57.4021C181.428 57.7638 181.71 58.0617 182.07 58.0822L184.995 58.2447C185.477 58.2718 185.884 57.8862 185.884 57.4021C185.884 56.918 185.477 56.5324 184.995 56.5594Z" fill="white" stroke="#343434" stroke-width="0.3"/>
<path opacity="0.6" d="M185.515 57.4022C185.515 57.1085 185.278 56.8703 184.984 56.8703C184.691 56.8703 184.453 57.1085 184.453 57.4022C184.453 57.6959 184.691 57.9341 184.984 57.9341C185.278 57.9341 185.515 57.6959 185.515 57.4022Z" fill="#343434"/>
<path d="M187.378 63.9004V64.1712H187.108H179.46H179.439C178.455 64.1712 177.689 64.1712 177.093 64.091C176.484 64.0087 176.011 63.8387 175.642 63.4683C175.272 63.099 175.103 62.6257 175.02 62.0159C174.94 61.4191 174.94 60.6512 174.94 59.6667V59.6451V54.0759V54.0543C174.94 53.0698 174.94 52.3019 175.02 51.7051C175.103 51.0953 175.272 50.622 175.642 50.2527C176.011 49.8823 176.484 49.7123 177.093 49.63C177.689 49.5498 178.455 49.5498 179.439 49.5498H179.46H187.108H187.378V49.8206V63.9004Z" stroke="#343434" stroke-width="0.5"/>
<mask id="mask1_3978_46904" style="mask-type:luminance" maskUnits="userSpaceOnUse" x="189" y="184" width="39" height="18">
<path d="M227.126 184.121L227.126 201.45L189.272 201.45L189.272 184.121L227.126 184.121Z" fill="white"/>
</mask>
<g mask="url(#mask1_3978_46904)">
<path d="M227.126 184.121L227.126 201.45L189.272 201.45L189.272 184.121L227.126 184.121Z" fill="white"/>
<path d="M227.126 184.121L227.126 201.45L189.272 201.45L189.272 184.121L227.126 184.121Z" fill="white"/>
<path opacity="0.6" d="M215.038 192.786L215.038 192.786C215.038 193.422 214.523 193.938 213.888 193.938L213.888 193.938C213.252 193.938 212.737 193.422 212.737 192.786L212.737 192.786C212.737 192.15 213.252 191.634 213.888 191.634L213.888 191.634C214.523 191.634 215.038 192.15 215.038 192.786Z" stroke="#343434" stroke-width="0.204"/>
<g opacity="0.6">
<path d="M223.812 198.317V187.254C223.812 186.66 223.33 186.178 222.736 186.178H198.555C194.91 186.178 191.955 189.136 191.955 192.786C191.955 196.435 194.91 199.393 198.555 199.393H222.736C223.33 199.393 223.812 198.911 223.812 198.317Z" stroke="#343434" stroke-width="0.3"/>
</g>
<path d="M223.506 190.575V194.994C223.506 195.428 223.857 195.779 224.289 195.779C224.722 195.779 225.073 195.428 225.073 194.994V190.575C225.073 190.142 224.722 189.791 224.289 189.791C223.857 189.791 223.506 190.142 223.506 190.575Z" fill="white" stroke="#343434" stroke-width="0.3"/>
<path d="M224.613 191.748L220.513 191.954C220.071 191.976 219.724 192.342 219.724 192.786C219.724 193.23 220.071 193.596 220.513 193.618L224.613 193.824C225.206 193.853 225.702 193.379 225.702 192.786C225.702 192.192 225.206 191.719 224.613 191.748Z" fill="white" stroke="#343434" stroke-width="0.3"/>
<path opacity="0.6" d="M225.235 192.786C225.235 192.437 224.953 192.154 224.605 192.154C224.257 192.154 223.975 192.437 223.975 192.786C223.975 193.134 224.257 193.417 224.605 193.417C224.953 193.417 225.235 193.134 225.235 192.786Z" fill="#343434"/>
</g>
<path d="M227.396 183.85L227.396 201.721L189.001 201.721L189.001 183.85L227.396 183.85Z" stroke="#343434" stroke-width="0.5"/>
<mask id="mask2_3978_46904" style="mask-type:luminance" maskUnits="userSpaceOnUse" x="175" y="77" width="14" height="14">
<path d="M175.211 77.9803V90.9771H188.189V77.9803H175.211Z" fill="white"/>
</mask>
<g mask="url(#mask2_3978_46904)">
<path d="M175.211 77.9803V90.9771H188.189V77.9803H175.211Z" fill="white"/>
<path opacity="0.6" d="M181.144 87.1863C181.144 86.0797 180.248 85.1826 179.143 85.1826C178.038 85.1826 177.143 86.0797 177.143 87.1863C177.143 88.2929 178.038 89.1899 179.143 89.1899C180.248 89.1899 181.144 88.2929 181.144 87.1863Z" stroke="#343434" stroke-width="0.3"/>
<path opacity="0.6" d="M182.256 81.7712C182.256 80.6646 183.152 79.7676 184.257 79.7676C185.362 79.7676 186.258 80.6646 186.258 81.7712C186.258 82.8778 185.362 83.7749 184.257 83.7749C183.152 83.7749 182.256 82.8778 182.256 81.7712Z" stroke="#343434" stroke-width="0.3"/>
<path opacity="0.6" d="M183.972 81.7714C183.972 81.5321 184.165 81.3381 184.404 81.3381C184.643 81.3381 184.837 81.5321 184.837 81.7714C184.837 82.0106 184.643 82.2046 184.404 82.2046C184.165 82.2046 183.972 82.0106 183.972 81.7714Z" stroke="#343434" stroke-width="0.2"/>
<path opacity="0.6" d="M178.78 87.1864C178.78 86.9471 178.974 86.7532 179.213 86.7532C179.452 86.7532 179.646 86.9471 179.646 87.1864C179.646 87.4257 179.452 87.6196 179.213 87.6196C178.974 87.6196 178.78 87.4257 178.78 87.1864Z" stroke="#343434" stroke-width="0.2"/>
<path opacity="0.6" d="M185.865 87.1863C185.865 86.3788 185.211 85.7242 184.404 85.7242C183.598 85.7242 182.944 86.3788 182.944 87.1863C182.944 87.9938 183.598 88.6484 184.404 88.6484C185.211 88.6484 185.865 87.9938 185.865 87.1863Z" stroke="#343434" stroke-width="0.3"/>
<path opacity="0.6" d="M177.32 81.7713C177.32 80.9637 177.974 80.3091 178.78 80.3091C179.587 80.3091 180.24 80.9637 180.24 81.7713C180.24 82.5788 179.587 83.2334 178.78 83.2334C177.974 83.2334 177.32 82.5788 177.32 81.7713Z" stroke="#343434" stroke-width="0.3"/>
</g>
<path d="M174.94 77.7092V91.2476H188.46V77.7092H174.94Z" stroke="#343434" stroke-width="0.5"/>
<path d="M156.824 205.782H126.541V215.53H156.824V205.782Z" fill="#343434"/>
<path d="M155.743 43.3223H127.623V48.7376H155.743V43.3223Z" fill="#343434"/>
<path d="M71.3823 201.45H59.4854V216.613H71.3823V201.45Z" fill="#343434"/>
<path d="M71.3823 37.9072H59.4854V51.9871H71.3823V37.9072Z" fill="#343434"/>
<path d="M231.451 37.9072H217.391V51.9871H231.451V37.9072Z" fill="#343434"/>
<path d="M231.451 201.45H217.391V215.53H231.451V201.45Z" fill="#343434"/>
<path d="M50.833 267.517V305.424H62.73V267.517H50.833Z" fill="#343434"/>
<path d="M50.833 190.619V226.36H62.73V190.619H50.833Z" fill="#343434"/>
<path d="M50.833 116.971V149.463H62.73V116.971H50.833Z" fill="#343434"/>
<path d="M50.833 27.0765V67.1499H62.73V27.0765H50.833Z" fill="#343434"/>
<path d="M52.9962 146.213H22.7129V64.9835M22.7129 64.9835V44.4053H52.9962M22.7129 64.9835H28.1206M51.9146 64.9835H46.5069" stroke="#343434" stroke-width="4"/>
<path d="M61.6489 -30.3261H144.928M144.928 -30.3261H149.254M144.928 -30.3261V-23.8277M144.928 -5.41561V-0.000285864M144.928 -0.000285864V43.3223M144.928 -0.000285864H179.537M195.761 -0.000285864H229.829V38.9901M166.559 -30.3261H171.426M171.426 -30.3261H245.512M171.426 -30.3261V-103.975M264.979 -30.3261H281.203V-105.058M281.203 -2.16642V43.3223H297.426M297.426 43.3223H365.563M297.426 43.3223V60.6514M670.559 -30.3261H587.28M587.28 -30.3261H582.954M587.28 -30.3261V-23.8277M587.28 -5.41561V-0.000285864M587.28 -0.000285864V43.3223M587.28 -0.000285864H552.67M536.447 -0.000285864H502.379V38.9901M565.649 -30.3261H561.323M561.323 -30.3261H491.022M561.323 -30.3261V-103.975M470.473 -30.3261H451.005V-105.058M451.005 -2.16642V43.3223H366.645M297.426 76.8973V99.6417M297.426 99.6417V107.223M297.426 99.6417H365.563H434.782M434.782 99.6417V76.8973M434.782 99.6417V107.223M434.782 43.3223V60.6514M189.271 43.3223V99.6417M189.271 99.6417V108.306H154.662M189.271 99.6417H195.761M195.761 99.6417H202.25M195.761 99.6417V43.3223M218.473 99.6417H229.288M60.5674 139.715H156.825V178.694M156.825 198.189V214.988M156.825 214.988H69.2197M156.825 214.988H162.233M182.782 214.988H229.288M188.19 243.689V220.945M188.19 220.945V180.872M188.19 220.945H229.288M188.19 165.709V159.21H229.288M188.19 259.935V282.68M220.636 282.68V328.168M220.636 328.168H229.288M220.636 328.168H191.434M175.211 328.168H150.336M150.336 328.168V282.68M150.336 328.168V341.165M150.336 361.744V372.574M150.336 372.574V390.986M150.336 372.574H69.2197M150.336 410.481V421.312M150.336 421.312V530.702M150.336 421.312H161.151M181.7 421.312H219.554M315.812 329.252V336.833M315.812 336.833V367.159M315.812 336.833H366.645M315.812 382.322V403.983M315.812 403.983H297.426V424.561M315.812 403.983H366.645M297.426 445.14V531.243M229.288 370.408H275.254V360.66M415.855 329.252V336.833M415.855 336.833V367.159M415.855 336.833H365.022M415.855 382.322V403.983M415.855 403.983H434.241V424.561M415.855 403.983H365.022M434.241 445.14V531.243M502.379 370.408H458.035V360.66M511.572 282.68V328.168M511.572 328.168H502.919M511.572 328.168H540.773M556.997 328.168H580.791M580.791 328.168V282.68M580.791 328.168V332.501M580.791 353.079V371.491H606.748M606.748 371.491H662.988M606.748 371.491V376.906H671.64M512.653 374.74H545.1V383.405M545.1 398.568V424.561M545.1 424.561V431.06M545.1 424.561H512.653M545.1 431.06H512.653M545.1 431.06H548.344M566.73 431.06H580.791V530.702M544.018 180.872V205.782M544.018 205.782H512.653M544.018 205.782V213.905M544.018 165.709V159.21H502.919M575.383 213.905V174.373M575.383 153.795V139.715H671.64M568.894 108.306H542.936V99.6417M542.936 99.6417V43.3223M542.936 99.6417H536.447M536.447 99.6417H528.876M536.447 99.6417V43.3223M512.653 99.6417H502.919M541.855 259.935V283.763M512.653 213.905H541.855M541.855 213.905H544.018M541.855 213.905V243.689M548.344 213.905H544.018M568.894 213.905H662.988" stroke="#343434" stroke-width="3"/>
<path d="M60.5674 282.68H229.288M229.288 282.68V141.881M229.288 282.68V331.418M229.288 354.162V360.66M229.288 360.66H274.713V356.328M229.288 360.66V374.74H219.554V523.12M274.713 333.584V329.252M274.713 329.252V261.018H299.589M274.713 329.252H366.645M401.254 261.018H299.589M299.589 261.018V254.52M430.456 261.018H439.108M439.108 261.018V279.431M439.108 261.018H451.011M439.108 279.431H458.576M439.108 279.431V289.178M451.011 261.018H458.576V279.431M451.011 261.018V252.354M439.108 329.252H458.576M439.108 329.252V320.587M439.108 329.252H366.645M458.576 329.252V320.587M458.576 329.252V334.667M439.108 320.587V305.424M439.108 320.587H458.576M366.645 329.252V523.662M458.576 320.587V305.424M458.576 279.431V289.178M439.108 289.178H458.576M439.108 289.178V305.424M458.576 289.178V305.424M439.108 305.424H458.576M458.576 355.245V360.66H502.919M502.919 360.66V353.079M502.919 360.66V374.74H512.653V523.12M502.919 331.418V283.763M502.919 283.763V271.849V248.022V211.197V145.13M502.919 283.763H575.383H627.297H671.64M502.919 121.845V107.223M502.919 107.223H473.718M502.919 107.223V43.3223H662.988M229.288 118.054V107.223M229.288 107.223H259.572M229.288 107.223V75.2727V43.3223H69.2197M449.924 107.223H429.374M429.374 107.223V126.718M429.374 107.223H365.563M282.284 107.223H299.589M299.589 107.223V126.718M299.589 107.223H365.563M365.563 107.223V-95.3101M429.374 155.961V189.536M429.374 189.536V214.447M429.374 189.536H451.005M429.374 214.447H366.645V207.948M429.374 214.447H451.011M366.645 207.948V163.543M366.645 207.948H321.22M451.011 214.447H451.005V189.536M451.011 214.447V222.028M403.417 163.543H451.005V189.536M366.645 163.543H373.134M366.645 163.543H357.992M327.709 163.543H273.821V189.536M273.821 189.536V207.948H321.22M273.821 189.536H299.589M321.22 207.948V224.194H299.589M299.589 155.961V189.536M299.589 189.536V224.194M299.589 224.194V228.526" stroke="#343434" stroke-width="4"/>
<mask id="mask3_3978_46904" style="mask-type:luminance" maskUnits="userSpaceOnUse" x="206" y="216" width="5" height="4">
<path d="M210.902 216.613H206.576V219.862H210.902V216.613Z" fill="white"/>
</mask>
<g mask="url(#mask3_3978_46904)">
<path d="M210.902 216.613H206.576V219.862H210.902V216.613Z" fill="white"/>
<path opacity="0.5" d="M206.576 216.613H210.902L207.838 217.56L206.576 219.862V216.613Z" fill="#343434"/>
</g>
<path d="M211.983 215.53H205.494V220.945H211.983V215.53Z" stroke="#343434" stroke-width="2"/>
<mask id="mask4_3978_46904" style="mask-type:luminance" maskUnits="userSpaceOnUse" x="191" y="93" width="4" height="5">
<path d="M194.678 93.1436H191.434V97.4758H194.678V93.1436Z" fill="white"/>
</mask>
<g mask="url(#mask4_3978_46904)">
<path d="M194.678 93.1436H191.434V97.4758H194.678V93.1436Z" fill="white"/>
<path opacity="0.5" d="M191.434 93.1436H194.678L192.38 94.4075L191.434 97.4758V93.1436Z" fill="#343434"/>
</g>
<path d="M195.76 92.0605H190.353V98.5589H195.76V92.0605Z" stroke="#343434" stroke-width="2"/>
<path d="M62.4597 89.082H51.1035V121.032H62.4597V89.082Z" fill="white"/>
<path d="M55.7 88.811H55.1592V121.303H55.7V88.811Z" fill="#343434"/>
<path d="M62.4597 89.082H51.1035V121.032H62.4597V89.082Z" stroke="#343434" stroke-width="0.5"/>
<path d="M62.4597 149.734H51.1035V190.349H62.4597V149.734Z" fill="white"/>
<path d="M55.7 149.463H55.1592V190.619H55.7V149.463Z" fill="#343434"/>
<path d="M62.4597 149.734H51.1035V190.349H62.4597V149.734Z" stroke="#343434" stroke-width="0.5"/>
<path d="M62.4597 226.631H51.1035V267.246H62.4597V226.631Z" fill="white"/>
<path d="M55.7 226.36H55.1592V267.517H55.7V226.36Z" fill="#343434"/>
<path d="M62.4597 226.631H51.1035V267.246H62.4597V226.631Z" stroke="#343434" stroke-width="0.5"/>
<path d="M96.405 242.293V246.938H95.8188V243.026L94.6367 243.457V242.928L96.3131 242.293H96.405ZM98.8699 244.74L98.4005 244.618L98.6319 242.318H100.999V242.86H99.1294L98.9899 244.118C99.0743 244.069 99.1814 244.024 99.3101 243.981C99.4409 243.938 99.5913 243.918 99.76 243.918C99.9741 243.918 100.165 243.954 100.334 244.028C100.503 244.101 100.647 244.205 100.765 244.34C100.885 244.475 100.977 244.638 101.041 244.828C101.103 245.019 101.136 245.231 101.136 245.466C101.136 245.688 101.104 245.892 101.044 246.078C100.984 246.265 100.895 246.427 100.774 246.567C100.653 246.704 100.502 246.812 100.318 246.887C100.136 246.963 99.9222 247.002 99.6745 247.002C99.4885 247.002 99.3122 246.976 99.1457 246.925C98.9813 246.872 98.8331 246.793 98.7023 246.688C98.5735 246.58 98.4676 246.447 98.3854 246.287C98.3053 246.127 98.2545 245.939 98.2328 245.723H98.7909C98.8158 245.896 98.8666 246.043 98.9423 246.161C99.0191 246.28 99.1186 246.37 99.2408 246.43C99.3652 246.49 99.5102 246.519 99.6745 246.519C99.8141 246.519 99.9374 246.495 100.046 246.447C100.154 246.398 100.245 246.328 100.318 246.237C100.392 246.147 100.448 246.036 100.486 245.907C100.526 245.778 100.546 245.633 100.546 245.472C100.546 245.327 100.526 245.191 100.486 245.066C100.446 244.941 100.385 244.833 100.305 244.74C100.227 244.646 100.131 244.574 100.017 244.524C99.9028 244.471 99.7719 244.444 99.6237 244.444C99.428 244.444 99.2787 244.471 99.177 244.524C99.0775 244.576 98.9759 244.649 98.8699 244.74ZM102.374 246.24V246.713C102.374 246.906 102.325 247.108 102.229 247.322C102.132 247.538 101.996 247.718 101.82 247.862L101.487 247.63C101.554 247.537 101.612 247.442 101.658 247.344C101.705 247.249 101.739 247.149 101.763 247.047C101.788 246.945 101.801 246.836 101.801 246.723V246.24H102.374ZM106.177 245.383V245.866H102.843V245.519L104.909 242.318H105.387L104.875 243.245L103.509 245.383H106.177ZM105.533 242.318V246.938H104.947V242.318H105.533ZM108.959 242.312H109.009V242.81H108.959C108.648 242.81 108.389 242.861 108.179 242.962C107.97 243.062 107.805 243.196 107.681 243.365C107.559 243.532 107.47 243.72 107.415 243.931C107.363 244.14 107.336 244.352 107.336 244.569V245.246C107.336 245.452 107.361 245.634 107.41 245.792C107.457 245.949 107.524 246.082 107.609 246.19C107.693 246.297 107.788 246.378 107.894 246.434C108.001 246.489 108.114 246.516 108.23 246.516C108.365 246.516 108.486 246.491 108.591 246.44C108.697 246.387 108.785 246.314 108.857 246.221C108.931 246.126 108.988 246.013 109.026 245.884C109.063 245.756 109.082 245.614 109.082 245.46C109.082 245.322 109.066 245.19 109.032 245.063C108.997 244.933 108.946 244.82 108.876 244.72C108.807 244.618 108.718 244.539 108.614 244.482C108.51 244.423 108.386 244.393 108.243 244.393C108.08 244.393 107.928 244.434 107.786 244.514C107.647 244.592 107.532 244.696 107.441 244.825C107.352 244.952 107.302 245.091 107.289 245.241L106.978 245.238C107.007 245.001 107.063 244.798 107.143 244.631C107.226 244.462 107.326 244.325 107.448 244.219C107.57 244.111 107.706 244.032 107.856 243.984C108.008 243.934 108.169 243.908 108.338 243.908C108.568 243.908 108.766 243.951 108.934 244.038C109.1 244.124 109.238 244.241 109.346 244.388C109.453 244.531 109.532 244.694 109.583 244.876C109.636 245.056 109.663 245.241 109.663 245.431C109.663 245.649 109.631 245.853 109.571 246.044C109.509 246.234 109.417 246.401 109.295 246.545C109.174 246.689 109.026 246.801 108.848 246.881C108.671 246.961 108.464 247.002 108.23 247.002C107.981 247.002 107.763 246.951 107.577 246.849C107.391 246.745 107.237 246.608 107.114 246.437C106.992 246.266 106.9 246.075 106.839 245.866C106.778 245.656 106.747 245.444 106.747 245.228V244.952C106.747 244.626 106.78 244.306 106.845 243.993C106.911 243.68 107.024 243.397 107.185 243.143C107.347 242.89 107.572 242.687 107.86 242.538C108.146 242.387 108.513 242.312 108.959 242.312Z" fill="#343434"/>
<path d="M94.0947 247.573H109.973V247.89H94.0947V247.573Z" fill="#343434"/>
<path d="M97.4152 255.217H98.0241C97.9928 255.508 97.9084 255.769 97.7732 256C97.638 256.231 97.4477 256.414 97.2 256.549C96.9534 256.682 96.6441 256.75 96.2753 256.75C96.0049 256.75 95.7583 256.699 95.5366 256.597C95.317 256.495 95.1278 256.351 94.9699 256.166C94.8109 255.977 94.6887 255.752 94.6021 255.49C94.5178 255.225 94.4756 254.931 94.4756 254.607V254.147C94.4756 253.823 94.5178 253.531 94.6021 253.269C94.6887 253.004 94.812 252.778 94.9731 252.589C95.1354 252.401 95.3311 252.256 95.5593 252.154C95.7864 252.053 96.0438 252.002 96.3283 252.002C96.6776 252.002 96.9718 252.067 97.213 252.198C97.4531 252.331 97.6402 252.511 97.7732 252.744C97.9084 252.975 97.9928 253.243 98.0241 253.548H97.4152C97.386 253.331 97.3309 253.146 97.2508 252.992C97.1708 252.835 97.0562 252.715 96.9091 252.631C96.7609 252.546 96.5673 252.504 96.3283 252.504C96.1239 252.504 95.9432 252.543 95.7864 252.621C95.6328 252.699 95.5031 252.81 95.3971 252.954C95.2933 253.099 95.2154 253.271 95.1624 253.471C95.1094 253.673 95.0834 253.896 95.0834 254.14V254.607C95.0834 254.834 95.1072 255.046 95.1537 255.245C95.2013 255.444 95.2749 255.619 95.3722 255.768C95.4695 255.919 95.5928 256.037 95.7421 256.123C95.8924 256.209 96.0698 256.251 96.2753 256.251C96.5348 256.251 96.7414 256.21 96.8961 256.127C97.0497 256.044 97.1665 255.926 97.2443 255.772C97.3244 255.618 97.3817 255.433 97.4152 255.217ZM102.965 252.065V256.686H102.357V252.567H100.081V256.686H99.4702V252.065H102.965ZM106.366 252.475L104.839 256.686H104.214L105.972 252.065H106.375L106.366 252.475ZM107.646 256.686L106.115 252.475L106.105 252.065H106.508L108.273 256.686H107.646ZM107.567 254.975V255.477H104.974V254.975H107.567ZM112.498 252.065V252.567H110.387V252.065H112.498ZM113.024 252.065V256.686H112.412V252.065H113.024ZM110.179 252.065H110.786L110.683 254.328C110.667 254.654 110.643 254.945 110.606 255.201C110.572 255.454 110.524 255.675 110.461 255.864C110.397 256.05 110.315 256.205 110.213 256.327C110.112 256.447 109.987 256.537 109.839 256.597C109.694 256.656 109.519 256.686 109.313 256.686H109.149V256.187L109.275 256.178C109.393 256.169 109.495 256.143 109.579 256.099C109.666 256.052 109.739 255.983 109.798 255.89C109.86 255.796 109.909 255.675 109.947 255.528C109.985 255.379 110.015 255.199 110.036 254.985C110.06 254.769 110.077 254.517 110.09 254.229L110.179 252.065ZM115.157 253.948H116.416C116.753 253.948 117.039 254.004 117.271 254.119C117.503 254.23 117.679 254.388 117.8 254.591C117.92 254.795 117.981 255.033 117.981 255.306C117.981 255.508 117.947 255.695 117.879 255.864C117.812 256.031 117.712 256.177 117.578 256.302C117.445 256.425 117.281 256.52 117.087 256.587C116.893 256.653 116.669 256.686 116.416 256.686H114.692V252.065H115.303V256.187H116.416C116.642 256.187 116.824 256.146 116.963 256.064C117.105 255.979 117.209 255.869 117.273 255.734C117.339 255.598 117.372 255.453 117.372 255.299C117.372 255.144 117.339 255.003 117.273 254.874C117.209 254.745 117.105 254.642 116.963 254.566C116.824 254.488 116.642 254.449 116.416 254.449H115.157V253.948ZM122.383 254.052V254.55H119.885V254.052H122.383ZM119.981 252.065V256.686H119.37V252.065H119.981ZM122.915 252.065V256.686H122.307V252.065H122.915ZM127.146 254.887H125.85L125.549 254.763C125.215 254.657 124.959 254.496 124.779 254.277C124.6 254.057 124.51 253.784 124.51 253.459C124.51 253.16 124.575 252.908 124.706 252.7C124.84 252.493 125.027 252.335 125.27 252.228C125.516 252.119 125.805 252.065 126.139 252.065H127.615V256.686H127.003V252.567H126.139C125.8 252.567 125.546 252.647 125.375 252.808C125.206 252.969 125.121 253.186 125.121 253.459C125.121 253.637 125.158 253.795 125.233 253.935C125.308 254.074 125.421 254.184 125.568 254.265C125.716 254.345 125.9 254.385 126.119 254.385H127.149L127.146 254.887ZM126.106 254.569L124.985 256.686H124.336L125.489 254.569H126.106Z" fill="#343434"/>
<path d="M96.405 167.562V172.207H95.8188V168.295L94.6367 168.726V168.196L96.3131 167.562H96.405ZM100.055 167.562V172.207H99.469V168.295L98.2869 168.726V168.196L99.9633 167.562H100.055ZM102.374 171.508V171.982C102.374 172.174 102.325 172.377 102.229 172.59C102.132 172.807 101.996 172.987 101.82 173.131L101.487 172.899C101.554 172.806 101.612 172.71 101.658 172.613C101.705 172.518 101.739 172.418 101.763 172.315C101.788 172.213 101.801 172.105 101.801 171.991V171.508H102.374ZM106.177 170.652V171.135H102.843V170.788L104.909 167.586H105.387L104.875 168.514L103.509 170.652H106.177ZM105.533 167.586V172.207H104.947V167.586H105.533ZM109.691 167.586V167.917L107.78 172.207H107.162L109.07 168.069H106.573V167.586H109.691Z" fill="#343434"/>
<path d="M94.0947 172.841H109.973V173.159H94.0947V172.841Z" fill="#343434"/>
<path d="M97.4152 180.486H98.0241C97.9928 180.777 97.9084 181.038 97.7732 181.269C97.638 181.499 97.4477 181.682 97.2 181.818C96.9534 181.951 96.6441 182.018 96.2753 182.018C96.0049 182.018 95.7583 181.967 95.5366 181.865C95.317 181.764 95.1278 181.619 94.9699 181.434C94.8109 181.246 94.6887 181.021 94.6021 180.758C94.5178 180.493 94.4756 180.2 94.4756 179.876V179.415C94.4756 179.092 94.5178 178.799 94.6021 178.537C94.6887 178.273 94.812 178.046 94.9731 177.858C95.1354 177.67 95.3311 177.524 95.5593 177.423C95.7864 177.322 96.0438 177.271 96.3283 177.271C96.6776 177.271 96.9718 177.336 97.213 177.467C97.4531 177.599 97.6402 177.78 97.7732 178.013C97.9084 178.244 97.9928 178.511 98.0241 178.817H97.4152C97.386 178.6 97.3309 178.415 97.2508 178.261C97.1708 178.104 97.0562 177.984 96.9091 177.899C96.7609 177.815 96.5673 177.772 96.3283 177.772C96.1239 177.772 95.9432 177.811 95.7864 177.889C95.6328 177.967 95.5031 178.079 95.3971 178.223C95.2933 178.367 95.2154 178.539 95.1624 178.74C95.1094 178.941 95.0834 179.164 95.0834 179.409V179.876C95.0834 180.102 95.1072 180.314 95.1537 180.514C95.2013 180.713 95.2749 180.887 95.3722 181.037C95.4695 181.187 95.5928 181.305 95.7421 181.392C95.8924 181.478 96.0698 181.52 96.2753 181.52C96.5348 181.52 96.7414 181.479 96.8961 181.395C97.0497 181.313 97.1665 181.195 97.2443 181.04C97.3244 180.886 97.3817 180.701 97.4152 180.486ZM102.965 177.334V181.954H102.357V177.835H100.081V181.954H99.4702V177.334H102.965ZM106.366 177.743L104.839 181.954H104.214L105.972 177.334H106.375L106.366 177.743ZM107.646 181.954L106.115 177.743L106.105 177.334H106.508L108.273 181.954H107.646ZM107.567 180.244V180.745H104.974V180.244H107.567ZM112.498 177.334V177.835H110.387V177.334H112.498ZM113.024 177.334V181.954H112.412V177.334H113.024ZM110.179 177.334H110.786L110.683 179.596C110.667 179.922 110.643 180.214 110.606 180.469C110.572 180.723 110.524 180.944 110.461 181.132C110.397 181.318 110.315 181.473 110.213 181.596C110.112 181.716 109.987 181.806 109.839 181.865C109.694 181.925 109.519 181.954 109.313 181.954H109.149V181.456L109.275 181.446C109.393 181.438 109.495 181.412 109.579 181.367C109.666 181.321 109.739 181.251 109.798 181.158C109.86 181.065 109.909 180.944 109.947 180.796C109.985 180.648 110.015 180.467 110.036 180.254C110.06 180.037 110.077 179.786 110.09 179.498L110.179 177.334ZM115.157 179.216H116.416C116.753 179.216 117.039 179.273 117.271 179.387C117.503 179.499 117.679 179.657 117.8 179.86C117.92 180.063 117.981 180.301 117.981 180.574C117.981 180.777 117.947 180.963 117.879 181.132C117.812 181.3 117.712 181.445 117.578 181.571C117.445 181.693 117.281 181.788 117.087 181.856C116.893 181.922 116.669 181.954 116.416 181.954H114.692V177.334H115.303V181.456H116.416C116.642 181.456 116.824 181.415 116.963 181.332C117.105 181.248 117.209 181.138 117.273 181.002C117.339 180.867 117.372 180.722 117.372 180.568C117.372 180.413 117.339 180.271 117.273 180.142C117.209 180.013 117.105 179.91 116.963 179.835C116.824 179.757 116.642 179.718 116.416 179.718H115.157V179.216ZM122.383 179.32V179.818H119.885V179.32H122.383ZM119.981 177.334V181.954H119.37V177.334H119.981ZM122.915 177.334V181.954H122.307V177.334H122.915ZM127.146 180.155H125.85L125.549 180.032C125.215 179.926 124.959 179.764 124.779 179.545C124.6 179.326 124.51 179.053 124.51 178.728C124.51 178.429 124.575 178.176 124.706 177.969C124.84 177.762 125.027 177.604 125.27 177.496C125.516 177.388 125.805 177.334 126.139 177.334H127.615V181.954H127.003V177.835H126.139C125.8 177.835 125.546 177.915 125.375 178.077C125.206 178.237 125.121 178.455 125.121 178.728C125.121 178.905 125.158 179.063 125.233 179.203C125.308 179.343 125.421 179.452 125.568 179.534C125.716 179.614 125.9 179.654 126.119 179.654H127.149L127.146 180.155ZM126.106 179.838L124.985 181.954H124.336L125.489 179.838H126.106Z" fill="#343434"/>
<path d="M85.5896 59.2552V63.9005H85.0034V59.9884L83.8213 60.4195V59.8899L85.4977 59.2552H85.5896ZM88.1691 61.3022H88.5866C88.7921 61.3022 88.9608 61.2675 89.0938 61.2004C89.229 61.13 89.3296 61.0358 89.3945 60.9177C89.4626 60.7975 89.4961 60.6621 89.4961 60.5116C89.4961 60.3339 89.4669 60.1845 89.4074 60.0643C89.348 59.944 89.2593 59.853 89.1414 59.7913C89.0235 59.7296 88.8732 59.6993 88.6915 59.6993C88.5271 59.6993 88.3811 59.7318 88.2545 59.7978C88.1291 59.8617 88.0317 59.9516 87.9593 60.0707C87.89 60.1888 87.8544 60.3285 87.8544 60.4899H87.2682C87.2682 60.2549 87.3276 60.0415 87.4466 59.8487C87.5645 59.6559 87.73 59.5022 87.9431 59.3884C88.1594 59.2747 88.4081 59.2173 88.6915 59.2173C88.9705 59.2173 89.2139 59.2671 89.4237 59.3657C89.6324 59.4631 89.7946 59.6093 89.9114 59.8043C90.0272 59.9971 90.0856 60.2365 90.0856 60.5245C90.0856 60.6404 90.0586 60.765 90.0034 60.8993C89.9504 61.0303 89.8671 61.1527 89.7525 61.2664C89.6411 61.3812 89.4951 61.4755 89.3155 61.5491C89.136 61.6217 88.9208 61.6574 88.6688 61.6574H88.1691V61.3022ZM88.1691 61.7841V61.4322H88.6688C88.9629 61.4322 89.2052 61.4668 89.3977 61.5361C89.5903 61.6065 89.7416 61.6997 89.8509 61.8156C89.9634 61.9326 90.0412 62.0603 90.0856 62.2C90.1321 62.3376 90.1548 62.4752 90.1548 62.6127C90.1548 62.8282 90.118 63.0199 90.0445 63.1867C89.972 63.3535 89.8704 63.4954 89.7373 63.6113C89.6065 63.7283 89.4518 63.816 89.2744 63.8755C89.0971 63.934 88.9034 63.9644 88.6947 63.9644C88.4935 63.9644 88.3043 63.9351 88.1269 63.8777C87.9517 63.8214 87.797 63.7391 87.6618 63.6308C87.5267 63.5203 87.4207 63.386 87.345 63.2279C87.2682 63.0665 87.2303 62.8846 87.2303 62.6788H87.8165C87.8165 62.8402 87.8522 62.9799 87.9214 63.1012C87.9928 63.2214 88.0945 63.3156 88.2253 63.3828C88.3584 63.4488 88.5152 63.4813 88.6947 63.4813C88.8742 63.4813 89.0278 63.451 89.1576 63.3893C89.2885 63.3265 89.388 63.2312 89.4583 63.1044C89.5297 62.9766 89.5654 62.8174 89.5654 62.6246C89.5654 62.4329 89.5253 62.2748 89.4453 62.1524C89.3653 62.0278 89.2506 61.9358 89.1036 61.8762C88.9575 61.8145 88.7856 61.7841 88.5866 61.7841H88.1691ZM91.5587 63.2019V63.6752C91.5587 63.868 91.51 64.0705 91.4137 64.2839C91.3164 64.5005 91.1801 64.6803 91.0049 64.8243L90.6718 64.5926C90.7388 64.4994 90.7962 64.4041 90.8427 64.3066C90.8892 64.2113 90.9238 64.1117 90.9476 64.0088C90.9725 63.907 90.9854 63.7987 90.9854 63.6849V63.2019H91.5587ZM95.3614 62.3452V62.8282H92.028V62.4817L94.0938 59.2801H94.5718L94.0592 60.2072L92.6932 62.3452H95.3614ZM94.7178 59.2801V63.9005H94.1316V59.2801H94.7178ZM97.8197 59.2552V63.9005H97.2335V59.9884L96.0525 60.4195V59.8899L97.7278 59.2552H97.8197Z" fill="#343434"/>
<path d="M83.2793 64.5352H99.1575V64.8525H83.2793V64.5352Z" fill="#343434"/>
<path d="M87.3669 71.1916V71.4841C87.3669 71.8307 87.3237 72.1415 87.2371 72.4166C87.1506 72.6917 87.0262 72.9256 86.8629 73.1184C86.7007 73.3101 86.5049 73.4574 86.2767 73.5592C86.0507 73.661 85.7976 73.7119 85.5164 73.7119C85.2438 73.7119 84.994 73.661 84.7658 73.5592C84.5398 73.4574 84.3429 73.3101 84.1764 73.1184C84.012 72.9256 83.8844 72.6917 83.7935 72.4166C83.7027 72.1415 83.6572 71.8307 83.6572 71.4841V71.1916C83.6572 70.845 83.7016 70.5353 83.7902 70.2624C83.8811 69.9873 84.0087 69.7533 84.1731 69.5616C84.3386 69.3667 84.5333 69.2183 84.7593 69.1165C84.9875 69.0158 85.2385 68.9648 85.5099 68.9648C85.7911 68.9648 86.0453 69.0158 86.2713 69.1165C86.4995 69.2183 86.6942 69.3667 86.8575 69.5616C87.0219 69.7533 87.1474 69.9873 87.2339 70.2624C87.3226 70.5353 87.3669 70.845 87.3669 71.1916ZM86.7623 71.4841V71.1862C86.7623 70.9111 86.7331 70.6674 86.6769 70.4562C86.6217 70.244 86.5406 70.0663 86.4325 69.9234C86.3243 69.7793 86.1924 69.6699 86.0366 69.5963C85.882 69.5215 85.7068 69.4847 85.5099 69.4847C85.3207 69.4847 85.1487 69.5215 84.994 69.5963C84.8415 69.6699 84.7106 69.7793 84.6014 69.9234C84.4932 70.0663 84.41 70.244 84.3505 70.4562C84.2921 70.6674 84.2618 70.9111 84.2618 71.1862V71.4841C84.2618 71.7613 84.2921 72.0061 84.3505 72.2205C84.41 72.4317 84.4944 72.6104 84.6047 72.7567C84.7161 72.9007 84.848 73.009 85.0005 73.0837C85.1541 73.1574 85.3271 73.1942 85.5164 73.1942C85.7154 73.1942 85.8917 73.1574 86.0464 73.0837C86.2 73.009 86.3297 72.9007 86.4357 72.7567C86.5439 72.6104 86.625 72.4317 86.6802 72.2205C86.7342 72.0061 86.7623 71.7613 86.7623 71.4841ZM91.6812 69.0277V69.5291H89.4565V73.648H88.8476V69.0277H91.6812ZM89.3137 70.91H90.5715C90.9101 70.91 91.1945 70.9664 91.427 71.0812C91.6596 71.1927 91.8359 71.3509 91.9559 71.5534C92.0771 71.757 92.1365 71.9953 92.1365 72.2682C92.1365 72.4707 92.103 72.657 92.036 72.826C91.9678 72.9938 91.8672 73.139 91.7342 73.2646C91.6012 73.387 91.4379 73.4823 91.2432 73.5495C91.0496 73.6155 90.8257 73.648 90.5715 73.648H88.8476V69.0277H89.4597V73.1498H90.5715C90.7976 73.1498 90.9804 73.1086 91.1199 73.0263C91.2616 72.9419 91.3654 72.8314 91.4303 72.696C91.4963 72.5606 91.5287 72.4155 91.5287 72.2617C91.5287 72.1068 91.4963 71.9649 91.4303 71.836C91.3654 71.7072 91.2616 71.6043 91.1199 71.5285C90.9804 71.4505 90.7976 71.4115 90.5715 71.4115H89.3137V70.91ZM99.026 73.166L98.9697 74.7614H98.443V73.648H97.9963V73.166H99.026ZM93.5674 69.0277H94.1817V73.1498H95.7662V69.0277H96.374V73.1498H97.9488V69.0277H98.5609V73.648H93.5674V69.0277ZM102.174 69.4371L100.646 73.648H100.022L101.781 69.0277H102.183L102.174 69.4371ZM103.454 73.648L101.923 69.4371L101.914 69.0277H102.316L104.081 73.648H103.454ZM103.375 71.9379V72.4393H100.782V71.9379H103.375ZM107.844 71.849H106.548L106.246 71.7256C105.913 71.6194 105.656 71.4581 105.476 71.2393C105.297 71.0194 105.207 70.7465 105.207 70.4216C105.207 70.1226 105.273 69.8703 105.404 69.6624C105.537 69.4555 105.725 69.2974 105.967 69.1901C106.213 69.0818 106.503 69.0277 106.836 69.0277H108.312V73.648H107.701V69.5291H106.836C106.498 69.5291 106.243 69.6093 106.072 69.7707C105.904 69.931 105.819 70.1486 105.819 70.4216C105.819 70.5992 105.856 70.7573 105.929 70.897C106.006 71.0367 106.118 71.1462 106.266 71.2274C106.413 71.3075 106.597 71.3476 106.817 71.3476H107.847L107.844 71.849ZM106.804 71.5317L105.683 73.648H105.033L106.187 71.5317H106.804ZM84.4554 76.6091V81.2295H83.8432V76.6091H84.4554ZM87.2977 76.6091L85.2947 79.1511H84.211L84.1158 78.6431H84.9302L86.5406 76.6091H87.2977ZM86.6823 81.2295L84.9497 79.072L85.2914 78.5359L87.4308 81.2295H86.6823ZM92.0197 78.7731V79.0655C92.0197 79.4121 91.9765 79.7229 91.8899 79.998C91.8034 80.2731 91.679 80.5071 91.5157 80.6998C91.3535 80.8915 91.1577 81.0389 90.9295 81.1407C90.7035 81.2425 90.4504 81.2934 90.1692 81.2934C89.8967 81.2934 89.6468 81.2425 89.4186 81.1407C89.1926 81.0389 88.9957 80.8915 88.8292 80.6998C88.6637 80.5071 88.5361 80.2731 88.4452 79.998C88.3544 79.7229 88.3089 79.4121 88.3089 79.0655V78.7731C88.3089 78.4265 88.3533 78.1167 88.442 77.8438C88.5328 77.5687 88.6615 77.3348 88.8259 77.1431C88.9903 76.9481 89.1861 76.7998 89.4121 76.6979C89.6403 76.5972 89.8902 76.5463 90.1627 76.5463C90.4439 76.5463 90.697 76.5972 90.923 76.6979C91.1512 76.7998 91.347 76.9481 91.5093 77.1431C91.6747 77.3348 91.8002 77.5687 91.8867 77.8438C91.9754 78.1167 92.0197 78.4265 92.0197 78.7731ZM91.4141 79.0655V78.7677C91.4141 78.4926 91.3859 78.2489 91.3286 78.0377C91.2745 77.8254 91.1924 77.6478 91.0853 77.5048C90.9771 77.3608 90.8452 77.2514 90.6894 77.1777C90.5348 77.103 90.3596 77.0662 90.1627 77.0662C89.9724 77.0662 89.8004 77.103 89.6468 77.1777C89.4943 77.2514 89.3635 77.3608 89.2532 77.5048C89.1461 77.6478 89.0628 77.8254 89.0033 78.0377C88.9438 78.2489 88.9146 78.4926 88.9146 78.7677V79.0655C88.9146 79.3428 88.9438 79.5876 89.0033 79.802C89.0628 80.0132 89.1472 80.1919 89.2564 80.3381C89.3689 80.4822 89.5008 80.5905 89.6533 80.6652C89.8069 80.7389 89.9789 80.7757 90.1692 80.7757C90.3682 80.7757 90.5445 80.7389 90.6981 80.6652C90.8528 80.5905 90.9825 80.4822 91.0885 80.3381C91.1956 80.1919 91.2767 80.0132 91.3319 79.802C91.387 79.5876 91.4141 79.3428 91.4141 79.0655ZM93.7123 76.6091H94.305L95.817 80.376L97.3247 76.6091H97.9206L96.0453 81.2295H95.5823L93.7123 76.6091ZM93.5198 76.6091H94.0422L94.1277 79.4273V81.2295H93.5198V76.6091ZM97.5875 76.6091H98.111V81.2295H97.5021V79.4273L97.5875 76.6091ZM102.782 78.5955V79.0937H100.286V78.5955H102.782ZM100.38 76.6091V81.2295H99.769V76.6091H100.38ZM103.314 76.6091V81.2295H102.706V76.6091H103.314ZM106.75 77.0185L105.223 81.2295H104.599L106.358 76.6091H106.76L106.75 77.0185ZM108.031 81.2295L106.501 77.0185L106.491 76.6091H106.893L108.658 81.2295H108.031ZM107.951 79.5193V80.0208H105.36V79.5193H107.951ZM111.152 76.6091V81.2295H110.551V76.6091H111.152ZM112.635 76.6091V77.1106H109.07V76.6091H112.635ZM115.358 77.0185L113.831 81.2295H113.207L114.966 76.6091H115.368L115.358 77.0185ZM116.639 81.2295L115.107 77.0185L115.099 76.6091H115.501L117.266 81.2295H116.639ZM116.559 79.5193V80.0208H113.968V79.5193H116.559Z" fill="#343434"/>
<path d="M143.889 61.702L143.42 61.5807L143.651 59.2803H146.019V59.8229H144.149L144.009 61.0803C144.093 61.0316 144.201 60.9861 144.329 60.9439C144.46 60.9005 144.61 60.88 144.779 60.88C144.993 60.88 145.184 60.9168 145.353 60.9904C145.522 61.063 145.666 61.167 145.784 61.3024C145.904 61.4378 145.996 61.6002 146.06 61.7908C146.122 61.9815 146.155 62.1937 146.155 62.4287C146.155 62.6508 146.123 62.8544 146.063 63.0407C146.003 63.227 145.914 63.3894 145.794 63.5292C145.672 63.6667 145.521 63.7739 145.337 63.8497C145.156 63.9256 144.941 63.9645 144.694 63.9645C144.508 63.9645 144.331 63.9386 144.165 63.8877C144 63.8346 143.852 63.7555 143.721 63.6505C143.593 63.5422 143.487 63.4089 143.404 63.2497C143.324 63.0894 143.274 62.901 143.252 62.6854H143.81C143.835 62.8587 143.886 63.005 143.961 63.123C144.038 63.2422 144.138 63.332 144.26 63.3927C144.384 63.4523 144.529 63.4815 144.694 63.4815C144.833 63.4815 144.956 63.4577 145.065 63.4089C145.173 63.3602 145.264 63.2909 145.337 63.1999C145.411 63.1089 145.467 62.9985 145.505 62.8696C145.545 62.7407 145.565 62.5955 145.565 62.4342C145.565 62.289 145.545 62.1537 145.505 62.028C145.465 61.9035 145.404 61.7952 145.324 61.702C145.246 61.6089 145.15 61.5363 145.037 61.4865C144.922 61.4334 144.791 61.4063 144.643 61.4063C144.447 61.4063 144.298 61.4334 144.196 61.4865C144.097 61.5385 143.995 61.611 143.889 61.702ZM147.393 63.2021V63.6754C147.393 63.8681 147.345 64.0707 147.248 64.2841C147.151 64.5007 147.015 64.6804 146.839 64.8245L146.506 64.5927C146.573 64.4996 146.631 64.4043 146.677 64.3068C146.724 64.2115 146.758 64.1118 146.782 64.009C146.807 63.9071 146.82 63.7988 146.82 63.6851V63.2021H147.393ZM150.004 59.2554V63.9006H149.418V59.9886L148.237 60.4197V59.89L149.912 59.2554H150.004ZM154.71 59.2803V59.6106L152.799 63.9006H152.181L154.089 59.7633H151.592V59.2803H154.71Z" fill="#343434"/>
<path d="M142.765 64.5352H154.993V64.8525H142.765V64.5352Z" fill="#343434"/>
<path d="M143.94 69.0278V73.6482H143.328V69.0278H143.94ZM146.782 69.0278L144.779 71.5698H143.696L143.6 71.0618H144.415L146.025 69.0278H146.782ZM146.167 73.6482L144.434 71.4907L144.776 70.9546L146.915 73.6482H146.167ZM149.483 72.1156L150.703 69.0278H151.406L149.774 72.877C149.727 72.9853 149.677 73.0893 149.619 73.1911C149.562 73.2908 149.493 73.3796 149.409 73.4576C149.327 73.5355 149.226 73.5984 149.102 73.6449C148.982 73.6915 148.832 73.7153 148.652 73.7153C148.602 73.7153 148.542 73.7121 148.472 73.7056C148.403 73.7013 148.357 73.6958 148.335 73.6893L148.355 73.2009C148.378 73.2052 148.423 73.2095 148.491 73.2139C148.558 73.216 148.608 73.2171 148.64 73.2171C148.761 73.2171 148.856 73.1922 148.925 73.1435C148.995 73.0947 149.05 73.0341 149.094 72.9594C149.138 72.8836 149.178 72.8066 149.214 72.7276L149.483 72.1156ZM148.447 69.0278L149.73 71.9066L149.882 72.4741L149.368 72.512L147.762 69.0278H148.447ZM153.115 69.0278L154.225 70.7986L155.333 69.0278H156.046L154.589 71.3163L156.08 73.6482H155.361L154.225 71.8427L153.087 73.6482H152.368L153.86 71.3163L152.402 69.0278H153.115ZM160.385 71.0142V71.5124H157.888V71.0142H160.385ZM157.983 69.0278V73.6482H157.372V69.0278H157.983ZM160.917 69.0278V73.6482H160.309V69.0278H160.917ZM165.148 71.8492H163.852L163.552 71.7257C163.218 71.6196 162.961 71.4582 162.782 71.2394C162.602 71.0196 162.512 70.7466 162.512 70.4217C162.512 70.1228 162.577 69.8705 162.708 69.6625C162.841 69.4556 163.029 69.2975 163.273 69.1903C163.517 69.082 163.807 69.0278 164.14 69.0278H165.618V73.6482H165.005V69.5293H164.14C163.803 69.5293 163.548 69.6094 163.377 69.7708C163.208 69.9311 163.123 70.1488 163.123 70.4217C163.123 70.5993 163.16 70.7575 163.235 70.8972C163.311 71.0369 163.422 71.1463 163.57 71.2275C163.718 71.3077 163.902 71.3478 164.122 71.3478H165.151L165.148 71.8492ZM164.109 71.5319L162.987 73.6482H162.337L163.491 71.5319H164.109ZM146.313 78.5956V79.0938H143.817V78.5956H146.313ZM143.912 76.6093V81.2296H143.3V76.6093H143.912ZM146.845 76.6093V81.2296H146.237V76.6093H146.845ZM149.153 80.1693L151.425 76.6093H152.037V81.2296H151.425V77.6663L149.153 81.2296H148.545V76.6093H149.153V80.1693ZM153.755 76.6093H154.369V80.7314H155.954V76.6093H156.563V80.7314H158.138V76.6093H158.749V81.2296H153.755V76.6093ZM162.191 77.0187L160.664 81.2296H160.04L161.799 76.6093H162.201L162.191 77.0187ZM163.471 81.2296L161.94 77.0187L161.932 76.6093H162.334L164.098 81.2296H163.471ZM163.392 79.5195V80.0209H160.8V79.5195H163.392Z" fill="#343434"/>
<path d="M205.652 249.755H206.069C206.275 249.755 206.443 249.721 206.576 249.653C206.712 249.583 206.812 249.489 206.877 249.371C206.945 249.251 206.979 249.115 206.979 248.965C206.979 248.787 206.95 248.638 206.89 248.517C206.831 248.397 206.742 248.306 206.624 248.244C206.506 248.183 206.356 248.152 206.174 248.152C206.01 248.152 205.864 248.185 205.737 248.251C205.612 248.315 205.514 248.405 205.442 248.524C205.373 248.642 205.337 248.782 205.337 248.943H204.751C204.751 248.708 204.81 248.495 204.929 248.302C205.047 248.109 205.213 247.955 205.427 247.842C205.642 247.728 205.891 247.67 206.174 247.67C206.453 247.67 206.696 247.72 206.906 247.819C207.115 247.916 207.277 248.062 207.394 248.257C207.51 248.45 207.568 248.69 207.568 248.978C207.568 249.094 207.541 249.218 207.486 249.352C207.433 249.483 207.35 249.606 207.235 249.72C207.124 249.834 206.978 249.929 206.798 250.002C206.619 250.075 206.403 250.111 206.151 250.111H205.652V249.755ZM205.652 250.237V249.885H206.151C206.445 249.885 206.688 249.92 206.88 249.989C207.073 250.06 207.224 250.153 207.333 250.269C207.446 250.386 207.524 250.513 207.568 250.653C207.615 250.791 207.637 250.928 207.637 251.066C207.637 251.281 207.601 251.473 207.527 251.64C207.455 251.807 207.353 251.949 207.22 252.064C207.089 252.181 206.934 252.269 206.757 252.329C206.58 252.387 206.386 252.417 206.177 252.417C205.976 252.417 205.787 252.388 205.609 252.331C205.434 252.275 205.28 252.192 205.144 252.084C205.009 251.973 204.903 251.839 204.827 251.681C204.751 251.52 204.713 251.338 204.713 251.132H205.299C205.299 251.293 205.335 251.433 205.404 251.554C205.475 251.674 205.577 251.769 205.708 251.836C205.841 251.902 205.998 251.934 206.177 251.934C206.357 251.934 206.51 251.904 206.64 251.842C206.771 251.78 206.871 251.684 206.941 251.558C207.012 251.43 207.049 251.271 207.049 251.078C207.049 250.886 207.008 250.728 206.928 250.606C206.848 250.481 206.733 250.389 206.586 250.329C206.44 250.268 206.268 250.237 206.069 250.237H205.652ZM209.041 251.655V252.128C209.041 252.321 208.993 252.524 208.896 252.737C208.799 252.954 208.663 253.133 208.487 253.277L208.154 253.046C208.221 252.953 208.279 252.857 208.325 252.76C208.372 252.664 208.406 252.565 208.43 252.462C208.455 252.36 208.468 252.252 208.468 252.138V251.655H209.041ZM210.309 251.862H210.369C210.707 251.862 210.982 251.814 211.194 251.719C211.404 251.624 211.567 251.496 211.681 251.336C211.795 251.174 211.873 250.993 211.916 250.793C211.958 250.589 211.979 250.381 211.979 250.167V249.46C211.979 249.251 211.955 249.064 211.906 248.901C211.86 248.738 211.794 248.602 211.709 248.492C211.627 248.382 211.533 248.299 211.427 248.241C211.322 248.184 211.21 248.156 211.092 248.156C210.957 248.156 210.834 248.183 210.727 248.238C210.621 248.291 210.532 248.366 210.458 248.463C210.386 248.561 210.331 248.676 210.294 248.807C210.255 248.938 210.236 249.081 210.236 249.234C210.236 249.372 210.253 249.505 210.287 249.634C210.321 249.763 210.373 249.88 210.442 249.984C210.512 250.087 210.599 250.169 210.701 250.231C210.807 250.29 210.931 250.32 211.072 250.32C211.203 250.32 211.327 250.295 211.44 250.244C211.556 250.191 211.659 250.12 211.747 250.03C211.838 249.939 211.911 249.838 211.962 249.723C212.018 249.609 212.05 249.489 212.058 249.364H212.337C212.337 249.54 212.302 249.713 212.232 249.885C212.165 250.054 212.07 250.209 211.947 250.348C211.825 250.487 211.681 250.6 211.516 250.685C211.351 250.767 211.172 250.808 210.977 250.808C210.749 250.808 210.552 250.764 210.384 250.675C210.218 250.586 210.081 250.468 209.974 250.32C209.868 250.171 209.789 250.007 209.736 249.825C209.685 249.641 209.66 249.454 209.66 249.266C209.66 249.046 209.69 248.84 209.752 248.647C209.812 248.455 209.903 248.286 210.023 248.139C210.144 247.992 210.294 247.876 210.471 247.794C210.651 247.712 210.857 247.67 211.092 247.67C211.356 247.67 211.581 247.723 211.767 247.829C211.953 247.935 212.103 248.077 212.22 248.254C212.338 248.432 212.424 248.631 212.479 248.854C212.535 249.076 212.562 249.305 212.562 249.539V249.752C212.562 249.99 212.547 250.234 212.514 250.481C212.485 250.727 212.426 250.962 212.34 251.186C212.256 251.41 212.132 251.611 211.969 251.789C211.807 251.965 211.595 252.104 211.332 252.207C211.072 252.309 210.751 252.36 210.369 252.36H210.309V251.862ZM216.399 251.872V252.354H213.379V251.931L214.89 250.247C215.076 250.039 215.22 249.864 215.322 249.72C215.426 249.574 215.497 249.443 215.537 249.33C215.579 249.214 215.601 249.095 215.601 248.974C215.601 248.822 215.568 248.684 215.506 248.562C215.444 248.437 215.353 248.338 215.233 248.264C215.113 248.189 214.967 248.152 214.796 248.152C214.591 248.152 214.42 248.192 214.282 248.273C214.147 248.352 214.045 248.461 213.978 248.603C213.91 248.745 213.877 248.907 213.877 249.091H213.291C213.291 248.831 213.348 248.593 213.461 248.378C213.576 248.162 213.745 247.991 213.969 247.863C214.193 247.734 214.468 247.67 214.796 247.67C215.087 247.67 215.337 247.722 215.543 247.825C215.75 247.927 215.909 248.071 216.018 248.257C216.131 248.442 216.187 248.657 216.187 248.904C216.187 249.039 216.163 249.177 216.117 249.317C216.072 249.454 216.011 249.592 215.93 249.729C215.852 249.867 215.76 250.002 215.655 250.135C215.551 250.269 215.44 250.4 215.322 250.529L214.086 251.872H216.399Z" fill="#343434"/>
<path d="M204.412 252.988H216.64V253.306H204.412V252.988Z" fill="#343434"/>
<path d="M195.918 171.775H196.336C196.541 171.775 196.71 171.74 196.843 171.673C196.978 171.603 197.079 171.508 197.144 171.39C197.212 171.27 197.245 171.135 197.245 170.984C197.245 170.807 197.216 170.657 197.157 170.537C197.097 170.417 197.008 170.326 196.891 170.264C196.773 170.202 196.622 170.172 196.441 170.172C196.276 170.172 196.13 170.204 196.004 170.27C195.878 170.334 195.781 170.424 195.708 170.543C195.639 170.661 195.604 170.801 195.604 170.963H195.017C195.017 170.728 195.077 170.514 195.196 170.321C195.314 170.129 195.479 169.975 195.693 169.861C195.909 169.747 196.157 169.69 196.441 169.69C196.72 169.69 196.963 169.74 197.173 169.838C197.382 169.936 197.544 170.082 197.661 170.277C197.776 170.47 197.835 170.709 197.835 170.997C197.835 171.113 197.808 171.238 197.753 171.372C197.7 171.503 197.616 171.625 197.502 171.739C197.39 171.854 197.244 171.948 197.065 172.022C196.885 172.094 196.67 172.13 196.418 172.13H195.918V171.775ZM195.918 172.257V171.905H196.418C196.712 171.905 196.954 171.939 197.147 172.009C197.339 172.079 197.491 172.172 197.6 172.288C197.713 172.405 197.79 172.533 197.835 172.673C197.881 172.81 197.904 172.948 197.904 173.085C197.904 173.301 197.867 173.493 197.794 173.659C197.721 173.826 197.62 173.968 197.487 174.084C197.356 174.201 197.201 174.289 197.024 174.348C196.846 174.407 196.653 174.437 196.444 174.437C196.243 174.437 196.053 174.408 195.876 174.35C195.701 174.294 195.546 174.212 195.411 174.103C195.276 173.993 195.17 173.859 195.094 173.701C195.017 173.539 194.979 173.357 194.979 173.151H195.566C195.566 173.313 195.601 173.453 195.671 173.574C195.742 173.694 195.844 173.788 195.974 173.855C196.108 173.921 196.264 173.954 196.444 173.954C196.623 173.954 196.777 173.924 196.907 173.862C197.038 173.799 197.137 173.704 197.207 173.577C197.279 173.449 197.316 173.29 197.316 173.097C197.316 172.906 197.275 172.747 197.194 172.625C197.114 172.5 197 172.408 196.853 172.349C196.707 172.287 196.535 172.257 196.336 172.257H195.918ZM199.308 173.675V174.148C199.308 174.341 199.259 174.543 199.163 174.757C199.066 174.973 198.929 175.153 198.754 175.297L198.421 175.065C198.488 174.972 198.545 174.877 198.592 174.779C198.638 174.684 198.673 174.584 198.697 174.481C198.722 174.38 198.735 174.271 198.735 174.158V173.675H199.308ZM203.015 173.891V174.373H199.996V173.951L201.507 172.267C201.693 172.059 201.836 171.883 201.938 171.739C202.042 171.594 202.113 171.463 202.153 171.349C202.196 171.233 202.217 171.114 202.217 170.994C202.217 170.841 202.185 170.704 202.122 170.581C202.06 170.457 201.97 170.357 201.849 170.283C201.729 170.209 201.583 170.172 201.413 170.172C201.207 170.172 201.036 170.212 200.899 170.292C200.764 170.371 200.662 170.481 200.595 170.622C200.527 170.764 200.493 170.927 200.493 171.111H199.907C199.907 170.851 199.964 170.613 200.078 170.397C200.193 170.182 200.361 170.011 200.585 169.883C200.809 169.754 201.085 169.69 201.413 169.69C201.703 169.69 201.953 169.742 202.16 169.845C202.366 169.947 202.525 170.091 202.635 170.277C202.747 170.461 202.803 170.677 202.803 170.924C202.803 171.059 202.78 171.197 202.733 171.336C202.689 171.474 202.627 171.611 202.546 171.749C202.468 171.886 202.376 172.022 202.271 172.155C202.167 172.288 202.056 172.419 201.938 172.548L200.702 173.891H203.015ZM204.498 171.775H204.917C205.121 171.775 205.291 171.74 205.424 171.673C205.559 171.603 205.659 171.508 205.725 171.39C205.792 171.27 205.826 171.135 205.826 170.984C205.826 170.807 205.796 170.657 205.738 170.537C205.678 170.417 205.589 170.326 205.472 170.264C205.353 170.202 205.202 170.172 205.021 170.172C204.856 170.172 204.71 170.204 204.584 170.27C204.459 170.334 204.361 170.424 204.289 170.543C204.219 170.661 204.185 170.801 204.185 170.963H203.598C203.598 170.728 203.658 170.514 203.776 170.321C203.895 170.129 204.06 169.975 204.273 169.861C204.488 169.747 204.738 169.69 205.021 169.69C205.3 169.69 205.544 169.74 205.753 169.838C205.963 169.936 206.125 170.082 206.241 170.277C206.357 170.47 206.416 170.709 206.416 170.997C206.416 171.113 206.388 171.238 206.332 171.372C206.281 171.503 206.196 171.625 206.083 171.739C205.97 171.854 205.825 171.948 205.646 172.022C205.466 172.094 205.25 172.13 204.999 172.13H204.498V171.775ZM204.498 172.257V171.905H204.999C205.292 171.905 205.535 171.939 205.728 172.009C205.92 172.079 206.071 172.172 206.181 172.288C206.292 172.405 206.371 172.533 206.416 172.673C206.462 172.81 206.485 172.948 206.485 173.085C206.485 173.301 206.448 173.493 206.374 173.659C206.302 173.826 206.199 173.968 206.066 174.084C205.936 174.201 205.782 174.289 205.605 174.348C205.427 174.407 205.234 174.437 205.024 174.437C204.824 174.437 204.634 174.408 204.457 174.35C204.282 174.294 204.126 174.212 203.991 174.103C203.856 173.993 203.751 173.859 203.674 173.701C203.598 173.539 203.56 173.357 203.56 173.151H204.147C204.147 173.313 204.181 173.453 204.252 173.574C204.323 173.694 204.425 173.788 204.555 173.855C204.689 173.921 204.844 173.954 205.024 173.954C205.203 173.954 205.358 173.924 205.487 173.862C205.618 173.799 205.718 173.704 205.787 173.577C205.86 173.449 205.895 173.29 205.895 173.097C205.895 172.906 205.856 172.747 205.775 172.625C205.695 172.5 205.581 172.408 205.433 172.349C205.288 172.287 205.115 172.257 204.917 172.257H204.498Z" fill="#343434"/>
<path d="M194.679 175.008H206.907V175.325H194.679V175.008Z" fill="#343434"/>
<path d="M191.32 137.057H191.379C191.718 137.057 191.993 137.01 192.204 136.914C192.414 136.819 192.578 136.691 192.691 136.531C192.806 136.369 192.884 136.189 192.926 135.988C192.968 135.785 192.99 135.577 192.99 135.362V134.655C192.99 134.446 192.965 134.26 192.916 134.096C192.87 133.934 192.805 133.797 192.719 133.688C192.637 133.577 192.543 133.494 192.438 133.437C192.332 133.379 192.221 133.351 192.102 133.351C191.967 133.351 191.846 133.378 191.737 133.433C191.632 133.486 191.543 133.561 191.468 133.659C191.397 133.756 191.342 133.871 191.304 134.002C191.266 134.133 191.246 134.276 191.246 134.43C191.246 134.567 191.264 134.7 191.297 134.829C191.331 134.958 191.383 135.075 191.453 135.179C191.522 135.282 191.609 135.364 191.713 135.426C191.817 135.486 191.942 135.515 192.083 135.515C192.214 135.515 192.337 135.49 192.45 135.439C192.567 135.386 192.67 135.316 192.758 135.226C192.849 135.135 192.921 135.033 192.974 134.918C193.029 134.804 193.06 134.684 193.069 134.56H193.348C193.348 134.735 193.312 134.908 193.243 135.081C193.175 135.25 193.08 135.404 192.957 135.543C192.835 135.683 192.691 135.795 192.527 135.88C192.361 135.962 192.182 136.003 191.988 136.003C191.76 136.003 191.562 135.959 191.396 135.87C191.229 135.781 191.092 135.663 190.984 135.515C190.878 135.367 190.799 135.202 190.746 135.02C190.695 134.836 190.67 134.65 190.67 134.461C190.67 134.241 190.7 134.035 190.762 133.843C190.823 133.65 190.914 133.481 191.034 133.335C191.154 133.187 191.304 133.072 191.481 132.989C191.661 132.907 191.867 132.866 192.102 132.866C192.366 132.866 192.591 132.919 192.777 133.024C192.963 133.13 193.114 133.272 193.23 133.449C193.349 133.627 193.435 133.826 193.49 134.05C193.545 134.272 193.573 134.5 193.573 134.734V134.947C193.573 135.186 193.557 135.429 193.525 135.676C193.495 135.922 193.438 136.157 193.35 136.381C193.266 136.606 193.142 136.806 192.98 136.985C192.817 137.16 192.605 137.3 192.343 137.403C192.083 137.504 191.762 137.555 191.379 137.555H191.32V137.057ZM194.982 136.85V137.324C194.982 137.516 194.933 137.719 194.837 137.932C194.74 138.149 194.603 138.329 194.428 138.473L194.095 138.241C194.162 138.148 194.219 138.053 194.266 137.955C194.313 137.86 194.347 137.76 194.371 137.657C194.396 137.555 194.409 137.447 194.409 137.333V136.85H194.982ZM198.576 136.299C198.576 136.58 198.51 136.819 198.379 137.016C198.25 137.211 198.075 137.358 197.854 137.46C197.633 137.562 197.385 137.613 197.108 137.613C196.831 137.613 196.583 137.562 196.361 137.46C196.139 137.358 195.964 137.211 195.834 137.016C195.706 136.819 195.642 136.58 195.642 136.299C195.642 136.115 195.676 135.947 195.746 135.794C195.818 135.639 195.919 135.505 196.047 135.391C196.178 135.277 196.332 135.189 196.509 135.128C196.689 135.064 196.887 135.033 197.102 135.033C197.385 135.033 197.637 135.088 197.859 135.198C198.082 135.306 198.256 135.454 198.382 135.645C198.511 135.835 198.576 136.053 198.576 136.299ZM197.987 136.286C197.987 136.115 197.949 135.963 197.875 135.832C197.802 135.699 197.698 135.595 197.565 135.521C197.432 135.448 197.277 135.41 197.102 135.41C196.922 135.41 196.768 135.448 196.637 135.521C196.507 135.595 196.407 135.699 196.335 135.832C196.264 135.963 196.228 136.115 196.228 136.286C196.228 136.464 196.263 136.616 196.332 136.743C196.404 136.868 196.505 136.964 196.637 137.031C196.77 137.097 196.927 137.13 197.108 137.13C197.29 137.13 197.447 137.097 197.578 137.031C197.709 136.964 197.809 136.868 197.878 136.743C197.95 136.616 197.987 136.464 197.987 136.286ZM198.468 134.132C198.468 134.356 198.408 134.557 198.29 134.737C198.171 134.917 198.01 135.059 197.806 135.163C197.6 135.267 197.368 135.318 197.108 135.318C196.844 135.318 196.609 135.267 196.402 135.163C196.197 135.059 196.036 134.917 195.92 134.737C195.804 134.557 195.746 134.356 195.746 134.132C195.746 133.863 195.804 133.635 195.92 133.446C196.039 133.258 196.2 133.114 196.405 133.014C196.61 132.916 196.843 132.866 197.105 132.866C197.369 132.866 197.604 132.916 197.809 133.014C198.014 133.114 198.174 133.258 198.29 133.446C198.408 133.635 198.468 133.863 198.468 134.132ZM197.882 134.142C197.882 133.987 197.849 133.85 197.783 133.732C197.718 133.613 197.627 133.52 197.511 133.453C197.395 133.382 197.26 133.348 197.105 133.348C196.951 133.348 196.816 133.38 196.699 133.446C196.586 133.51 196.496 133.6 196.43 133.719C196.367 133.837 196.335 133.978 196.335 134.142C196.335 134.3 196.367 134.438 196.43 134.556C196.496 134.676 196.587 134.768 196.703 134.833C196.82 134.899 196.955 134.931 197.108 134.931C197.263 134.931 197.397 134.899 197.511 134.833C197.627 134.768 197.718 134.676 197.783 134.556C197.849 134.438 197.882 134.3 197.882 134.142ZM202.34 137.067V137.549H199.32V137.126L200.831 135.442C201.017 135.234 201.161 135.059 201.263 134.915C201.366 134.77 201.438 134.639 201.478 134.525C201.52 134.409 201.542 134.29 201.542 134.17C201.542 134.017 201.509 133.879 201.446 133.757C201.385 133.633 201.294 133.533 201.174 133.459C201.054 133.385 200.908 133.348 200.737 133.348C200.531 133.348 200.361 133.388 200.223 133.468C200.088 133.547 199.986 133.656 199.919 133.798C199.851 133.94 199.818 134.103 199.818 134.287H199.231C199.231 134.027 199.289 133.789 199.402 133.573C199.517 133.357 199.686 133.186 199.91 133.059C200.133 132.93 200.409 132.866 200.737 132.866C201.028 132.866 201.278 132.918 201.484 133.021C201.691 133.122 201.85 133.266 201.959 133.453C202.072 133.637 202.128 133.852 202.128 134.099C202.128 134.235 202.104 134.372 202.057 134.512C202.013 134.65 201.951 134.787 201.87 134.925C201.792 135.062 201.701 135.198 201.596 135.331C201.492 135.464 201.38 135.595 201.263 135.724L200.026 137.067H202.34Z" fill="#343434"/>
<path d="M190.353 138.184H202.581V138.501H190.353V138.184Z" fill="#343434"/>
<path d="M32.4896 99.6091L32.0202 99.4878L32.2516 97.1873H34.6191V97.7299H32.7492L32.6096 98.9874C32.694 98.9386 32.8011 98.8932 32.9298 98.8509C33.0606 98.8076 33.211 98.787 33.3797 98.787C33.5938 98.787 33.7842 98.8238 33.954 98.8975C34.1227 98.97 34.2666 99.074 34.3844 99.2094C34.5045 99.3448 34.5964 99.5073 34.6602 99.6979C34.723 99.8885 34.7554 100.101 34.7554 100.336C34.7554 100.558 34.724 100.761 34.6635 100.948C34.604 101.134 34.5142 101.297 34.3942 101.436C34.273 101.574 34.1216 101.681 33.9378 101.757C33.7561 101.833 33.5419 101.872 33.2942 101.872C33.1082 101.872 32.9319 101.846 32.7654 101.795C32.601 101.742 32.4528 101.663 32.322 101.558C32.1932 101.449 32.0873 101.316 32.0051 101.157C31.925 100.996 31.8742 100.808 31.8525 100.592H32.4106C32.4355 100.766 32.4863 100.912 32.562 101.03C32.6388 101.149 32.7383 101.239 32.8605 101.3C32.9849 101.359 33.1299 101.389 33.2942 101.389C33.4338 101.389 33.5571 101.365 33.6652 101.316C33.7734 101.267 33.8642 101.198 33.9378 101.107C34.0113 101.016 34.0676 100.906 34.1054 100.777C34.1454 100.648 34.166 100.503 34.166 100.341C34.166 100.196 34.1454 100.061 34.1054 99.9351C34.0654 99.8105 34.0048 99.7022 33.9248 99.6091C33.8469 99.5159 33.7507 99.4434 33.6371 99.3935C33.5225 99.3405 33.3916 99.3134 33.2434 99.3134C33.0477 99.3134 32.8984 99.3405 32.7967 99.3935C32.6972 99.4455 32.5956 99.5181 32.4896 99.6091ZM35.9938 101.109V101.582C35.9938 101.775 35.9451 101.978 35.8489 102.191C35.7515 102.408 35.6153 102.587 35.44 102.732L35.1069 102.5C35.174 102.407 35.2313 102.311 35.2778 102.214C35.3243 102.119 35.3589 102.019 35.3827 101.916C35.4076 101.814 35.4206 101.706 35.4206 101.592V101.109H35.9938ZM39.5748 99.1293V99.8344C39.5748 100.212 39.5413 100.532 39.4731 100.792C39.4061 101.053 39.3087 101.262 39.1822 101.421C39.0546 101.579 38.9021 101.695 38.7225 101.767C38.5452 101.836 38.344 101.872 38.1201 101.872C37.9427 101.872 37.7794 101.849 37.6291 101.804C37.4787 101.76 37.3435 101.69 37.2235 101.592C37.1056 101.493 37.0039 101.364 36.9196 101.204C36.8352 101.046 36.7703 100.854 36.726 100.627C36.6816 100.401 36.66 100.137 36.66 99.8344V99.1293C36.66 98.7513 36.6936 98.434 36.7606 98.1773C36.8309 97.9217 36.9293 97.7169 37.0559 97.5621C37.1824 97.4061 37.3349 97.2935 37.5123 97.2263C37.6918 97.1581 37.8919 97.1245 38.1136 97.1245C38.2931 97.1245 38.4586 97.1462 38.6079 97.1906C38.7604 97.2328 38.8956 97.3021 39.0135 97.3975C39.1324 97.4906 39.2319 97.6152 39.3152 97.7711C39.3996 97.926 39.4634 98.1155 39.5077 98.3397C39.5521 98.5639 39.5748 98.8271 39.5748 99.1293ZM38.9853 99.9296V99.0318C38.9853 98.8239 38.9723 98.6419 38.9475 98.4859C38.9237 98.3267 38.8891 98.1914 38.8426 98.0798C38.7961 97.9672 38.7366 97.8762 38.6652 97.8068C38.596 97.7364 38.5138 97.6856 38.4208 97.6541C38.3299 97.6206 38.2282 97.6032 38.1136 97.6032C37.9741 97.6032 37.8508 97.6303 37.7426 97.6823C37.6356 97.7332 37.5447 97.8144 37.4712 97.9271C37.3987 98.0397 37.3436 98.1859 37.3057 98.3679C37.2679 98.5498 37.2484 98.7708 37.2484 99.0318V99.9296C37.2484 100.137 37.2603 100.32 37.2841 100.478C37.3089 100.637 37.3457 100.774 37.3944 100.89C37.4431 101.005 37.5026 101.099 37.5718 101.173C37.6421 101.247 37.7221 101.302 37.813 101.338C37.906 101.372 38.0087 101.389 38.1201 101.389C38.264 101.389 38.3894 101.361 38.4976 101.306C38.6046 101.251 38.6944 101.165 38.7669 101.05C38.8404 100.93 38.8956 100.78 38.9313 100.596C38.967 100.409 38.9853 100.187 38.9853 99.9296ZM42.5782 97.1819H42.6291V97.679H42.5782C42.2678 97.679 42.0083 97.73 41.7984 97.8318C41.5897 97.9314 41.4242 98.0657 41.302 98.2346C41.1787 98.4014 41.09 98.5899 41.0349 98.8C40.983 99.009 40.9559 99.2213 40.9559 99.438V100.116C40.9559 100.322 40.9808 100.504 41.0295 100.662C41.0771 100.819 41.1441 100.951 41.2285 101.059C41.3128 101.167 41.408 101.248 41.514 101.303C41.6211 101.358 41.7335 101.385 41.8493 101.385C41.9845 101.385 42.1056 101.36 42.2105 101.309C42.3165 101.256 42.4052 101.184 42.4766 101.091C42.5512 100.995 42.6074 100.883 42.6453 100.754C42.6831 100.625 42.7015 100.483 42.7015 100.329C42.7015 100.192 42.6853 100.06 42.6518 99.9329C42.6172 99.803 42.5652 99.6892 42.496 99.5896C42.4268 99.4878 42.3381 99.4087 42.2332 99.3513C42.1294 99.2928 42.0061 99.2625 41.8622 99.2625C41.7 99.2625 41.5475 99.3036 41.4058 99.3838C41.2663 99.4618 41.1517 99.5658 41.0608 99.6946C40.9721 99.8214 40.9213 99.96 40.9083 100.111L40.5979 100.107C40.6271 99.8701 40.6823 99.6676 40.7623 99.5008C40.8456 99.3318 40.9462 99.1943 41.0673 99.0881C41.1895 98.9809 41.3258 98.9018 41.4761 98.8531C41.6276 98.8033 41.7887 98.7773 41.9574 98.7773C42.1878 98.7773 42.3857 98.8206 42.5534 98.9072C42.7199 98.9939 42.8573 99.1108 42.9654 99.2571C43.0725 99.4 43.1515 99.5636 43.2023 99.7455C43.2553 99.9253 43.2823 100.111 43.2823 100.3C43.2823 100.519 43.2509 100.722 43.1904 100.913C43.1287 101.104 43.0368 101.27 42.9146 101.415C42.7934 101.559 42.6453 101.67 42.4679 101.75C42.2905 101.83 42.084 101.872 41.8493 101.872C41.6005 101.872 41.3831 101.821 41.1971 101.719C41.0111 101.615 40.8564 101.477 40.7342 101.306C40.612 101.135 40.52 100.945 40.4584 100.735C40.3978 100.525 40.3665 100.313 40.3665 100.098V99.8213C40.3665 99.4953 40.4 99.1758 40.4649 98.8628C40.5309 98.5498 40.6433 98.2661 40.8045 98.0126C40.9667 97.7592 41.1917 97.5567 41.4794 97.4072C41.766 97.2567 42.1326 97.1819 42.5782 97.1819Z" fill="#343434"/>
<path d="M31.3652 102.442H43.5932V102.76H31.3652V102.442Z" fill="#343434"/>
<path d="M208.9 73.1661V73.648H205.881V73.2256L207.393 71.5415C207.579 71.3335 207.723 71.158 207.823 71.014C207.927 70.8689 207.998 70.7378 208.039 70.6241C208.082 70.5082 208.102 70.3891 208.102 70.2689C208.102 70.1162 208.071 69.9786 208.007 69.8562C207.946 69.7317 207.856 69.632 207.734 69.5584C207.614 69.4836 207.468 69.4468 207.297 69.4468C207.093 69.4468 206.921 69.4869 206.784 69.567C206.649 69.6461 206.548 69.7555 206.48 69.8974C206.413 70.0392 206.378 70.2017 206.378 70.3858H205.792C205.792 70.1259 205.849 69.8876 205.964 69.6721C206.078 69.4566 206.246 69.2854 206.47 69.1576C206.694 69.0288 206.97 68.9648 207.297 68.9648C207.589 68.9648 207.838 69.0168 208.045 69.1197C208.252 69.2215 208.41 69.3656 208.521 69.5519C208.632 69.736 208.688 69.9515 208.688 70.1985C208.688 70.3338 208.666 70.4714 208.619 70.6111C208.575 70.7487 208.512 70.8862 208.432 71.0238C208.354 71.1613 208.262 71.2967 208.156 71.4299C208.052 71.5631 207.942 71.6942 207.823 71.8231L206.588 73.1661H208.9ZM210.124 72.9495V73.4227C210.124 73.6155 210.075 73.8181 209.979 74.0314C209.881 74.248 209.745 74.4278 209.57 74.5719L209.237 74.3401C209.304 74.247 209.361 74.1517 209.408 74.0542C209.454 73.9589 209.489 73.8592 209.513 73.7563C209.537 73.6545 209.55 73.5462 209.55 73.4325V72.9495H210.124ZM213.926 72.0927V72.5758H210.593V72.2292L212.659 69.0277H213.137L212.624 69.9548L211.258 72.0927H213.926ZM213.283 69.0277V73.648H212.697V69.0277H213.283ZM216.385 69.0028V73.648H215.798V69.736L214.617 70.1671V69.6374L216.293 69.0028H216.385Z" fill="#343434"/>
<path d="M205.494 74.2827H217.722V74.6001H205.494V74.2827Z" fill="#343434"/>
<path d="M189.464 243.257C193.751 242.788 197.087 244.196 200.195 248.412" stroke="#343434" stroke-width="0.3"/>
<path d="M200.066 248.25L199.838 248.059C199.77 248.002 199.666 248.01 199.608 248.078L189.542 259.742C189.483 259.81 189.492 259.911 189.56 259.969L189.789 260.16C189.857 260.217 189.961 260.209 190.019 260.141L200.085 248.477C200.143 248.409 200.135 248.308 200.066 248.25Z" stroke="#343434" stroke-width="0.3"/>
<path d="M162.011 216.228C161.428 220.828 163.178 224.404 168.421 227.74" stroke="#343434" stroke-width="0.3"/>
<path d="M168.228 227.652L167.925 227.339C167.862 227.275 167.87 227.179 167.942 227.126L182.533 216.261C182.604 216.207 182.713 216.216 182.776 216.281L183.079 216.593C183.142 216.658 183.134 216.753 183.062 216.807L168.471 227.671C168.399 227.725 168.29 227.716 168.228 227.652Z" stroke="#343434" stroke-width="0.3"/>
<path d="M155.6 178.513C151.007 177.958 147.436 179.621 144.104 184.602" stroke="#343434" stroke-width="0.3"/>
<path d="M144.201 184.418L144.502 184.141C144.568 184.08 144.666 184.088 144.721 184.159L155.558 198.006C155.613 198.077 155.604 198.183 155.538 198.244L155.238 198.521C155.172 198.582 155.074 198.574 155.019 198.504L144.182 184.656C144.127 184.586 144.135 184.479 144.201 184.418Z" stroke="#343434" stroke-width="0.3"/>
<path d="M187.06 181.042C183.117 181.481 180.05 180.163 177.19 176.213" stroke="#343434" stroke-width="0.3"/>
<path d="M177.335 176.372L177.508 176.52C177.577 176.578 177.679 176.57 177.737 176.502L186.964 165.611C187.022 165.543 187.014 165.44 186.945 165.382L186.772 165.234C186.704 165.176 186.601 165.184 186.543 165.253L177.316 176.143C177.258 176.211 177.267 176.314 177.335 176.372Z" stroke="#343434" stroke-width="0.3"/>
<path d="M218.705 100.798C219.168 104.747 217.78 107.819 213.621 110.681" stroke="#343434" stroke-width="0.3"/>
<path d="M213.789 110.546L213.955 110.361C214.015 110.294 214.007 110.195 213.937 110.138L202.456 100.885C202.386 100.829 202.281 100.837 202.221 100.904L202.055 101.089C201.995 101.156 202.003 101.256 202.073 101.312L213.555 110.565C213.624 110.621 213.729 110.613 213.789 110.546Z" stroke="#343434" stroke-width="0.3"/>
<path d="M231.148 142.095C235.636 142.767 239.126 140.751 242.379 134.709" stroke="#343434" stroke-width="0.3"/>
<path d="M242.316 134.928L241.983 135.309C241.924 135.377 241.837 135.37 241.789 135.294L231.157 118.428C231.109 118.352 231.118 118.236 231.177 118.169L231.51 117.787C231.569 117.72 231.655 117.726 231.703 117.802L242.336 134.668C242.384 134.744 242.375 134.86 242.316 134.928Z" stroke="#343434" stroke-width="0.3"/>
<path d="M62.2451 88.9776C66.8309 89.596 70.3978 87.7418 73.7236 82.1846" stroke="#343434" stroke-width="0.3"/>
<path d="M73.6465 82.3867L73.322 82.7213C73.2596 82.7857 73.1673 82.7783 73.1158 82.7049L62.2678 67.22C62.2163 67.1465 62.2252 67.0348 62.2876 66.9705L62.6121 66.6358C62.6745 66.5715 62.7668 66.5788 62.8183 66.6523L73.6663 82.1372C73.7178 82.2106 73.7089 82.3224 73.6465 82.3867Z" stroke="#343434" stroke-width="0.3"/>
<path d="M28.0201 63.2476C27.4966 58.6543 29.0659 55.0824 33.7663 51.752" stroke="#343434" stroke-width="0.3"/>
<path d="M33.5919 51.8587L33.341 52.1466C33.2821 52.2142 33.2903 52.3154 33.3593 52.3727L46.4093 63.1946C46.4783 63.2519 46.582 63.2435 46.6409 63.1758L46.8918 62.8879C46.9507 62.8203 46.9425 62.7191 46.8735 62.6618L33.8235 51.8399C33.7545 51.7826 33.6508 51.7911 33.5919 51.8587Z" stroke="#343434" stroke-width="0.3"/>
<path d="M107.074 94.2261H84.3613V126.718H107.074V94.2261Z" fill="white" fill-opacity="0.5"/>
<path d="M91.3451 109.39H92.0427C92.3833 109.39 92.6656 109.334 92.8873 109.221C93.1123 109.104 93.2799 108.947 93.3892 108.75C93.5017 108.55 93.5579 108.323 93.5579 108.073C93.5579 107.777 93.5082 107.528 93.4097 107.328C93.3113 107.126 93.1631 106.975 92.9663 106.873C92.7695 106.77 92.5196 106.719 92.2168 106.719C91.9421 106.719 91.6987 106.774 91.4878 106.884C91.2802 106.989 91.1158 107.14 90.9968 107.338C90.88 107.536 90.8227 107.769 90.8227 108.036H89.845C89.845 107.645 89.9434 107.289 90.1413 106.968C90.3381 106.647 90.615 106.391 90.9698 106.201C91.3288 106.011 91.7442 105.916 92.2168 105.916C92.6808 105.916 93.0874 105.998 93.4368 106.164C93.785 106.326 94.0565 106.57 94.2501 106.894C94.4437 107.215 94.54 107.615 94.54 108.095C94.54 108.289 94.4945 108.496 94.4026 108.719C94.315 108.937 94.1755 109.141 93.9851 109.332C93.7991 109.522 93.5558 109.679 93.2572 109.803C92.9577 109.923 92.5986 109.982 92.18 109.982H91.3451V109.39ZM91.3451 110.194V109.607H92.18C92.6689 109.607 93.0734 109.665 93.3946 109.781C93.7147 109.898 93.9667 110.053 94.1495 110.247C94.3355 110.441 94.4664 110.654 94.54 110.887C94.6178 111.115 94.6568 111.345 94.6568 111.575C94.6568 111.934 94.5951 112.253 94.4718 112.531C94.3518 112.81 94.1809 113.046 93.9592 113.24C93.7407 113.434 93.4844 113.58 93.188 113.679C92.8928 113.777 92.5705 113.827 92.2222 113.827C91.8869 113.827 91.5722 113.78 91.2769 113.684C90.9838 113.589 90.7253 113.451 90.5004 113.272C90.2743 113.089 90.0991 112.864 89.9726 112.6C89.845 112.332 89.7822 112.027 89.7822 111.685H90.7589C90.7589 111.954 90.8173 112.188 90.933 112.389C91.053 112.589 91.2218 112.746 91.4403 112.859C91.662 112.968 91.9226 113.023 92.2222 113.023C92.5207 113.023 92.7781 112.972 92.9923 112.87C93.2107 112.764 93.3784 112.606 93.4941 112.393C93.6141 112.182 93.6736 111.916 93.6736 111.595C93.6736 111.275 93.6076 111.011 93.4735 110.808C93.3394 110.6 93.1491 110.446 92.9025 110.347C92.6602 110.245 92.3736 110.194 92.0427 110.194H91.3451ZM97.2752 106.022V113.721H96.2563V106.022H97.2752ZM101.917 106.022L98.7223 109.612L96.9269 111.479L96.7582 110.39L98.1101 108.898L100.693 106.022H101.917ZM100.935 113.721L98.0885 109.966L98.6963 109.157L102.15 113.721H100.935Z" fill="#343434"/>
<path d="M107.074 94.2261H134.113V105.057H107.074V94.2261Z" fill="white" fill-opacity="0.5"/>
<path d="M113.82 100.794V101.277H110.486V100.93L112.552 97.7288H113.031L112.517 98.6559L111.153 100.794H113.82ZM113.177 97.7288V102.349H112.591V97.7288H113.177ZM117.508 99.6708V100.376C117.508 100.754 117.474 101.073 117.406 101.333C117.339 101.594 117.242 101.803 117.115 101.963C116.989 102.121 116.835 102.237 116.655 102.308C116.478 102.377 116.278 102.413 116.054 102.413C115.876 102.413 115.712 102.39 115.562 102.346C115.413 102.302 115.278 102.231 115.156 102.134C115.039 102.034 114.937 101.905 114.853 101.746C114.768 101.588 114.703 101.395 114.659 101.169C114.615 100.942 114.593 100.678 114.593 100.376V99.6708C114.593 99.2928 114.626 98.9755 114.695 98.7188C114.764 98.4632 114.862 98.2584 114.989 98.1036C115.115 97.9476 115.268 97.835 115.445 97.7678C115.625 97.6996 115.826 97.666 116.048 97.666C116.227 97.666 116.392 97.6877 116.542 97.7321C116.693 97.7743 116.829 97.8437 116.947 97.939C117.065 98.0321 117.166 98.1567 117.248 98.3126C117.333 98.4675 117.397 98.657 117.442 98.8812C117.486 99.1054 117.508 99.3686 117.508 99.6708ZM116.918 100.471V99.5733C116.918 99.3654 116.906 99.1834 116.88 99.0274C116.858 98.8682 116.822 98.7329 116.776 98.6213C116.73 98.5087 116.671 98.4177 116.598 98.3484C116.529 98.278 116.448 98.2271 116.355 98.1956C116.264 98.1621 116.161 98.1447 116.048 98.1447C115.908 98.1447 115.784 98.1718 115.677 98.2238C115.569 98.2747 115.478 98.3559 115.404 98.4686C115.333 98.5812 115.278 98.7274 115.24 98.9094C115.201 99.0913 115.182 99.3123 115.182 99.5733V100.471C115.182 100.678 115.194 100.861 115.217 101.019C115.243 101.178 115.28 101.316 115.328 101.432C115.377 101.547 115.435 101.641 115.506 101.715C115.575 101.788 115.655 101.843 115.746 101.879C115.839 101.914 115.942 101.93 116.054 101.93C116.197 101.93 116.323 101.903 116.431 101.848C116.539 101.792 116.628 101.707 116.7 101.591C116.774 101.472 116.829 101.321 116.865 101.137C116.901 100.951 116.918 100.729 116.918 100.471ZM119.117 101.651V102.124C119.117 102.317 119.068 102.519 118.972 102.733C118.875 102.949 118.739 103.129 118.563 103.273L118.23 103.041C118.297 102.948 118.355 102.853 118.401 102.755C118.448 102.66 118.482 102.56 118.506 102.458C118.531 102.356 118.544 102.247 118.544 102.134V101.651H119.117ZM120.917 99.7509H121.335C121.54 99.7509 121.71 99.7163 121.843 99.6491C121.978 99.5787 122.077 99.4845 122.143 99.3664C122.21 99.2462 122.245 99.1108 122.245 98.9603C122.245 98.7827 122.215 98.6332 122.156 98.513C122.097 98.3928 122.008 98.3018 121.89 98.24C121.771 98.1783 121.621 98.148 121.44 98.148C121.275 98.148 121.129 98.1805 121.002 98.2466C120.878 98.3105 120.779 98.4003 120.708 98.5195C120.638 98.6375 120.603 98.7773 120.603 98.9386H120.017C120.017 98.7036 120.076 98.4902 120.194 98.2975C120.313 98.1047 120.479 97.9509 120.692 97.8372C120.907 97.7234 121.157 97.666 121.44 97.666C121.718 97.666 121.963 97.7158 122.171 97.8144C122.381 97.9119 122.543 98.0581 122.659 98.253C122.776 98.4458 122.834 98.6852 122.834 98.9733C122.834 99.0892 122.806 99.2137 122.751 99.348C122.699 99.4791 122.615 99.6015 122.501 99.7152C122.389 99.83 122.244 99.9242 122.064 99.9979C121.885 100.07 121.668 100.106 121.417 100.106H120.917V99.7509ZM120.917 100.233V99.8809H121.417C121.711 99.8809 121.954 99.9155 122.146 99.9848C122.339 100.055 122.489 100.148 122.6 100.264C122.711 100.381 122.79 100.509 122.834 100.649C122.881 100.786 122.904 100.924 122.904 101.061C122.904 101.277 122.867 101.469 122.792 101.635C122.721 101.802 122.618 101.944 122.485 102.06C122.354 102.177 122.201 102.265 122.023 102.324C121.846 102.383 121.652 102.413 121.442 102.413C121.242 102.413 121.053 102.384 120.876 102.326C120.7 102.27 120.545 102.188 120.409 102.08C120.274 101.969 120.169 101.835 120.093 101.677C120.017 101.515 119.979 101.333 119.979 101.128H120.565C120.565 101.289 120.6 101.429 120.67 101.55C120.742 101.67 120.843 101.764 120.974 101.831C121.107 101.898 121.263 101.93 121.442 101.93C121.622 101.93 121.777 101.9 121.905 101.838C122.036 101.775 122.137 101.68 122.206 101.553C122.278 101.425 122.314 101.266 122.314 101.073C122.314 100.882 122.274 100.724 122.194 100.601C122.114 100.477 121.999 100.385 121.851 100.325C121.706 100.263 121.533 100.233 121.335 100.233H120.917ZM127.089 100.794V101.277H123.756V100.93L125.822 97.7288H126.3L125.787 98.6559L124.421 100.794H127.089ZM126.446 97.7288V102.349H125.859V97.7288H126.446Z" fill="#343434"/>
<path d="M134.113 104.84H107.074V105.274H134.113V104.84Z" fill="#343434"/>
<path d="M134.113 105.057H107.074V115.887H134.113V105.057Z" fill="white" fill-opacity="0.5"/>
<path d="M112.952 108.554H113.002V109.051H112.952C112.64 109.051 112.381 109.102 112.172 109.204C111.963 109.303 111.797 109.438 111.675 109.607C111.552 109.774 111.464 109.962 111.409 110.172C111.356 110.381 111.33 110.593 111.33 110.81V111.488C111.33 111.694 111.353 111.876 111.402 112.034C111.451 112.191 111.517 112.323 111.602 112.431C111.687 112.539 111.782 112.62 111.887 112.675C111.995 112.73 112.106 112.757 112.223 112.757C112.358 112.757 112.478 112.732 112.584 112.682C112.689 112.628 112.778 112.556 112.85 112.463C112.924 112.367 112.98 112.255 113.018 112.126C113.056 111.997 113.075 111.855 113.075 111.701C113.075 111.564 113.058 111.432 113.024 111.305C112.991 111.175 112.939 111.061 112.869 110.962C112.799 110.86 112.712 110.781 112.606 110.723C112.503 110.665 112.379 110.635 112.235 110.635C112.073 110.635 111.92 110.676 111.78 110.756C111.64 110.834 111.524 110.938 111.433 111.067C111.345 111.193 111.294 111.332 111.282 111.483L110.972 111.479C111.001 111.242 111.056 111.04 111.136 110.873C111.218 110.704 111.32 110.566 111.44 110.46C111.562 110.353 111.698 110.274 111.849 110.225C112.001 110.175 112.161 110.149 112.33 110.149C112.56 110.149 112.759 110.193 112.926 110.279C113.093 110.366 113.23 110.483 113.338 110.629C113.446 110.772 113.525 110.936 113.576 111.118C113.629 111.297 113.655 111.483 113.655 111.672C113.655 111.891 113.625 112.095 113.563 112.285C113.501 112.476 113.409 112.643 113.287 112.787C113.167 112.931 113.018 113.042 112.841 113.122C112.663 113.202 112.458 113.244 112.223 113.244C111.973 113.244 111.756 113.193 111.57 113.091C111.384 112.987 111.23 112.849 111.107 112.678C110.985 112.507 110.893 112.317 110.832 112.108C110.771 111.897 110.74 111.685 110.74 111.47V111.193C110.74 110.867 110.773 110.548 110.838 110.235C110.904 109.922 111.017 109.638 111.177 109.385C111.339 109.131 111.564 108.929 111.852 108.779C112.14 108.629 112.505 108.554 112.952 108.554ZM117.729 111.624V112.108H114.396V111.761L116.462 108.559H116.941L116.427 109.487L115.062 111.624H117.729ZM117.087 108.559V113.18H116.501V108.559H117.087ZM119.117 112.481V112.954C119.117 113.147 119.068 113.35 118.972 113.563C118.875 113.78 118.738 113.96 118.563 114.104L118.23 113.872C118.297 113.779 118.354 113.683 118.401 113.586C118.447 113.491 118.482 113.391 118.506 113.288C118.531 113.186 118.544 113.078 118.544 112.964V112.481H119.117ZM122.97 111.93C122.97 112.21 122.904 112.45 122.773 112.647C122.645 112.842 122.47 112.989 122.248 113.091C122.027 113.193 121.78 113.244 121.503 113.244C121.226 113.244 120.977 113.193 120.755 113.091C120.534 112.989 120.358 112.842 120.229 112.647C120.1 112.45 120.036 112.21 120.036 111.93C120.036 111.746 120.071 111.578 120.14 111.425C120.212 111.27 120.313 111.136 120.442 111.022C120.573 110.907 120.726 110.82 120.903 110.759C121.083 110.695 121.281 110.664 121.496 110.664C121.78 110.664 122.032 110.719 122.253 110.828C122.476 110.937 122.65 111.085 122.777 111.276C122.905 111.466 122.97 111.684 122.97 111.93ZM122.381 111.917C122.381 111.746 122.343 111.594 122.269 111.463C122.196 111.33 122.092 111.226 121.959 111.152C121.826 111.079 121.671 111.041 121.496 111.041C121.317 111.041 121.162 111.079 121.031 111.152C120.901 111.226 120.802 111.33 120.729 111.463C120.658 111.594 120.622 111.746 120.622 111.917C120.622 112.095 120.657 112.247 120.726 112.374C120.799 112.499 120.899 112.595 121.031 112.662C121.164 112.728 121.321 112.761 121.503 112.761C121.684 112.761 121.841 112.728 121.972 112.662C122.103 112.595 122.204 112.499 122.273 112.374C122.344 112.247 122.381 112.095 122.381 111.917ZM122.862 109.763C122.862 109.987 122.803 110.188 122.685 110.368C122.566 110.548 122.405 110.69 122.2 110.794C121.995 110.898 121.762 110.949 121.503 110.949C121.239 110.949 121.003 110.898 120.796 110.794C120.591 110.69 120.431 110.548 120.314 110.368C120.198 110.188 120.14 109.987 120.14 109.763C120.14 109.494 120.198 109.266 120.314 109.077C120.433 108.889 120.594 108.745 120.8 108.645C121.004 108.546 121.238 108.497 121.499 108.497C121.763 108.497 121.998 108.546 122.204 108.645C122.408 108.745 122.568 108.889 122.685 109.077C122.803 109.266 122.862 109.494 122.862 109.763ZM122.276 109.772C122.276 109.618 122.244 109.481 122.178 109.363C122.113 109.244 122.022 109.151 121.905 109.084C121.789 109.013 121.654 108.979 121.499 108.979C121.346 108.979 121.211 109.011 121.094 109.077C120.98 109.141 120.891 109.231 120.825 109.35C120.762 109.468 120.729 109.609 120.729 109.772C120.729 109.931 120.762 110.069 120.825 110.187C120.891 110.306 120.981 110.398 121.097 110.463C121.214 110.53 121.349 110.562 121.503 110.562C121.657 110.562 121.791 110.53 121.905 110.463C122.022 110.398 122.113 110.306 122.178 110.187C122.244 110.069 122.276 109.931 122.276 109.772ZM124.554 112.688H124.614C124.952 112.688 125.226 112.64 125.438 112.545C125.649 112.45 125.812 112.322 125.926 112.162C126.04 112 126.118 111.819 126.161 111.619C126.203 111.415 126.224 111.207 126.224 110.993V110.286C126.224 110.077 126.2 109.891 126.151 109.727C126.105 109.565 126.039 109.428 125.954 109.319C125.872 109.208 125.778 109.125 125.672 109.067C125.567 109.01 125.455 108.982 125.337 108.982C125.202 108.982 125.079 109.009 124.972 109.064C124.866 109.117 124.776 109.192 124.703 109.289C124.63 109.387 124.576 109.502 124.539 109.633C124.5 109.764 124.481 109.907 124.481 110.061C124.481 110.198 124.497 110.331 124.532 110.46C124.566 110.589 124.618 110.706 124.687 110.81C124.757 110.913 124.844 110.995 124.946 111.057C125.052 111.117 125.176 111.146 125.317 111.146C125.448 111.146 125.571 111.121 125.685 111.07C125.801 111.017 125.903 110.946 125.992 110.857C126.083 110.766 126.155 110.664 126.207 110.549C126.263 110.435 126.295 110.315 126.303 110.19H126.582C126.582 110.366 126.547 110.539 126.477 110.711C126.41 110.88 126.314 111.035 126.192 111.174C126.07 111.314 125.926 111.426 125.761 111.511C125.596 111.593 125.417 111.634 125.222 111.634C124.994 111.634 124.797 111.59 124.629 111.501C124.463 111.412 124.325 111.294 124.218 111.146C124.112 110.997 124.033 110.833 123.98 110.651C123.93 110.467 123.905 110.28 123.905 110.092C123.905 109.872 123.935 109.666 123.997 109.474C124.057 109.281 124.148 109.112 124.268 108.966C124.389 108.818 124.539 108.702 124.716 108.62C124.895 108.538 125.102 108.497 125.337 108.497C125.601 108.497 125.826 108.55 126.012 108.655C126.198 108.761 126.348 108.903 126.465 109.08C126.583 109.258 126.669 109.457 126.724 109.68C126.78 109.902 126.807 110.131 126.807 110.365V110.578C126.807 110.817 126.791 111.06 126.759 111.307C126.73 111.553 126.671 111.788 126.585 112.012C126.501 112.236 126.377 112.437 126.214 112.615C126.052 112.791 125.84 112.931 125.577 113.034C125.317 113.135 124.996 113.186 124.614 113.186H124.554V112.688Z" fill="#343434"/>
<path d="M107.074 115.888H134.113V126.718H107.074V115.888Z" fill="white" fill-opacity="0.5"/>
<path d="M112.974 119.362H113.069V119.987H113.015C112.743 119.987 112.507 120.029 112.309 120.114C112.112 120.198 111.951 120.315 111.825 120.464C111.697 120.611 111.603 120.784 111.539 120.984C111.477 121.181 111.447 121.39 111.447 121.612V122.339C111.447 122.523 111.468 122.685 111.508 122.827C111.548 122.967 111.604 123.085 111.675 123.179C111.749 123.272 111.833 123.344 111.928 123.392C112.024 123.441 112.126 123.465 112.236 123.465C112.35 123.465 112.454 123.442 112.547 123.396C112.64 123.347 112.719 123.28 112.784 123.195C112.85 123.111 112.9 123.01 112.933 122.894C112.967 122.777 112.984 122.65 112.984 122.513C112.984 122.382 112.967 122.26 112.933 122.145C112.902 122.029 112.854 121.927 112.79 121.84C112.728 121.752 112.648 121.683 112.553 121.635C112.459 121.584 112.352 121.558 112.23 121.558C112.078 121.558 111.939 121.594 111.815 121.666C111.693 121.737 111.593 121.832 111.516 121.949C111.443 122.062 111.403 122.184 111.396 122.314L111.105 122.218C111.122 122.021 111.165 121.845 111.235 121.688C111.307 121.532 111.401 121.398 111.516 121.288C111.633 121.179 111.767 121.095 111.919 121.038C112.073 120.978 112.242 120.949 112.426 120.949C112.65 120.949 112.845 120.991 113.009 121.076C113.174 121.16 113.311 121.276 113.418 121.421C113.528 121.565 113.609 121.731 113.662 121.916C113.717 122.1 113.744 122.293 113.744 122.495C113.744 122.717 113.711 122.923 113.643 123.116C113.576 123.307 113.476 123.474 113.345 123.618C113.217 123.762 113.059 123.873 112.873 123.953C112.689 124.034 112.48 124.075 112.245 124.075C111.999 124.075 111.778 124.027 111.583 123.932C111.391 123.836 111.228 123.705 111.092 123.537C110.959 123.371 110.858 123.178 110.788 122.96C110.718 122.743 110.684 122.512 110.684 122.269V121.952C110.684 121.6 110.728 121.27 110.817 120.959C110.905 120.646 111.042 120.37 111.225 120.13C111.411 119.891 111.648 119.703 111.938 119.568C112.228 119.431 112.573 119.362 112.974 119.362ZM116.922 119.362H117.017V119.987H116.963C116.69 119.987 116.456 120.029 116.257 120.114C116.06 120.198 115.899 120.315 115.772 120.464C115.646 120.611 115.551 120.784 115.487 120.984C115.425 121.181 115.395 121.39 115.395 121.612V122.339C115.395 122.523 115.415 122.685 115.455 122.827C115.495 122.967 115.552 123.085 115.623 123.179C115.697 123.272 115.782 123.344 115.876 123.392C115.971 123.441 116.074 123.465 116.184 123.465C116.298 123.465 116.402 123.442 116.495 123.396C116.588 123.347 116.667 123.28 116.732 123.195C116.798 123.111 116.847 123.01 116.881 122.894C116.914 122.777 116.932 122.65 116.932 122.513C116.932 122.382 116.914 122.26 116.881 122.145C116.849 122.029 116.802 121.927 116.738 121.84C116.675 121.752 116.595 121.683 116.501 121.635C116.408 121.584 116.3 121.558 116.178 121.558C116.025 121.558 115.887 121.594 115.763 121.666C115.64 121.737 115.541 121.832 115.465 121.949C115.39 122.062 115.35 122.184 115.344 122.314L115.053 122.218C115.069 122.021 115.113 121.845 115.183 121.688C115.254 121.532 115.348 121.398 115.465 121.288C115.581 121.179 115.715 121.095 115.867 121.038C116.021 120.978 116.19 120.949 116.374 120.949C116.597 120.949 116.792 120.991 116.957 121.076C117.122 121.16 117.258 121.276 117.365 121.421C117.476 121.565 117.557 121.731 117.61 121.916C117.665 122.1 117.692 122.293 117.692 122.495C117.692 122.717 117.658 122.923 117.59 123.116C117.523 123.307 117.424 123.474 117.293 123.618C117.164 123.762 117.006 123.873 116.82 123.953C116.637 124.034 116.428 124.075 116.193 124.075C115.946 124.075 115.726 124.027 115.531 123.932C115.339 123.836 115.175 123.705 115.04 123.537C114.907 123.371 114.805 123.178 114.736 122.96C114.666 122.743 114.631 122.512 114.631 122.269V121.952C114.631 121.6 114.676 121.27 114.764 120.959C114.853 120.646 114.989 120.37 115.173 120.13C115.359 119.891 115.597 119.703 115.886 119.568C116.176 119.431 116.521 119.362 116.922 119.362ZM119.324 123.274L119.321 123.82C119.321 124.036 119.267 124.259 119.159 124.486C119.052 124.715 118.909 124.903 118.731 125.052L118.323 124.813C118.382 124.718 118.435 124.622 118.484 124.525C118.532 124.428 118.571 124.324 118.602 124.214C118.631 124.104 118.646 123.983 118.646 123.849V123.274H119.324ZM123.452 122.363V122.973H120.125L120.1 122.513L122.09 119.39H122.702L122.039 120.527L120.896 122.363H123.452ZM122.876 119.39V124.011H122.112V119.39H122.876ZM126.307 119.375V124.011H125.543V120.283L124.412 120.666V120.035L126.215 119.375H126.307Z" fill="#343434"/>
<path d="M107.074 115.996H134.113V115.779H107.074V115.996Z" fill="#343434"/>
<path d="M107.29 126.718V94.2261H106.857V126.718H107.29Z" fill="#343434"/>
<path d="M134.112 94.2261H84.3613V126.718H134.112V94.2261Z" stroke="#343434" stroke-width="0.4"/>
</g>
</svg>
