<svg width="52" height="53" viewBox="0 0 52 53" fill="none" xmlns="http://www.w3.org/2000/svg">
<g clip-path="url(#clip0_3983_46738)">
<path fill-rule="evenodd" clip-rule="evenodd" d="M-0.000976562 26.5004C-0.000976562 12.1933 11.6535 0.520508 25.9907 0.520508C40.3279 0.520508 51.9943 12.2074 51.9943 26.5099C51.9943 40.8123 40.3279 52.4993 25.9907 52.4993H22.5539L22.8121 52.2948C9.97603 50.7147 -0.000976562 39.73 -0.000976562 26.5004ZM26.6614 50.1023C39.3379 49.745 49.5836 39.291 49.5836 26.5099C49.5836 13.5041 38.9745 2.90797 25.9907 2.90797C13.0069 2.90797 2.4097 13.4899 2.4097 26.5004C2.4097 39.5107 13.021 50.1023 26.0026 50.1023H26.6614Z" fill="white"/>
<path fill-rule="evenodd" clip-rule="evenodd" d="M40.6714 37.4195L46.2748 37.4786L26.007 3.78955V12.8553L40.6714 37.4195ZM11.3427 37.4195L5.73926 37.4786L26.007 3.78955V12.8553L11.3427 37.4195Z" fill="white"/>
<path d="M22.4616 31.1312H21.7129V26.3161C21.4958 26.5171 21.2557 26.6922 20.9976 26.838C20.7441 26.9914 20.4776 27.1225 20.2012 27.23V26.5003C20.6051 26.3128 20.9781 26.066 21.3076 25.7682C21.5824 25.5422 21.8093 25.2645 21.9752 24.9512H22.4521L22.4616 31.1312Z" fill="white"/>
<path d="M26.5982 31.1312H25.8471V26.3161C25.6307 26.5178 25.3905 26.693 25.1318 26.838C24.8778 26.9919 24.6105 27.1231 24.333 27.23V26.5003C24.7384 26.3141 25.1123 26.0672 25.4418 25.7682C25.7179 25.5429 25.9457 25.2651 26.1118 24.9512H26.5887L26.5982 31.1312Z" fill="white"/>
<path d="M32.5071 30.4087V31.1313H28.4368C28.4288 30.9516 28.4589 30.7722 28.525 30.6047C28.6409 30.304 28.8105 30.0264 29.0258 29.7852C29.3298 29.4515 29.6599 29.142 30.0129 28.8595C30.5119 28.4772 30.9669 28.0416 31.3697 27.5607C31.5823 27.3018 31.7059 26.9825 31.7226 26.6492C31.724 26.5082 31.6967 26.3683 31.6422 26.2381C31.5877 26.1078 31.5072 25.9898 31.4054 25.8911C31.1744 25.6839 30.8705 25.5745 30.559 25.5865C30.3991 25.5786 30.2392 25.6035 30.0895 25.6595C29.9397 25.7156 29.8033 25.8017 29.6886 25.9124C29.575 26.032 29.487 26.1732 29.43 26.3274C29.373 26.4816 29.3483 26.6457 29.3572 26.8097L28.5799 26.7365C28.5975 26.2341 28.8132 25.7585 29.1808 25.4117C29.5731 25.0915 30.0729 24.9296 30.5804 24.9583C30.8347 24.9447 31.0893 24.9813 31.3292 25.066C31.5691 25.1508 31.7895 25.2819 31.9777 25.4519C32.1468 25.6064 32.2808 25.7947 32.3708 26.0044C32.4608 26.2141 32.5048 26.4403 32.4999 26.6681C32.4971 26.9175 32.4444 27.1639 32.3449 27.393C32.2192 27.668 32.0502 27.9215 31.8442 28.144C31.4788 28.5275 31.0902 28.8887 30.6806 29.2255C30.2275 29.6105 29.9366 29.8679 29.8103 30.0025C29.6886 30.1273 29.5792 30.2633 29.4836 30.4087H32.5071Z" fill="white"/>
<path fill-rule="evenodd" clip-rule="evenodd" d="M21.8652 24.7715H22.6326L22.6427 31.3105H21.5313V26.7023C21.3907 26.8085 21.2431 26.9054 21.0893 26.9923C20.8276 27.1506 20.5524 27.2859 20.267 27.3969L20.0195 27.493V26.386L20.1238 26.3376C20.5112 26.1578 20.869 25.921 21.185 25.6355L21.1881 25.6326L21.1913 25.63C21.4478 25.4191 21.6595 25.16 21.8143 24.8676L21.8652 24.7715ZM22.082 25.1304C21.9115 25.4243 21.6895 25.6861 21.4262 25.9034C21.1125 26.1863 20.7611 26.4249 20.382 26.6126V26.9587C20.5608 26.8778 20.7347 26.7863 20.9027 26.6846L20.905 26.6832L20.9074 26.6819C21.1533 26.543 21.382 26.3762 21.5887 26.1848L21.8937 25.9025V30.9515H22.2797L22.2707 25.1304H22.082Z" fill="white"/>
<path fill-rule="evenodd" clip-rule="evenodd" d="M26.0018 24.7715H26.7692L26.7793 31.3105H25.6655V26.7032C25.525 26.8093 25.3773 26.906 25.2233 26.9925C24.961 27.1513 24.6849 27.2867 24.3983 27.3971L24.1514 27.4922V26.3855L24.2563 26.3373C24.6448 26.1589 25.0032 25.9222 25.3189 25.6357L25.3224 25.6325L25.3261 25.6295C25.5836 25.4194 25.796 25.1603 25.9509 24.8677L26.0018 24.7715ZM26.2186 25.1304C26.0478 25.4249 25.8249 25.6868 25.5603 25.9035C25.2466 26.1876 24.8943 26.4264 24.5138 26.6131V26.9595C24.6936 26.8786 24.8682 26.7869 25.0368 26.6847L25.0394 26.6831L25.0421 26.6816C25.2882 26.5437 25.5166 26.377 25.7225 26.1852L26.0279 25.9006V30.9515H26.4163L26.4073 25.1304H26.2186Z" fill="white"/>
<path fill-rule="evenodd" clip-rule="evenodd" d="M29.3006 25.5459C29.0115 25.8208 28.8269 26.184 28.7747 26.5744L29.1801 26.6126C29.1914 26.4943 29.218 26.3777 29.2594 26.2655C29.3248 26.0885 29.4258 25.9264 29.5563 25.7891L29.5589 25.7863L29.5617 25.7837C29.6942 25.6557 29.8519 25.5563 30.025 25.4914C30.1955 25.4276 30.3774 25.3987 30.5595 25.4067C30.9156 25.395 31.2624 25.5209 31.5267 25.7579L31.5293 25.7602L31.5318 25.7627C31.651 25.8783 31.7453 26.0165 31.8092 26.1692C31.873 26.3218 31.9051 26.4856 31.9034 26.6508L31.9033 26.6543L31.9031 26.6578C31.8845 27.0293 31.7468 27.3852 31.5099 27.6737L31.5088 27.6751C31.0979 28.1656 30.6339 28.61 30.1249 29.0001C29.7801 29.2761 29.4576 29.5786 29.1605 29.9046C28.96 30.1294 28.8019 30.3882 28.6939 30.6684L28.6934 30.6698C28.6575 30.7605 28.634 30.8553 28.6232 30.9516H32.3254V30.5879H29.1487L29.3313 30.3104C29.433 30.156 29.5491 30.0115 29.6783 29.8788C29.8137 29.7349 30.1131 29.4707 30.5622 29.0891L30.5644 29.0872C30.968 28.7553 31.351 28.3994 31.7111 28.0215C31.9034 27.8137 32.0612 27.5771 32.1787 27.3204C32.2683 27.1134 32.3157 26.891 32.3183 26.6658L32.3183 26.664C32.3227 26.4616 32.2836 26.2607 32.2036 26.0744C32.1237 25.8883 32.0048 25.7211 31.8548 25.5839C31.6844 25.4302 31.4849 25.3115 31.2679 25.2349C31.0506 25.1581 30.8201 25.125 30.5898 25.1373L30.5797 25.1379L30.5697 25.1373C30.1098 25.1113 29.657 25.2572 29.3006 25.5459ZM30.5803 24.7784C30.0307 24.7498 29.49 24.9262 29.0651 25.273L29.06 25.2771L29.0553 25.2816C28.6535 25.6608 28.4177 26.1807 28.3983 26.7301L28.3924 26.899L29.5491 27.0079L29.5377 26.7999C29.5301 26.6601 29.5512 26.5203 29.5998 26.3888C29.6479 26.2586 29.7219 26.1393 29.8175 26.038C29.9137 25.9458 30.0279 25.8741 30.1532 25.8272C30.2796 25.7799 30.4145 25.7589 30.5495 25.7655L30.5575 25.7659L30.5656 25.7656C30.8286 25.7555 31.0851 25.8474 31.2807 26.0216C31.3638 26.1028 31.4296 26.1997 31.4743 26.3066C31.519 26.4134 31.5417 26.528 31.541 26.6436C31.5255 26.9372 31.4163 27.2184 31.2292 27.4466C30.8351 27.9171 30.3899 28.3433 29.9016 28.7173L29.9001 28.7185L29.8986 28.7197C29.5382 29.0081 29.2012 29.3241 28.8908 29.6648L28.8896 29.6661C28.6601 29.9233 28.4792 30.2192 28.3556 30.5398C28.2804 30.7304 28.2462 30.9345 28.2553 31.139L28.263 31.3105H32.6879V30.229H29.846C29.8765 30.1941 29.9079 30.1601 29.9402 30.1269L29.9425 30.1245C30.0603 29.999 30.342 29.7491 30.797 29.3625C31.2119 29.0213 31.6055 28.6554 31.9756 28.2669L31.9773 28.2651C32.1963 28.0286 32.376 27.7592 32.5096 27.4668L32.5103 27.4653L32.511 27.4637C32.6198 27.2131 32.6775 26.9436 32.6807 26.6707C32.686 26.4179 32.6371 26.1667 32.5371 25.9339C32.4371 25.7009 32.2881 25.4915 32.1002 25.3198L32.0994 25.3191C31.8934 25.1331 31.6522 24.9895 31.3896 24.8968C31.1302 24.8051 30.8553 24.7649 30.5803 24.7784Z" fill="white"/>
<path d="M18.7054 36.8981V32.8328H16.8855C16.5196 32.8328 16.2415 32.8698 16.0511 32.9438C15.8607 33.0158 15.7085 33.1443 15.5947 33.3292C15.4808 33.5141 15.4239 33.7183 15.4239 33.942C15.4239 34.2304 15.5182 34.4735 15.7067 34.6713C15.8952 34.8691 16.1864 34.9948 16.5803 35.0485C16.4365 35.1169 16.3273 35.1843 16.2527 35.2509C16.094 35.3951 15.9437 35.5753 15.8019 35.7916L15.0879 36.8981H15.7711L16.3143 36.0523C16.4729 35.8083 16.6036 35.6215 16.7063 35.4921C16.8089 35.3627 16.9004 35.2721 16.9807 35.2204C17.0628 35.1686 17.1459 35.1326 17.2299 35.1122C17.2915 35.0993 17.3923 35.0928 17.5323 35.0928H18.1622V36.8981H18.7054ZM18.1622 34.627H16.9947C16.7464 34.627 16.5523 34.602 16.4123 34.5521C16.2723 34.5003 16.1659 34.419 16.0931 34.3081C16.0203 34.1953 15.9839 34.0733 15.9839 33.942C15.9839 33.7498 16.0539 33.5917 16.1939 33.4678C16.3357 33.344 16.5588 33.2821 16.8631 33.2821H18.1622V34.627Z" fill="white"/>
<path d="M19.6121 32.8124H20.158V34.6016C20.4075 34.6016 20.5829 34.5542 20.6843 34.4595C20.7856 34.3628 20.915 34.1324 21.0726 33.7683C21.187 33.5007 21.2808 33.3121 21.354 33.2025C21.429 33.091 21.535 32.9981 21.672 32.9238C21.8089 32.8477 21.96 32.8096 22.1251 32.8096C22.3352 32.8096 22.4459 32.8114 22.4571 32.8151V33.2833C22.4384 33.2833 22.4018 33.2824 22.3474 33.2806C22.2873 33.2787 22.2508 33.2778 22.2376 33.2778C22.0631 33.2778 21.9337 33.3196 21.8493 33.4032C21.763 33.4868 21.6645 33.6652 21.5538 33.9383C21.415 34.2839 21.2977 34.5022 21.202 34.5932C21.1064 34.6824 20.9919 34.7539 20.8587 34.8078C21.1251 34.8803 21.3878 35.1237 21.6467 35.538L22.4965 36.8981H21.8183L21.1289 35.7888C20.9394 35.4823 20.7809 35.2723 20.6533 35.159C20.5257 35.0438 20.3606 34.9862 20.158 34.9862V36.8981H19.6121V32.8124Z" fill="white"/>
<path d="M22.6147 32.8124H23.1663L24.5114 35.3151L25.6877 32.8124H26.2308L24.683 35.9895C24.4898 36.3871 24.3313 36.6472 24.2075 36.7699C24.0836 36.8925 23.9064 36.9538 23.6756 36.9538C23.5349 36.9538 23.3623 36.9213 23.1578 36.8562V36.3936C23.3041 36.4772 23.4589 36.519 23.6221 36.519C23.7553 36.519 23.8698 36.4772 23.9655 36.3936C24.063 36.3081 24.1699 36.1149 24.2863 35.8139L22.6147 32.8124Z" fill="white"/>
<path d="M27.7447 36.8981V33.2945H26.3856V32.8124H29.6555V33.2945H28.2907V36.8981H27.7447Z" fill="white"/>
<path d="M33.1618 35.4655L33.7078 35.6021C33.5933 36.0462 33.3869 36.3852 33.0887 36.6194C32.7922 36.8516 32.4292 36.9677 31.9996 36.9677C31.555 36.9677 31.1929 36.8785 30.9134 36.7002C30.6357 36.52 30.4237 36.2598 30.2774 35.9198C30.1329 35.5798 30.0607 35.2147 30.0607 34.8245C30.0607 34.3991 30.1423 34.0284 30.3055 33.7125C30.4706 33.3948 30.7042 33.1542 31.0062 32.9907C31.3102 32.8254 31.6441 32.7427 32.0081 32.7427C32.4208 32.7427 32.7679 32.8467 33.0493 33.0548C33.3307 33.2629 33.5267 33.5555 33.6374 33.9327L33.0999 34.0581C33.0042 33.7608 32.8654 33.5444 32.6834 33.4088C32.5015 33.2731 32.2726 33.2053 31.9968 33.2053C31.6797 33.2053 31.4143 33.2806 31.2004 33.4311C30.9884 33.5816 30.8393 33.7841 30.753 34.0386C30.6667 34.2913 30.6235 34.5524 30.6235 34.8218C30.6235 35.1692 30.6742 35.473 30.7755 35.7331C30.8787 35.9914 31.0381 36.1846 31.2539 36.3128C31.4696 36.441 31.7032 36.5051 31.9546 36.5051C32.2604 36.5051 32.5193 36.4178 32.7313 36.2431C32.9433 36.0685 33.0868 35.8093 33.1618 35.4655Z" fill="white"/>
<path d="M34.3916 32.8124H34.9375V34.6016C35.187 34.6016 35.3624 34.5542 35.4637 34.4595C35.565 34.3628 35.6945 34.1324 35.8521 33.7683C35.9665 33.5007 36.0603 33.3121 36.1335 33.2025C36.2085 33.091 36.3145 32.9981 36.4515 32.9238C36.5884 32.8477 36.7394 32.8096 36.9045 32.8096C37.1146 32.8096 37.2253 32.8114 37.2366 32.8151V33.2833C37.2178 33.2833 37.1812 33.2824 37.1268 33.2806C37.0668 33.2787 37.0302 33.2778 37.0171 33.2778C36.8426 33.2778 36.7132 33.3196 36.6288 33.4032C36.5425 33.4868 36.444 33.6652 36.3333 33.9383C36.1944 34.2839 36.0772 34.5022 35.9815 34.5932C35.8858 34.6824 35.7714 34.7539 35.6382 34.8078C35.9046 34.8803 36.1672 35.1237 36.4261 35.538L37.276 36.8981H36.5978L35.9083 35.7888C35.7189 35.4823 35.5603 35.2723 35.4328 35.159C35.3052 35.0438 35.1401 34.9862 34.9375 34.9862V36.8981H34.3916V32.8124Z" fill="white"/>
</g>
<defs>
<clipPath id="clip0_3983_46738">
<rect width="52" height="52" fill="white" transform="translate(0 0.5)"/>
</clipPath>
</defs>
</svg>
