<svg width="121" height="80" viewBox="0 0 121 80" fill="none" xmlns="http://www.w3.org/2000/svg">
<g filter="url(#filter0_d_4131_44921)">
<rect width="113.659" height="80" transform="translate(3.3418)" fill="url(#paint0_linear_4131_44921)"/>
<path d="M19.1934 30.8691C19.7048 30.8691 20.1522 30.9368 20.5357 31.0721C20.9192 31.2075 21.22 31.403 21.4381 31.6587C21.6562 31.9144 21.7652 32.2189 21.7652 32.5724C21.7652 32.8882 21.6825 33.1702 21.5171 33.4184C21.3516 33.659 21.1373 33.8733 20.8741 34.0613C20.6109 34.2418 20.3251 34.3922 20.0168 34.5125C19.716 34.6328 19.4228 34.7231 19.137 34.7832C19.498 34.7907 19.8589 34.8359 20.2199 34.9186C20.5808 35.0013 20.9079 35.1291 21.2012 35.3021C21.502 35.4751 21.7427 35.6931 21.9231 35.9563C22.1036 36.212 22.1938 36.5166 22.1938 36.87C22.1938 37.2385 22.0923 37.5694 21.8893 37.8626C21.6938 38.1484 21.4268 38.389 21.0884 38.5845C20.7575 38.7725 20.3815 38.9154 19.9604 39.0132C19.5393 39.1185 19.1069 39.1711 18.6632 39.1711C18.2797 39.1711 17.9075 39.1297 17.5465 39.047C17.1931 38.9643 16.8885 38.8289 16.6329 38.6409C16.4674 38.5206 16.3208 38.374 16.1929 38.201C16.0726 38.0206 16.0125 37.8213 16.0125 37.6032C16.0125 37.3174 16.1065 37.0918 16.2945 36.9264C16.4825 36.761 16.7081 36.6782 16.9713 36.6782C17.2345 36.6782 17.4488 36.7534 17.6142 36.9038C17.7796 37.0542 17.8624 37.2798 17.8624 37.5806C17.8624 37.8138 17.7834 38.013 17.6255 38.1785C17.4751 38.3439 17.2645 38.4605 16.9938 38.5281C17.1367 38.6409 17.336 38.7349 17.5917 38.8101C17.8473 38.8853 18.1444 38.9229 18.4828 38.9229C19.1069 38.9229 19.592 38.75 19.9379 38.4041C20.2913 38.0506 20.468 37.5468 20.468 36.8926C20.468 36.5466 20.4154 36.2233 20.3101 35.9225C20.2048 35.6217 20.0394 35.3773 19.8138 35.1893C19.5882 35.0013 19.3024 34.8998 18.9565 34.8847C18.8813 34.9223 18.8024 34.9562 18.7196 34.9863C18.6444 35.0163 18.5617 35.0314 18.4715 35.0314C18.4113 35.0314 18.3549 35.0163 18.3023 34.9863C18.2572 34.9562 18.2346 34.9073 18.2346 34.8396C18.2346 34.7193 18.3211 34.6591 18.494 34.6591C18.5692 34.6591 18.6482 34.6667 18.7309 34.6817C18.8136 34.6967 18.8926 34.7118 18.9678 34.7268C19.246 34.614 19.4604 34.4599 19.6108 34.2643C19.7687 34.0613 19.8777 33.832 19.9379 33.5763C19.998 33.3206 20.0281 33.0536 20.0281 32.7754C20.0281 32.2189 19.9191 31.8166 19.701 31.5685C19.4904 31.3203 19.1821 31.1962 18.776 31.1962C18.3474 31.1962 17.994 31.309 17.7157 31.5346C17.4375 31.7527 17.2232 32.046 17.0728 32.4144C16.9299 32.7754 16.8434 33.174 16.8133 33.6101H16.5539C16.5539 33.1364 16.5501 32.7378 16.5426 32.4144C16.5426 32.0911 16.5389 31.8166 16.5313 31.591C16.5313 31.3654 16.5238 31.1661 16.5088 30.9932H16.7682C16.7908 31.1962 16.8209 31.3504 16.8585 31.4557C16.8961 31.5534 16.96 31.6023 17.0502 31.6023C17.1104 31.6023 17.2006 31.5609 17.3209 31.4782C17.4789 31.3729 17.6368 31.2752 17.7947 31.1849C17.9526 31.0872 18.1406 31.012 18.3587 30.9593C18.5843 30.8992 18.8625 30.8691 19.1934 30.8691ZM27.4453 30.8691C28.2425 30.8691 28.938 31.0308 29.5321 31.3541C30.1337 31.6775 30.6 32.1437 30.9308 32.7528C31.2617 33.3544 31.4271 34.0876 31.4271 34.9524C31.4271 35.7947 31.2579 36.5316 30.9195 37.1633C30.5812 37.795 30.1074 38.2875 29.4983 38.6409C28.8967 38.9944 28.2086 39.1711 27.4341 39.1711C26.6369 39.1711 25.9376 39.0094 25.336 38.6861C24.7419 38.3627 24.2795 37.8965 23.9486 37.2874C23.6177 36.6782 23.4523 35.9451 23.4523 35.0878C23.4523 34.2455 23.6215 33.5086 23.9599 32.8769C24.3058 32.2452 24.7758 31.7527 25.3698 31.3993C25.9714 31.0458 26.6633 30.8691 27.4453 30.8691ZM27.4002 31.0721C26.9791 31.0721 26.6106 31.2413 26.2948 31.5797C25.9865 31.9181 25.7458 32.3844 25.5729 32.9784C25.4074 33.5725 25.3247 34.2606 25.3247 35.0427C25.3247 35.8398 25.4187 36.5354 25.6067 37.1294C25.8022 37.716 26.0617 38.171 26.385 38.4943C26.7159 38.8101 27.0806 38.9681 27.4792 38.9681C27.9003 38.9681 28.265 38.7989 28.5733 38.4605C28.8892 38.1221 29.1298 37.6558 29.2952 37.0618C29.4682 36.4602 29.5547 35.7721 29.5547 34.9975C29.5547 34.1929 29.4569 33.4973 29.2614 32.9108C29.0734 32.3242 28.814 31.873 28.4831 31.5572C28.1597 31.2338 27.7988 31.0721 27.4002 31.0721ZM40.014 31.027V31.2526C39.7583 31.2601 39.5628 31.2902 39.4274 31.3429C39.2996 31.388 39.2131 31.4782 39.168 31.6136C39.1229 31.7414 39.1003 31.9445 39.1003 32.2227V37.8175C39.1003 38.0882 39.1229 38.2913 39.168 38.4266C39.2131 38.562 39.2996 38.6522 39.4274 38.6973C39.5628 38.7425 39.7583 38.7725 40.014 38.7876V39.0132C39.8109 38.9981 39.544 38.9906 39.2131 38.9906C38.8897 38.9831 38.5438 38.9793 38.1753 38.9793C37.8219 38.9793 37.476 38.9831 37.1376 38.9906C36.7992 38.9906 36.521 38.9981 36.3029 39.0132V38.7876C36.5811 38.7725 36.7917 38.7425 36.9346 38.6973C37.085 38.6522 37.1827 38.562 37.2278 38.4266C37.2805 38.2913 37.3068 38.0882 37.3068 37.8175V32.2227C37.3068 31.9445 37.2805 31.7377 37.2278 31.6023C37.1827 31.4669 37.1 31.3767 36.9797 31.3316C36.8669 31.2789 36.7165 31.2526 36.5285 31.2526H36.4495C36.269 31.2526 36.1224 31.2789 36.0096 31.3316C35.9043 31.3767 35.8254 31.4707 35.7727 31.6136C35.7276 31.7489 35.6938 31.952 35.6712 32.2227C35.6336 32.6664 35.596 33.1439 35.5584 33.6552C35.5283 34.1666 35.487 34.6817 35.4343 35.2006C35.3817 35.7195 35.3065 36.2158 35.2087 36.6895C35.1185 37.1633 34.9944 37.5882 34.8365 37.9642C34.6786 38.3326 34.4755 38.6259 34.2274 38.844C33.9792 39.0621 33.6747 39.1711 33.3137 39.1711C32.9753 39.1711 32.682 39.0771 32.4339 38.8891C32.1932 38.6936 32.0729 38.4379 32.0729 38.1221C32.0729 37.8288 32.1707 37.5957 32.3662 37.4227C32.5692 37.2498 32.8136 37.1633 33.0994 37.1633C33.3475 37.1633 33.5468 37.2272 33.6972 37.355C33.8551 37.4754 33.9341 37.6446 33.9341 37.8626C33.9341 38.1258 33.8476 38.3477 33.6747 38.5281C33.5092 38.7011 33.2949 38.8252 33.0317 38.9004C33.0693 38.9229 33.1107 38.938 33.1558 38.9455C33.2084 38.953 33.2611 38.9568 33.3137 38.9568C33.6596 38.9568 33.9491 38.8252 34.1823 38.562C34.4154 38.2988 34.6034 37.9416 34.7463 37.4904C34.8967 37.0317 35.0132 36.5128 35.0959 35.9338C35.1786 35.3547 35.2426 34.7494 35.2877 34.1177C35.3328 33.4785 35.3742 32.8468 35.4118 32.2227C35.4343 31.9595 35.423 31.7602 35.3779 31.6249C35.3403 31.4895 35.2501 31.3955 35.1072 31.3429C34.9719 31.2902 34.7688 31.2601 34.4981 31.2526V31.027C34.656 31.0345 34.844 31.0421 35.0621 31.0496C35.2802 31.0571 35.4794 31.0609 35.6599 31.0609C35.8329 31.0609 35.9983 31.0571 36.1562 31.0496C36.3217 31.0345 36.4871 31.027 36.6526 31.027C36.9383 31.027 37.1977 31.0345 37.4309 31.0496C37.664 31.0571 37.9422 31.0609 38.2656 31.0609C38.4536 31.0609 38.6566 31.0609 38.8747 31.0609C39.1003 31.0533 39.3108 31.0496 39.5064 31.0496C39.7094 31.0421 39.8786 31.0345 40.014 31.027ZM45.1905 30.8691C45.9876 30.8691 46.6832 31.0308 47.2772 31.3541C47.8788 31.6775 48.3451 32.1437 48.6759 32.7528C49.0068 33.3544 49.1723 34.0876 49.1723 34.9524C49.1723 35.7947 49.0031 36.5316 48.6647 37.1633C48.3263 37.795 47.8525 38.2875 47.2434 38.6409C46.6418 38.9944 45.9537 39.1711 45.1792 39.1711C44.3821 39.1711 43.6827 39.0094 43.0811 38.6861C42.487 38.3627 42.0246 37.8965 41.6937 37.2874C41.3628 36.6782 41.1974 35.9451 41.1974 35.0878C41.1974 34.2455 41.3666 33.5086 41.705 32.8769C42.0509 32.2452 42.5209 31.7527 43.115 31.3993C43.7166 31.0458 44.4084 30.8691 45.1905 30.8691ZM45.1453 31.0721C44.7242 31.0721 44.3558 31.2413 44.0399 31.5797C43.7316 31.9181 43.491 32.3844 43.318 32.9784C43.1526 33.5725 43.0698 34.2606 43.0698 35.0427C43.0698 35.8398 43.1638 36.5354 43.3518 37.1294C43.5474 37.716 43.8068 38.171 44.1302 38.4943C44.461 38.8101 44.8257 38.9681 45.2243 38.9681C45.6454 38.9681 46.0101 38.7989 46.3185 38.4605C46.6343 38.1221 46.8749 37.6558 47.0404 37.0618C47.2133 36.4602 47.2998 35.7721 47.2998 34.9975C47.2998 34.1929 47.202 33.4973 47.0065 32.9108C46.8185 32.3242 46.5591 31.873 46.2282 31.5572C45.9049 31.2338 45.5439 31.0721 45.1453 31.0721ZM57.3498 31.027C57.3198 31.4105 57.2972 31.779 57.2822 32.1324C57.2746 32.4859 57.2709 32.7566 57.2709 32.9446C57.2709 33.11 57.2746 33.268 57.2822 33.4184C57.2897 33.5688 57.2972 33.6966 57.3047 33.8019H57.0453C56.925 33.1702 56.7708 32.6701 56.5828 32.3016C56.4023 31.9332 56.1842 31.6737 55.9286 31.5233C55.6729 31.3654 55.3721 31.2865 55.0262 31.2865H54.7667V37.7273C54.7667 38.0281 54.7968 38.2537 54.857 38.4041C54.9247 38.5545 55.045 38.656 55.2179 38.7086C55.3909 38.7537 55.6428 38.7801 55.9737 38.7876V39.0132C55.7406 39.0057 55.4285 38.9981 55.0375 38.9906C54.6539 38.9831 54.2516 38.9793 53.8305 38.9793C53.4169 38.9793 53.0259 38.9831 52.6574 38.9906C52.2889 38.9981 51.9919 39.0057 51.7663 39.0132V38.7876C52.1047 38.7801 52.3604 38.7537 52.5333 38.7086C52.7063 38.656 52.8228 38.5545 52.883 38.4041C52.9432 38.2537 52.9732 38.0281 52.9732 37.7273V31.2865H52.7251C52.3792 31.2865 52.0784 31.3654 51.8227 31.5233C51.567 31.6737 51.3489 31.9332 51.1685 32.3016C50.988 32.6626 50.8301 33.1627 50.6947 33.8019H50.4353C50.4503 33.6966 50.4578 33.5688 50.4578 33.4184C50.4653 33.268 50.4691 33.11 50.4691 32.9446C50.4691 32.7566 50.4616 32.4859 50.4465 32.1324C50.439 31.779 50.4202 31.4105 50.3901 31.027C50.7361 31.0345 51.1121 31.0421 51.5181 31.0496C51.9317 31.0571 52.3453 31.0609 52.7589 31.0609C53.1725 31.0609 53.5448 31.0609 53.8756 31.0609C54.214 31.0609 54.5863 31.0609 54.9923 31.0609C55.4059 31.0609 55.8195 31.0571 56.2331 31.0496C56.6467 31.0421 57.019 31.0345 57.3498 31.027ZM62.5721 30.8691C63.3692 30.8691 64.0648 31.0308 64.6589 31.3541C65.2604 31.6775 65.7267 32.1437 66.0576 32.7528C66.3884 33.3544 66.5539 34.0876 66.5539 34.9524C66.5539 35.7947 66.3847 36.5316 66.0463 37.1633C65.7079 37.795 65.2341 38.2875 64.625 38.6409C64.0234 38.9944 63.3353 39.1711 62.5608 39.1711C61.7637 39.1711 61.0643 39.0094 60.4627 38.6861C59.8687 38.3627 59.4062 37.8965 59.0753 37.2874C58.7444 36.6782 58.579 35.9451 58.579 35.0878C58.579 34.2455 58.7482 33.5086 59.0866 32.8769C59.4325 32.2452 59.9025 31.7527 60.4966 31.3993C61.0982 31.0458 61.79 30.8691 62.5721 30.8691ZM62.527 31.0721C62.1058 31.0721 61.7374 31.2413 61.4215 31.5797C61.1132 31.9181 60.8726 32.3844 60.6996 32.9784C60.5342 33.5725 60.4515 34.2606 60.4515 35.0427C60.4515 35.8398 60.5455 36.5354 60.7335 37.1294C60.929 37.716 61.1884 38.171 61.5118 38.4943C61.8426 38.8101 62.2074 38.9681 62.6059 38.9681C63.027 38.9681 63.3917 38.7989 63.7001 38.4605C64.0159 38.1221 64.2565 37.6558 64.422 37.0618C64.5949 36.4602 64.6814 35.7721 64.6814 34.9975C64.6814 34.1929 64.5837 33.4973 64.3881 32.9108C64.2001 32.3242 63.9407 31.873 63.6098 31.5572C63.2865 31.2338 62.9255 31.0721 62.527 31.0721ZM71.2706 31.027V31.2526C71.03 31.2601 70.8495 31.2902 70.7292 31.3429C70.6089 31.388 70.5262 31.4782 70.481 31.6136C70.4434 31.7414 70.4246 31.9445 70.4246 32.2227V37.8175C70.4246 38.0882 70.4434 38.2913 70.481 38.4266C70.5262 38.562 70.6089 38.6522 70.7292 38.6973C70.8495 38.7425 71.03 38.7725 71.2706 38.7876V39.0132C71.0676 38.9981 70.8119 38.9906 70.5036 38.9906C70.1953 38.9831 69.8832 38.9793 69.5674 38.9793C69.1989 38.9793 68.8567 38.9831 68.5409 38.9906C68.2326 38.9906 67.9807 38.9981 67.7851 39.0132V38.7876C68.0183 38.7725 68.195 38.7425 68.3153 38.6973C68.4431 38.6522 68.5259 38.562 68.5635 38.4266C68.6086 38.2913 68.6311 38.0882 68.6311 37.8175V32.2227C68.6311 31.9445 68.6086 31.7414 68.5635 31.6136C68.5259 31.4782 68.4431 31.388 68.3153 31.3429C68.195 31.2902 68.0183 31.2601 67.7851 31.2526V31.027C67.9807 31.0345 68.2326 31.0421 68.5409 31.0496C68.8567 31.0571 69.1989 31.0609 69.5674 31.0609C69.8832 31.0609 70.1953 31.0571 70.5036 31.0496C70.8119 31.0421 71.0676 31.0345 71.2706 31.027ZM73.865 31.6474C73.865 31.6474 73.865 31.6888 73.865 31.7715C73.865 31.8467 73.865 31.9257 73.865 32.0084C73.8725 32.0911 73.8763 32.1324 73.8763 32.1324L70.1088 38.5056L70.0073 38.1898L73.865 31.6474ZM76.2789 31.027V31.2526C76.0383 31.2601 75.8578 31.2902 75.7375 31.3429C75.6171 31.388 75.5344 31.4782 75.4893 31.6136C75.4517 31.7414 75.4329 31.9445 75.4329 32.2227V37.8175C75.4329 38.0882 75.4517 38.2913 75.4893 38.4266C75.5344 38.562 75.6171 38.6522 75.7375 38.6973C75.8578 38.7425 76.0383 38.7725 76.2789 38.7876V39.0132C76.0834 38.9981 75.8277 38.9906 75.5119 38.9906C75.196 38.9831 74.8576 38.9793 74.4967 38.9793C74.1808 38.9793 73.865 38.9831 73.5492 38.9906C73.2409 38.9906 72.9889 38.9981 72.7934 39.0132V38.7876C73.0265 38.7725 73.2033 38.7425 73.3236 38.6973C73.4439 38.6522 73.5266 38.562 73.5717 38.4266C73.6168 38.2913 73.6394 38.0882 73.6394 37.8175V32.2227C73.6394 31.9445 73.6168 31.7414 73.5717 31.6136C73.5266 31.4782 73.4439 31.388 73.3236 31.3429C73.2033 31.2902 73.0265 31.2601 72.7934 31.2526V31.027C72.9889 31.0345 73.2409 31.0421 73.5492 31.0496C73.865 31.0571 74.1808 31.0609 74.4967 31.0609C74.8576 31.0609 75.196 31.0571 75.5119 31.0496C75.8277 31.0421 76.0834 31.0345 76.2789 31.027ZM73.7973 28.3537C74.053 28.3537 74.2636 28.4251 74.429 28.568C74.602 28.7034 74.6884 28.8801 74.6884 29.0982C74.6884 29.2786 74.6245 29.4366 74.4967 29.5719C74.3764 29.7073 74.2147 29.8276 74.0116 29.9329C73.8011 30.0381 73.5266 30.1321 73.1882 30.2149C72.8498 30.2901 72.4625 30.3277 72.0264 30.3277C71.5902 30.3277 71.203 30.2901 70.8646 30.2149C70.5262 30.1321 70.2517 30.0381 70.0411 29.9329C69.8456 29.8351 69.6839 29.7186 69.5561 29.5832C69.4358 29.4478 69.3756 29.2862 69.3756 29.0982C69.3756 28.8876 69.4583 28.7109 69.6238 28.568C69.7892 28.4251 70.0035 28.3537 70.2667 28.3537C70.5224 28.3537 70.7367 28.4251 70.9097 28.568C71.0902 28.7034 71.1804 28.8838 71.1804 29.1094C71.1804 29.305 71.109 29.4629 70.9661 29.5832C70.8307 29.7035 70.669 29.79 70.481 29.8426C70.6314 29.9028 70.7931 29.9554 70.9661 30.0005C71.1466 30.0381 71.3308 30.0645 71.5188 30.0795C71.7068 30.0945 71.876 30.1021 72.0264 30.1021C72.1843 30.1021 72.3535 30.0945 72.534 30.0795C72.7145 30.0645 72.8949 30.0381 73.0754 30.0005C73.2634 29.9554 73.4251 29.899 73.5604 29.8314C73.3649 29.7862 73.2033 29.7035 73.0754 29.5832C72.9476 29.4554 72.8837 29.2974 72.8837 29.1094C72.8837 28.8838 72.9701 28.7034 73.1431 28.568C73.316 28.4251 73.5341 28.3537 73.7973 28.3537ZM83.6978 31.027V31.2526C83.4873 31.2601 83.3256 31.2902 83.2128 31.3429C83.1075 31.388 83.0323 31.4745 82.9872 31.6023C82.9421 31.7226 82.9195 31.9106 82.9195 32.1663V34.3095C82.9195 34.6027 82.9458 34.8471 82.9985 35.0427C83.0511 35.2307 83.1564 35.3735 83.3143 35.4713C83.4722 35.5615 83.7129 35.6067 84.0362 35.6067C84.3445 35.6067 84.6378 35.5841 84.916 35.539C85.2018 35.4863 85.4424 35.4224 85.638 35.3472V35.5615C85.5026 35.6142 85.3221 35.6743 85.0965 35.742C84.8709 35.8022 84.619 35.8548 84.3408 35.8999C84.0625 35.9451 83.773 35.9676 83.4722 35.9676C83.1263 35.9676 82.8105 35.9338 82.5247 35.8661C82.2389 35.7984 81.9983 35.7007 81.8028 35.5728C81.5396 35.4074 81.3591 35.2043 81.2614 34.9637C81.1711 34.7155 81.126 34.3922 81.126 33.9936V32.1663C81.126 31.9106 81.1034 31.7226 81.0583 31.6023C81.0132 31.4745 80.9305 31.388 80.8102 31.3429C80.6974 31.2902 80.5282 31.2601 80.3026 31.2526V31.027C80.483 31.0345 80.735 31.0421 81.0583 31.0496C81.3817 31.0571 81.705 31.0609 82.0284 31.0609C82.3593 31.0609 82.6751 31.0571 82.9759 31.0496C83.2767 31.0421 83.5173 31.0345 83.6978 31.027ZM88.2774 31.027V31.2526C88.0368 31.2601 87.8563 31.2902 87.736 31.3429C87.6157 31.388 87.533 31.4782 87.4879 31.6136C87.4503 31.7414 87.4315 31.9445 87.4315 32.2227V37.8175C87.4315 38.0882 87.4503 38.2913 87.4879 38.4266C87.533 38.562 87.6157 38.6522 87.736 38.6973C87.8563 38.7425 88.0368 38.7725 88.2774 38.7876V39.0132C88.0293 39.0057 87.7473 38.9981 87.4315 38.9906C87.1231 38.9831 86.8073 38.9793 86.4839 38.9793C86.0854 38.9793 85.7019 38.9831 85.3334 38.9906C84.9649 38.9981 84.6641 39.0057 84.431 39.0132V38.765C84.7619 38.7575 85.0138 38.7312 85.1868 38.6861C85.3672 38.6409 85.4876 38.5469 85.5477 38.4041C85.6079 38.2612 85.638 38.0431 85.638 37.7498V32.2227C85.638 31.9445 85.6154 31.7414 85.5703 31.6136C85.5327 31.4782 85.45 31.388 85.3221 31.3429C85.2018 31.2902 85.0251 31.2601 84.792 31.2526V31.027C84.9875 31.0345 85.2432 31.0421 85.559 31.0496C85.8748 31.0571 86.2132 31.0609 86.5742 31.0609C86.89 31.0609 87.2021 31.0571 87.5104 31.0496C87.8187 31.0421 88.0744 31.0345 88.2774 31.027ZM93.2519 31.0045L95.9929 38.0657C96.0982 38.3364 96.2147 38.5244 96.3426 38.6297C96.4779 38.7274 96.5982 38.7801 96.7035 38.7876V39.0132C96.4779 38.9981 96.211 38.9906 95.9027 38.9906C95.6019 38.9831 95.2973 38.9793 94.989 38.9793C94.6431 38.9793 94.3159 38.9831 94.0076 38.9906C93.6993 38.9906 93.4549 38.9981 93.2744 39.0132V38.7876C93.658 38.7725 93.8986 38.7086 93.9963 38.5958C94.1016 38.4755 94.0791 38.2236 93.9287 37.8401L92.0111 32.5949L92.2141 32.3016L90.4996 36.7685C90.3341 37.1821 90.2326 37.5205 90.195 37.7837C90.1649 38.0469 90.1837 38.2499 90.2514 38.3928C90.3266 38.5357 90.4432 38.6372 90.6011 38.6973C90.7665 38.75 90.9621 38.7801 91.1877 38.7876V39.0132C90.9395 38.9981 90.7026 38.9906 90.477 38.9906C90.2514 38.9831 90.0221 38.9793 89.7889 38.9793C89.6235 38.9793 89.4656 38.9831 89.3152 38.9906C89.1723 38.9906 89.0445 38.9981 88.9317 39.0132V38.7876C89.0896 38.7575 89.2513 38.656 89.4167 38.483C89.5822 38.3101 89.7438 38.0168 89.9017 37.6032L92.4736 31.0045C92.5939 31.012 92.7217 31.0157 92.8571 31.0157C93 31.0157 93.1316 31.012 93.2519 31.0045ZM94.0415 35.7646V35.9902H90.6801L90.7929 35.7646H94.0415ZM101.289 30.8691C101.786 30.8691 102.192 30.9443 102.508 31.0947C102.831 31.2376 103.117 31.4068 103.365 31.6023C103.515 31.7151 103.628 31.7301 103.703 31.6474C103.786 31.5572 103.842 31.3504 103.873 31.027H104.132C104.117 31.3203 104.106 31.6775 104.098 32.0986C104.091 32.5122 104.087 33.0649 104.087 33.7568H103.827C103.79 33.4108 103.741 33.1176 103.681 32.8769C103.621 32.6288 103.538 32.4107 103.433 32.2227C103.327 32.0347 103.177 31.8655 102.981 31.7151C102.793 31.5271 102.575 31.388 102.327 31.2977C102.079 31.2075 101.82 31.1624 101.549 31.1624C101.143 31.1624 100.797 31.2714 100.511 31.4895C100.225 31.7001 99.9922 31.9896 99.8118 32.358C99.6388 32.7265 99.511 33.1439 99.4282 33.6101C99.3455 34.0688 99.3042 34.5463 99.3042 35.0427C99.3042 35.5465 99.3455 36.0315 99.4282 36.4978C99.5185 36.9565 99.6538 37.3663 99.8343 37.7273C100.022 38.0882 100.263 38.374 100.556 38.5845C100.85 38.7951 101.195 38.9004 101.594 38.9004C101.842 38.9004 102.09 38.8553 102.338 38.765C102.594 38.6673 102.812 38.5281 102.993 38.3477C103.286 38.1221 103.485 37.8438 103.591 37.513C103.696 37.1746 103.775 36.7271 103.827 36.1707H104.087C104.087 36.885 104.091 37.4641 104.098 37.9078C104.106 38.3439 104.117 38.7124 104.132 39.0132H103.873C103.842 38.6898 103.79 38.4868 103.715 38.4041C103.647 38.3214 103.53 38.3326 103.365 38.4379C103.087 38.6334 102.79 38.8064 102.474 38.9568C102.165 39.0997 101.767 39.1711 101.278 39.1711C100.481 39.1711 99.7817 39.0094 99.1801 38.6861C98.586 38.3627 98.1235 37.8965 97.7927 37.2874C97.4618 36.6782 97.2963 35.9451 97.2963 35.0878C97.2963 34.2455 97.4655 33.5086 97.8039 32.8769C98.1498 32.2452 98.6198 31.7527 99.2139 31.3993C99.8155 31.0458 100.507 30.8691 101.289 30.8691Z" fill="#E9DFC8"/>
<path d="M22.3363 45.9306L23.4607 47.1757L22.2797 48.5718H21.9515L23.14 47.1682L22.0081 45.9306H22.3363ZM23.4117 45.9306H23.6758V48.5718H23.4117V45.9306ZM24.7134 45.9306H25.0417L23.9173 47.1682L25.0983 48.5718H24.77L23.6267 47.1757L24.7134 45.9306ZM30.9985 46.206L28.7459 48.7038L28.761 48.2963L31.0136 45.7985L30.9985 46.206ZM29.01 45.9306V48.3567L28.7459 48.7038V45.9306H29.01ZM31.0136 45.7985V48.5718H30.7494V46.1457L31.0136 45.7985ZM36.7889 45.9306V48.5718H36.5248V46.1796H35.2796V47.6662C35.2796 47.8272 35.257 47.9769 35.2117 48.1152C35.1664 48.2536 35.0985 48.3643 35.008 48.4473C34.9199 48.5303 34.8105 48.5718 34.6797 48.5718V48.3454C34.7376 48.3454 34.7879 48.3265 34.8306 48.2888C34.8734 48.2485 34.9099 48.1945 34.9401 48.1265C34.9702 48.0586 34.9929 47.9807 35.008 47.8926C35.0231 47.8021 35.0306 47.7065 35.0306 47.6059V45.9306H36.7889ZM40.8503 47.2512C40.8503 47.46 40.8956 47.6474 40.9861 47.8134C41.0767 47.9769 41.2012 48.1064 41.3597 48.202C41.5182 48.2951 41.6968 48.3416 41.8955 48.3416C42.0992 48.3416 42.2791 48.2951 42.435 48.202C42.5935 48.1064 42.718 47.9769 42.8086 47.8134C42.8991 47.6474 42.9444 47.46 42.9444 47.2512C42.9444 47.0424 42.8991 46.8563 42.8086 46.6928C42.718 46.5267 42.5935 46.3972 42.435 46.3041C42.2791 46.2085 42.0992 46.1608 41.8955 46.1608C41.6968 46.1608 41.5182 46.2085 41.3597 46.3041C41.2012 46.3972 41.0767 46.5267 40.9861 46.6928C40.8956 46.8563 40.8503 47.0424 40.8503 47.2512ZM40.5711 47.2512C40.5711 47.0575 40.6038 46.8789 40.6692 46.7154C40.7346 46.5494 40.8264 46.406 40.9446 46.2853C41.0654 46.162 41.2062 46.0664 41.3672 45.9985C41.5307 45.9281 41.7068 45.8929 41.8955 45.8929C42.0892 45.8929 42.2652 45.9281 42.4237 45.9985C42.5847 46.0664 42.7243 46.162 42.8425 46.2853C42.9633 46.406 43.0563 46.5494 43.1217 46.7154C43.1897 46.8789 43.2236 47.0575 43.2236 47.2512C43.2236 47.4424 43.1897 47.621 43.1217 47.787C43.0563 47.953 42.9633 48.0976 42.8425 48.2209C42.7243 48.3416 42.5847 48.4372 42.4237 48.5076C42.2652 48.5756 42.0892 48.6095 41.8955 48.6095C41.7068 48.6095 41.5307 48.5756 41.3672 48.5076C41.2062 48.4372 41.0654 48.3416 40.9446 48.2209C40.8264 48.0976 40.7346 47.953 40.6692 47.787C40.6038 47.621 40.5711 47.4424 40.5711 47.2512ZM49.2758 46.206L47.0233 48.7038L47.0384 48.2963L49.2909 45.7985L49.2758 46.206ZM47.2874 45.9306V48.3567L47.0233 48.7038V45.9306H47.2874ZM49.2909 45.7985V48.5718H49.0268V46.1457L49.2909 45.7985ZM47.6534 45.1609H47.8722C47.8722 45.2036 47.8836 45.2502 47.9062 45.3005C47.9313 45.3508 47.9703 45.3948 48.0232 45.4325C48.0785 45.4678 48.154 45.4854 48.2495 45.4854C48.3426 45.4854 48.4156 45.4678 48.4684 45.4325C48.5237 45.3948 48.5627 45.3508 48.5854 45.3005C48.6105 45.2502 48.6231 45.2036 48.6231 45.1609H48.8457C48.8457 45.2464 48.8231 45.3307 48.7778 45.4137C48.735 45.4942 48.6696 45.5608 48.5816 45.6137C48.4935 45.664 48.3829 45.6891 48.2495 45.6891C48.1187 45.6891 48.0081 45.664 47.9175 45.6137C47.8295 45.5608 47.7628 45.4942 47.7175 45.4137C47.6748 45.3307 47.6534 45.2464 47.6534 45.1609ZM57.6765 45.9306H57.9406V48.5718H57.6765V45.9306ZM59.0084 45.9306H59.3367L58.1821 47.1682L59.3933 48.5718H59.0612L57.8614 47.1757L59.0084 45.9306ZM63.0744 47.2512C63.0744 47.46 63.1197 47.6474 63.2103 47.8134C63.3008 47.9769 63.4253 48.1064 63.5838 48.202C63.7423 48.2951 63.9209 48.3416 64.1196 48.3416C64.3233 48.3416 64.5032 48.2951 64.6591 48.202C64.8176 48.1064 64.9421 47.9769 65.0327 47.8134C65.1232 47.6474 65.1685 47.46 65.1685 47.2512C65.1685 47.0424 65.1232 46.8563 65.0327 46.6928C64.9421 46.5267 64.8176 46.3972 64.6591 46.3041C64.5032 46.2085 64.3233 46.1608 64.1196 46.1608C63.9209 46.1608 63.7423 46.2085 63.5838 46.3041C63.4253 46.3972 63.3008 46.5267 63.2103 46.6928C63.1197 46.8563 63.0744 47.0424 63.0744 47.2512ZM62.7952 47.2512C62.7952 47.0575 62.8279 46.8789 62.8933 46.7154C62.9587 46.5494 63.0505 46.406 63.1687 46.2853C63.2895 46.162 63.4304 46.0664 63.5913 45.9985C63.7548 45.9281 63.9309 45.8929 64.1196 45.8929C64.3133 45.8929 64.4893 45.9281 64.6478 45.9985C64.8088 46.0664 64.9484 46.162 65.0666 46.2853C65.1874 46.406 65.2804 46.5494 65.3458 46.7154C65.4138 46.8789 65.4477 47.0575 65.4477 47.2512C65.4477 47.4424 65.4138 47.621 65.3458 47.787C65.2804 47.953 65.1874 48.0976 65.0666 48.2209C64.9484 48.3416 64.8088 48.4372 64.6478 48.5076C64.4893 48.5756 64.3133 48.6095 64.1196 48.6095C63.9309 48.6095 63.7548 48.5756 63.5913 48.5076C63.4304 48.4372 63.2895 48.3416 63.1687 48.2209C63.0505 48.0976 62.9587 47.953 62.8933 47.787C62.8279 47.621 62.7952 47.4424 62.7952 47.2512ZM69.5794 46.6362L69.3681 48.5718H69.104L69.4172 45.8136L70.4736 47.7832L71.5301 45.8136L71.8433 48.5718H71.5792L71.3679 46.6362L70.4736 48.2963L69.5794 46.6362ZM77.3881 46.1796H75.8789V48.5718H75.6148V45.9306H77.6523V48.5718H77.3881V46.1796ZM83.4221 45.9306V48.5718H83.158V46.1796H81.9129V47.6662C81.9129 47.8272 81.8902 47.9769 81.8449 48.1152C81.7997 48.2536 81.7317 48.3643 81.6412 48.4473C81.5531 48.5303 81.4437 48.5718 81.3129 48.5718V48.3454C81.3708 48.3454 81.4211 48.3265 81.4639 48.2888C81.5066 48.2485 81.5431 48.1945 81.5733 48.1265C81.6035 48.0586 81.6261 47.9807 81.6412 47.8926C81.6563 47.8021 81.6638 47.7065 81.6638 47.6059V45.9306H83.4221ZM87.4986 48.5718V48.3228H88.8192V48.5718H87.4986ZM87.4986 46.1796V45.9306H88.8192V46.1796H87.4986ZM87.4986 47.255V47.0059H88.7438V47.255H87.4986ZM87.3552 45.9306H87.6194V48.5718H87.3552V45.9306ZM92.7463 45.9306H93.0104V48.5718H92.7463V45.9306ZM94.0782 45.9306H94.4065L93.2519 47.1682L94.4631 48.5718H94.131L92.9312 47.1757L94.0782 45.9306ZM98.1442 47.2512C98.1442 47.465 98.1907 47.6537 98.2838 47.8172C98.3794 47.9807 98.5039 48.1089 98.6574 48.202C98.8133 48.2951 98.9844 48.3416 99.1705 48.3416C99.2963 48.3416 99.4107 48.3265 99.5139 48.2963C99.617 48.2662 99.7113 48.2234 99.7968 48.1681C99.8824 48.1102 99.9566 48.0423 100.019 47.9643V48.3152C99.9088 48.4133 99.788 48.4875 99.6572 48.5378C99.5264 48.5856 99.3642 48.6095 99.1705 48.6095C98.9869 48.6095 98.8158 48.5768 98.6574 48.5114C98.4989 48.4435 98.3605 48.3492 98.2423 48.2284C98.1241 48.1052 98.031 47.9605 97.9631 47.7945C97.8977 47.6285 97.865 47.4474 97.865 47.2512C97.865 47.055 97.8977 46.8739 97.9631 46.7079C98.031 46.5418 98.1241 46.3985 98.2423 46.2777C98.3605 46.1545 98.4989 46.0601 98.6574 45.9947C98.8158 45.9268 98.9869 45.8929 99.1705 45.8929C99.3642 45.8929 99.5264 45.918 99.6572 45.9683C99.788 46.0161 99.9088 46.0891 100.019 46.1872V46.5381C99.9566 46.4601 99.8824 46.3934 99.7968 46.3381C99.7113 46.2802 99.6157 46.2362 99.5101 46.206C99.4069 46.1758 99.2938 46.1608 99.1705 46.1608C98.9844 46.1608 98.8133 46.2073 98.6574 46.3004C98.5039 46.3909 98.3794 46.5179 98.2838 46.6814C98.1907 46.8449 98.1442 47.0349 98.1442 47.2512Z" fill="#E9DFC8"/>
<rect x="16.2119" y="47.2026" width="2.40789" height="0.481578" fill="#E9DFC8"/>
<rect x="103.184" y="47.0527" width="1.44722" height="0.481578" fill="#E9DFC8"/>
<line x1="15.7305" y1="25.8544" x2="104.631" y2="25.8544" stroke="#E9DFC8" stroke-width="0.317503"/>
<line x1="15.7305" y1="56.811" x2="104.631" y2="56.811" stroke="#E9DFC8" stroke-width="0.317503"/>
</g>
<defs>
<filter id="filter0_d_4131_44921" x="0.0456595" y="-3.29614" width="120.25" height="86.5923" filterUnits="userSpaceOnUse" color-interpolation-filters="sRGB">
<feFlood flood-opacity="0" result="BackgroundImageFix"/>
<feColorMatrix in="SourceAlpha" type="matrix" values="0 0 0 0 0 0 0 0 0 0 0 0 0 0 0 0 0 0 127 0" result="hardAlpha"/>
<feOffset/>
<feGaussianBlur stdDeviation="1.64807"/>
<feComposite in2="hardAlpha" operator="out"/>
<feColorMatrix type="matrix" values="0 0 0 0 0 0 0 0 0 0 0 0 0 0 0 0 0 0 0.16 0"/>
<feBlend mode="normal" in2="BackgroundImageFix" result="effect1_dropShadow_4131_44921"/>
<feBlend mode="normal" in="SourceGraphic" in2="effect1_dropShadow_4131_44921" result="shape"/>
</filter>
<linearGradient id="paint0_linear_4131_44921" x1="105.854" y1="-4.82738e-06" x2="-12.0412" y2="53.4316" gradientUnits="userSpaceOnUse">
<stop stop-color="#76564B"/>
<stop offset="1" stop-color="#614238"/>
</linearGradient>
</defs>
</svg>
